<svg version="1.1" id="Layer_1" xmlns="http://www.w3.org/2000/svg" xmlns:xlink="http://www.w3.org/1999/xlink" x="0px" y="0px" width="52.234px" height="58.644px" viewBox="0 0 52.234 58.644" enable-background="new 0 0 52.234 58.644" xml:space="preserve">
<g>
	<polygon fill-rule="evenodd" clip-rule="evenodd" fill="#B3B4B4" points="20.48,2.137 20.482,2.097 20.464,2.083 20.395,2.145
		20.376,2.196 	"></polygon>
	<polygon fill-rule="evenodd" clip-rule="evenodd" fill="#B3B4B4" points="20.239,2.842 20.118,2.845 20.111,2.872 20.103,2.967
		20.126,2.985 20.145,2.985 20.195,3.009 20.212,3.007 20.245,2.985 20.263,2.981 20.287,2.961 20.317,2.93 20.315,2.913
		20.304,2.898 	"></polygon>
	<polygon fill-rule="evenodd" clip-rule="evenodd" fill="#B3B4B4" points="40.99,34.365 40.929,34.396 40.852,34.382 40.87,34.533
		40.829,34.74 40.848,34.771 40.872,34.79 40.902,34.802 40.935,34.761 40.978,34.648 40.983,34.567 40.982,34.444 40.994,34.405
		"></polygon>
	<polygon fill-rule="evenodd" clip-rule="evenodd" fill="#B3B4B4" points="40.944,36.66 40.85,36.742 40.809,36.798 40.767,36.827
		40.79,36.861 40.805,36.871 40.844,36.86 40.881,36.807 40.926,36.798 40.981,36.658 40.988,36.594 40.977,36.605 	"></polygon>
	<polygon fill-rule="evenodd" clip-rule="evenodd" fill="#B3B4B4" points="40.53,35.477 40.579,35.48 40.629,35.55 40.658,35.536
		40.675,35.595 40.698,35.622 40.718,35.62 40.757,35.6 40.765,35.568 40.712,35.395 40.706,35.388 40.668,35.347 40.623,35.214
		40.617,35.1 40.583,35.027 40.552,35.134 40.497,35.197 40.505,35.321 40.487,35.394 	"></polygon>
	<polygon fill-rule="evenodd" clip-rule="evenodd" fill="#B3B4B4" points="49.08,21.846 49.006,21.801 49.001,21.82 49.004,21.861
		48.916,21.899 48.893,21.889 48.906,21.868 48.936,21.854 48.943,21.816 48.96,21.767 48.966,21.717 48.941,21.376 48.907,21.166
		48.94,21.028 48.994,20.904 49.001,20.833 49.015,20.764 48.969,20.754 48.68,20.639 48.57,20.671 48.497,20.769 48.455,20.847
		48.207,21.008 47.875,21.072 47.696,21.16 47.465,21.218 47.377,21.229 47.352,21.231 47.187,21.176 47.115,21.178 47.02,21.203
		46.724,21.325 46.506,21.888 46.334,22.377 46.285,22.377 46.162,21.897 45.983,21.769 45.695,21.78 45.62,21.722 45.472,21.65
		45.308,21.623 45.158,21.58 45.073,21.602 44.82,21.725 44.543,21.897 44.145,21.902 44.068,21.868 43.98,21.804 43.757,21.614
		43.593,21.41 43.451,21.157 43.308,21.032 43.246,20.979 43.161,20.96 43.067,20.962 42.981,20.982 42.884,21.024 42.835,21.035
		42.804,21.029 42.789,20.973 42.874,20.983 42.984,20.837 43.159,20.765 43.316,20.651 43.36,20.604 43.39,20.552 43.409,20.472
		43.364,20.327 43.323,20.249 43.198,20.089 43.187,20.05 43.16,19.956 43.098,19.895 43.079,19.969 42.954,19.924 42.906,19.798
		42.75,19.633 42.663,19.64 42.62,19.49 42.543,19.336 42.115,19.014 41.98,18.802 41.754,18.497 41.482,18.397 41.361,18.283
		41.297,18.242 41.218,18.217 41.124,18.209 41.051,18.176 40.962,18.064 40.942,18.011 40.926,17.916 40.88,17.868 40.796,17.806
		40.762,17.852 40.749,17.929 40.769,17.989 40.773,18.024 40.751,18.087 40.702,18.014 40.632,17.82 40.593,17.763 40.541,17.756
		40.474,17.548 40.382,17.439 40.32,17.217 40.247,16.783 40.159,16.493 40.061,16.215 39.829,15.746 39.802,15.69 39.626,15.572
		39.589,15.517 39.568,15.535 39.533,15.547 39.478,15.479 39.437,15.417 39.325,15.298 39.185,15.186 39.092,15.167 39.043,15.138
		38.998,15.083 38.912,14.863 38.817,14.464 38.82,14.294 38.761,14.026 38.749,13.804 38.771,13.672 38.727,13.53 38.711,13.398
		38.697,13.327 38.7,13.228 38.748,13.249 38.777,13.28 38.78,13.253 38.776,13.224 38.74,13.161 38.644,13.047 38.527,12.836
		38.49,12.688 38.474,12.502 38.473,12.487 38.442,12.42 38.141,12.18 38.003,11.989 37.777,11.899 37.728,11.861 37.692,11.81
		37.619,11.731 37.515,11.467 37.48,11.328 37.456,11.054 37.461,11.002 37.476,10.939 37.513,10.921 37.539,10.915 37.646,10.925
		37.53,10.821 37.424,10.749 37.363,10.655 37.214,10.488 36.952,9.948 36.819,9.702 36.73,9.499 36.552,9.228 36.337,8.8
		36.27,8.72 36.207,8.394 36.171,8.284 36.135,8.216 36.059,8.157 36.028,8.084 35.946,7.941 35.948,7.864 35.931,7.704
		35.892,7.642 35.803,7.58 35.679,7.452 35.544,7.262 35.453,7.162 35.421,7.109 35.399,7.05 35.364,6.982 35.271,6.868
		35.249,6.815 35.245,6.661 35.212,6.548 35.185,6.495 35.063,6.376 35.033,6.298 35.061,6.201 35.112,6.118 35.097,6.059
		35.159,6.019 35.223,6.162 35.287,6.386 35.322,6.444 35.355,6.484 35.401,6.577 35.553,6.75 35.595,6.826 35.654,6.989
		35.657,7.056 35.694,7.16 35.819,7.304 35.948,7.414 36.072,7.582 36.28,7.761 36.404,7.813 36.467,7.712 36.517,7.608
		36.532,7.535 36.534,7.331 36.633,7.005 36.691,6.59 36.76,6.459 36.796,6.422 36.768,6.351 36.701,6.15 36.654,6.013 36.59,5.843
		36.488,5.637 36.476,5.588 36.453,5.515 36.379,5.328 36.32,5.193 36.252,5.02 36.224,4.952 36.213,4.928 36.199,4.943
		36.018,5.189 35.858,5.377 35.66,5.377 35.536,5.267 35.508,5.16 35.488,5.09 35.334,5.117 35.301,5.223 35.187,5.377
		35.131,5.377 35.081,5.229 34.93,5.256 34.878,5.377 34.854,5.377 34.875,5.202 34.904,5.133 34.856,5.146 34.786,5.14
		34.758,5.078 34.715,5.017 34.641,4.998 34.549,4.954 34.615,4.855 34.622,4.799 34.756,4.91 34.797,4.913 34.671,4.783
		34.617,4.751 34.584,4.763 34.428,4.82 34.371,4.818 34.138,4.713 34.062,4.701 34.041,4.71 34.03,4.778 34.013,4.815
		33.904,4.833 33.809,4.862 33.714,4.851 33.929,4.766 33.954,4.73 33.717,4.806 33.597,4.818 33.564,4.863 33.544,4.9
		33.512,4.933 33.487,4.98 33.422,4.982 33.368,4.974 33.288,5.005 33.065,5.18 32.956,5.247 32.856,5.296 32.776,5.323
		32.716,5.326 32.646,5.305 32.529,5.235 32.323,5.148 31.946,5.11 31.847,5.031 31.703,5.033 31.648,5.016 31.441,4.883
		31.108,4.808 30.893,4.774 30.503,4.686 30.156,4.774 30.048,4.757 29.992,4.659 29.966,4.612 29.898,4.474 29.845,4.417
		29.795,4.392 29.66,4.367 29.521,4.382 29.281,4.372 29.218,4.35 29.119,4.276 29.049,4.251 28.813,4.206 28.801,4.111
		28.801,4.058 28.698,4.016 28.609,3.878 28.46,3.823 28.332,3.779 28.166,3.736 28.035,3.666 27.928,3.635 27.69,3.643
		27.608,3.615 27.549,3.619 27.409,3.732 27.337,3.749 27.162,3.751 26.865,3.909 26.698,4.03 26.532,4.202 26.473,4.292
		26.436,4.38 26.407,4.527 26.437,4.739 26.48,4.856 26.54,4.946 26.568,5.031 26.577,5.125 26.553,5.218 26.488,5.35 26.288,5.603
		26.205,5.663 26.002,5.765 25.887,5.783 25.757,5.763 25.572,5.662 25.236,5.369 25.069,5.309 24.986,5.247 24.653,5.123
		24.261,5.015 24.034,5.005 23.808,4.975 23.608,4.897 23.52,4.844 23.443,4.759 23.374,4.657 23.316,4.514 23.279,4.403
		23.275,4.25 23.21,4.127 23.147,4.062 22.693,3.965 22.631,3.933 22.503,3.828 22.447,3.804 22.227,3.738 22.099,3.732
		22.023,3.711 21.85,3.638 21.751,3.652 21.489,3.73 21.266,3.707 21.165,3.683 20.846,3.492 20.74,3.472 20.636,3.421
		20.565,3.386 20.522,3.398 20.451,3.379 20.43,3.366 20.45,3.348 20.476,3.336 20.467,3.318 20.394,3.269 20.349,3.111
		20.263,3.059 20.222,3.135 20.175,3.146 20.103,3.15 20.09,3.073 20.097,3.008 19.92,3.03 19.819,2.976 19.72,2.877 19.645,2.708
		19.64,2.64 19.657,2.582 19.693,2.525 19.749,2.471 19.976,2.309 20.082,2.199 20.201,2.03 20.262,1.907 20.373,1.737
		20.321,1.659 20.313,1.561 20.292,1.48 20.294,1.413 20.146,1.298 20.082,1.276 20.016,1.203 19.958,1.083 19.939,0.965
		19.947,0.899 19.973,0.842 20.051,0.762 20.156,0.702 20.269,0.494 20.33,0.413 20.377,0.386 20.343,0.309 20.328,0.221
		20.259,0.232 20.135,0.339 20.004,0.381 19.968,0.454 19.897,0.504 19.817,0.462 19.844,0.393 19.747,0.253 19.753,0.111
		19.68,0.074 19.613,0.068 19.538,0.071 19.54,0.105 19.552,0.131 19.507,0.169 19.476,0.107 19.497,0.071 19.513,0.026
		19.46,0.008 19.412,0 19.046,0.12 18.99,0.152 18.831,0.283 18.665,0.334 18.363,0.356 18.217,0.401 18.137,0.381 18.015,0.282
		17.898,0.232 17.745,0.205 17.767,0.308 17.703,0.329 17.557,0.348 17.322,0.279 17.263,0.211 17.156,0.244 17.102,0.333
		16.977,0.394 16.748,0.447 16.544,0.55 16.457,0.573 16.39,0.549 16.258,0.441 16.18,0.4 16.1,0.377 15.443,0.377 15.267,0.456
		14.899,0.462 14.813,0.499 14.639,0.613 14.471,0.605 14.222,0.64 13.739,0.679 13.544,0.742 13.42,0.815 13.232,0.893
		13.092,0.975 12.981,1.057 12.906,1.192 12.839,1.248 12.743,1.259 12.636,1.223 12.585,1.224 12.247,1.384 12.129,1.458
		12.047,1.527 11.954,1.635 11.852,1.685 11.719,1.784 11.554,1.858 11.483,1.865 11.347,1.849 11.21,1.833 11.065,1.842
		11.002,1.824 10.928,1.83 10.91,1.793 10.876,1.698 10.859,1.676 10.857,1.636 10.85,1.599 10.785,1.674 10.685,1.738 10.556,1.76
		10.424,1.747 10.357,1.704 10.292,1.733 10.16,1.735 9.922,1.802 9.722,1.765 9.584,1.703 9.411,1.549 9.318,1.428 9.267,1.32
		9.272,1.229 9.314,1.19 9.235,1.167 9.147,1.224 9.078,1.251 8.993,1.262 8.872,1.287 8.845,1.373 8.535,2.119 8.231,2.646
		8.125,2.779 7.953,2.893 7.659,3.048 7.143,3.264 6.993,3.363 6.933,3.417 6.755,3.633 6.458,3.915 6.451,3.986 6.414,4.185
		6.364,4.309 6.121,4.614 6.015,4.845 5.981,5.132 5.971,5.312 5.935,5.417 5.947,5.476 6,5.51 6.076,5.636 6.091,5.713 6.05,5.91
		5.991,6.032 5.909,6.153 5.792,6.289 5.649,6.5 5.438,6.757 5.303,6.858 5.011,7.041 4.852,7.194 4.754,7.311 4.666,7.369
		4.358,7.516 4.018,7.613 3.791,7.639 3.68,7.691 3.61,7.809 3.511,7.901 3.51,7.904 3.445,8.081 3.326,8.315 3.254,8.538
		3.192,8.65 3.105,8.725 2.92,8.85 2.766,8.91 2.66,9.007 2.588,9.042 2.544,9.115 2.498,9.309 2.437,9.404 2.354,9.616
		2.286,9.733 2.245,9.883 2.222,10.166 2.182,10.289 2.082,10.428 1.974,10.485 1.68,10.815 1.542,10.913 1.452,11.001
		1.411,11.085 1.389,11.143 1.439,11.096 1.482,11.037 1.521,11.003 1.528,11.043 1.514,11.078 1.411,11.238 1.368,11.342
		1.279,11.502 1.207,11.608 1.233,11.661 1.207,11.732 1.131,11.822 1.084,12.017 0.966,12.229 0.845,12.277 0.764,12.37
		0.658,12.581 0.59,12.971 0.584,13.006 0.504,13.429 0.538,13.47 0.581,13.28 0.601,13.25 0.633,13.219 0.668,13.242 0.763,13.47
		0.832,13.609 0.873,13.634 0.894,13.593 0.899,13.548 0.934,13.564 0.968,13.595 1.028,13.787 1.467,13.94 1.801,14.01
		1.801,14.124 1.401,14.298 1.097,14.552 1.108,14.52 1.013,14.604 0.917,14.62 0.877,14.643 0.896,14.705 1.009,14.812
		1.068,14.934 1.103,15.166 1.463,15.326 1.801,15.569 1.801,15.841 1.436,16.119 1.174,16.406 0.987,16.622 0.854,16.887
		0.817,17.006 0.764,17.142 0.746,17.507 0.715,17.591 0.508,17.949 0.281,18.251 0.089,18.357 0,18.387 0.062,18.471 0.082,18.413
		0.134,18.408 0.194,18.431 0.258,18.48 0.317,18.608 0.39,18.673 0.452,18.831 0.508,18.925 0.51,18.997 0.545,18.996
		0.599,18.972 0.634,18.968 0.618,18.994 0.55,19.032 0.525,19.078 0.539,19.13 0.606,19.187 0.647,19.253 0.663,19.336
		0.683,19.441 0.744,19.526 0.807,19.534 0.964,19.449 1.167,19.439 1.368,19.407 1.461,19.42 1.469,19.901 1.437,20.377
		1.333,20.377 1.199,19.936 1.069,19.715 1.385,19.618 1.801,19.548 1.801,19.584 1.302,19.574 0.981,19.594 0.77,19.567
		0.687,19.523 0.65,19.459 0.598,19.427 0.532,19.468 0.474,19.536 0.507,19.693 0.509,19.761 0.511,19.83 0.5,19.908 0.503,20.055
		0.488,20.081 0.495,20.115 0.511,20.15 0.542,20.136 0.563,20.12 0.589,20.069 0.618,20.045 0.652,20.086 0.718,20.118
		0.726,20.242 0.72,20.377 0.693,20.377 0.647,20.321 0.558,20.377 0.498,20.377 0.48,20.331 0.506,20.346 0.529,20.36
		0.722,20.471 0.812,20.434 0.86,20.436 0.852,20.46 0.805,20.51 0.797,20.584 0.833,20.644 0.929,20.693 1.058,20.659
		1.085,20.676 1.097,20.691 1.067,20.799 1.154,20.818 1.275,20.773 1.375,20.693 1.432,20.672 1.607,21.048 1.663,21.377
		1.687,21.377 1.69,20.377 1.669,20.377 1.646,20.865 1.59,21.377 1.444,21.377 1.407,21.077 1.382,20.967 1.379,20.931
		1.441,20.979 1.479,20.953 1.511,20.905 1.573,20.886 1.649,20.903 1.684,20.954 1.618,20.967 1.555,20.973 1.427,21.033
		1.39,21.105 1.411,21.122 1.447,21.112 1.478,21.116 1.483,21.131 1.449,21.167 1.443,21.222 1.448,21.262 1.501,21.315
		1.54,21.308 1.573,21.311 1.567,21.413 1.596,21.41 1.658,21.325 1.688,21.323 1.658,21.429 1.693,21.487 1.685,21.963
		1.713,22.377 1.739,22.377 1.778,21.872 1.805,21.659 1.84,21.566 1.884,21.543 1.896,21.575 1.939,21.661 1.95,21.698
		2.011,21.631 2.015,21.656 1.994,21.75 1.996,21.805 2.122,22.165 2.303,22.377 2.363,22.377 2.393,22.251 2.404,22.215
		2.408,22.241 2.455,22.291 2.55,22.35 2.597,22.36 2.627,22.315 2.644,22.311 2.704,22.372 2.801,22.433 2.801,22.544
		2.706,22.628 2.76,22.622 2.835,22.722 2.848,22.771 2.849,22.808 2.918,22.886 2.935,22.925 2.909,23 2.916,23.024 2.93,23.074
		3.013,23.147 3.08,23.16 3.072,23.181 2.974,23.191 2.96,23.254 2.957,23.311 2.989,23.408 3.032,23.398 3.056,23.368
		3.153,23.377 3.189,23.343 3.195,23.365 3.181,23.404 3.122,23.448 3.056,23.531 3.004,23.517 2.972,23.483 2.931,23.48
		2.922,23.527 2.972,23.603 3.008,23.702 3.1,23.713 3.145,23.759 3.166,23.831 3.196,23.993 3.217,24.024 3.266,24.046
		3.325,24.107 3.416,24.269 3.46,24.377 3.481,24.377 3.459,24.298 3.513,24.321 3.478,24.367 3.474,24.394 3.573,24.421
		3.87,24.544 4.009,24.619 4.141,24.733 4.169,24.766 4.322,24.943 4.526,25.049 4.637,25.124 4.681,25.25 4.737,25.291
		4.815,25.33 4.943,25.366 5.044,25.438 5.486,25.893 5.684,26.118 5.857,26.27 6.48,26.648 6.666,26.714 6.908,26.829 6.99,26.841
		7.076,26.821 7.216,26.732 7.341,26.684 7.438,26.608 7.494,26.581 7.707,26.508 8.057,26.353 8.164,26.306 8.414,26.242
		8.776,26.208 8.745,26.182 8.629,26.185 8.556,26.192 8.579,26.159 8.618,26.144 8.803,26.149 8.841,26.194 8.892,26.202
		9.063,26.174 9.511,26.128 9.493,26.106 9.455,26.102 9.101,26.123 9.141,26.087 9.282,26.069 9.451,26.063 9.549,26.076
		9.63,26.135 10.005,26.208 10.03,26.184 10.084,26.042 10.111,26.026 10.146,26.031 10.133,26.149 10.208,26.186 10.235,26.192
		10.24,26.208 10.191,26.21 10.1,26.194 10.077,26.222 10.172,26.242 10.195,26.247 10.278,26.277 10.452,26.303 10.684,26.372
		10.779,26.417 10.905,26.506 10.968,26.507 11.13,26.411 11.229,26.33 11.328,26.283 11.642,26.166 11.833,26.13 11.925,26.056
		12.058,25.994 12.156,25.907 12.316,25.853 12.593,26.539 12.889,27.377 12.944,27.377 13.088,26.496 13.13,25.998 13.161,25.716
		13.201,25.565 13.259,25.481 13.348,25.408 13.572,25.339 13.712,25.297 14.048,25.238 14.349,25.203 14.396,25.197 14.8,25.18
		14.868,25.075 14.921,25.07 15.074,25.016 15.099,25.027 14.951,25.114 14.911,25.13 14.883,25.155 14.908,25.169 15.366,25.167
		15.585,25.218 15.73,25.325 15.892,25.48 16.021,25.666 16.058,25.691 16.067,25.723 16.071,25.793 16.115,25.825 16.189,25.793
		16.21,25.75 16.225,25.739 16.224,26.572 16.242,27.377 16.29,27.377 16.318,26.602 16.273,26.24 16.198,26.041 16.145,25.948
		16.133,25.93 16.157,25.946 16.267,26 16.385,25.935 16.372,25.971 16.349,26.008 16.305,26.018 16.254,26.04 16.251,26.104
		16.255,26.156 16.268,26.173 16.331,26.189 16.314,26.211 16.279,26.199 16.265,26.21 16.311,26.359 16.343,26.445 16.386,26.531
		16.41,26.601 16.561,26.756 16.638,26.812 16.684,26.852 16.76,26.891 16.83,26.901 16.853,26.889 16.859,26.814 16.9,26.776
		16.903,26.825 16.889,26.855 16.894,26.876 16.92,27.14 17.037,27.377 17.064,27.377 17.103,27.109 17.121,26.87 17.137,26.822
		17.148,26.854 17.16,27.131 17.218,27.377 17.248,27.377 17.086,27.088 16.801,26.746 16.801,26.645 17.034,27.017 17.257,27.377
		17.271,27.377 17.297,27.022 17.308,26.911 17.328,26.873 17.368,26.862 17.432,26.83 17.534,26.722 17.541,26.633 17.485,26.573
		17.478,26.546 17.526,26.572 17.571,26.63 17.627,26.682 17.753,26.676 17.788,26.643 17.794,26.603 17.804,26.594 17.829,26.671
		17.885,26.7 17.997,26.703 18.161,26.676 18.35,26.674 18.376,26.594 18.308,26.39 18.322,26.376 18.386,26.457 18.423,26.466
		18.45,26.521 18.51,26.538 18.53,26.511 18.539,26.513 18.549,26.516 18.522,26.635 18.527,26.662 18.552,26.699 18.611,26.707
		18.635,26.68 18.614,26.582 18.648,26.602 18.687,26.655 18.719,26.661 18.754,26.656 18.778,26.661 18.799,26.677 18.788,26.773
		18.795,26.836 18.808,26.891 18.841,26.94 18.857,27.052 18.939,27.094 19.036,27.129 19.07,27.149 19.08,27.176 19.117,27.187
		19.162,27.19 19.188,27.174 19.216,27.126 19.204,27.073 19.224,27.078 19.252,27.104 19.288,27.105 19.337,27.065 19.351,27.081
		19.323,27.12 19.316,27.155 19.385,27.224 19.387,27.247 19.308,27.232 19.282,27.278 19.256,27.291 19.299,27.374 19.317,27.443
		19.406,27.433 19.339,27.503 19.485,27.688 19.513,27.745 19.537,27.875 19.492,28.007 19.479,28.155 19.446,28.314 19.431,28.505
		19.416,28.697 19.435,28.811 19.372,28.924 19.321,29.063 19.31,29.105 19.275,29.126 19.211,29.211 19.168,29.324 19.133,29.452
		19.175,29.467 19.222,29.472 19.286,29.521 19.28,29.539 19.017,29.572 18.801,29.744 18.801,29.864 19.336,29.909 19.801,29.916
		19.801,29.895 19.516,29.842 19.348,29.837 19.161,29.881 19.123,29.929 19.159,29.982 19.202,30.083 19.252,30.137 19.415,30.221
		19.535,30.199 19.575,30.219 19.44,30.275 19.428,30.341 19.386,30.308 19.268,30.256 19.192,30.248 19.151,30.215 19.133,30.178
		19.125,30.128 19.11,30.098 19.072,30.143 19.089,30.284 19.099,30.425 19.069,30.663 18.954,30.844 18.914,30.885 18.883,30.895
		18.852,30.893 18.817,30.937 18.727,30.953 18.681,30.877 18.642,30.858 18.744,31.12 18.767,31.146 18.79,31.21 18.814,31.248
		18.902,31.433 19.002,31.501 19.043,31.494 19.069,31.484 19.084,31.461 19.105,31.455 19.057,31.582 19.068,31.609 19.093,31.624
		19.141,31.621 19.178,31.604 19.216,31.641 19.232,31.676 19.148,31.706 19.112,31.708 19.085,31.704 18.882,31.441 18.894,31.498
		18.969,31.619 19.041,31.781 19.034,31.823 19.047,31.861 19.102,31.864 19.203,31.917 19.211,31.95 19.202,31.972 19.102,31.917
		19.07,31.924 19.122,31.983 19.145,32.025 19.239,32.136 19.268,32.19 19.28,32.241 19.304,32.301 19.342,32.341 19.408,32.339
		19.474,32.362 19.545,32.401 19.618,32.45 19.599,32.471 19.575,32.481 19.404,32.388 19.374,32.383 19.401,32.424 19.579,32.611
		19.824,32.826 19.994,33.041 20.034,33.139 20.183,33.272 20.254,33.354 20.315,33.487 20.385,33.56 20.553,33.734 20.574,33.791
		20.771,33.981 20.849,34.088 20.852,34.178 20.866,34.201 20.88,34.242 20.932,34.332 20.985,34.404 21.011,34.426 21.022,34.444
		21.037,34.469 21.088,34.601 21.136,34.705 21.157,34.821 21.138,34.878 21.12,34.955 21.151,35.036 21.162,35.057 21.181,35.097
		21.234,35.169 21.304,35.242 21.333,35.254 21.377,35.257 21.496,35.222 21.576,35.154 21.625,35.135 21.728,35.12 21.774,35.143
		21.732,35.178 21.575,35.256 21.405,35.291 21.281,35.322 21.225,35.329 21.211,35.354 21.248,35.405 21.296,35.541 21.382,35.733
		21.598,36.029 21.625,36.255 21.789,36.7 21.902,37.179 21.801,37.26 21.801,37.329 21.901,37.386 21.933,37.437 21.738,37.697
		21.744,37.672 21.772,37.638 21.786,37.61 21.794,37.628 21.801,37.684 21.801,37.731 21.817,37.879 21.853,38.008 21.873,38.139
		21.876,38.263 21.929,38.363 21.96,38.503 22.075,38.713 22.106,38.846 22.173,38.921 22.236,39.019 22.248,39.119 22.315,39.26
		22.086,39.361 21.801,39.713 21.801,39.977 21.968,40.23 22.025,40.362 21.955,40.552 21.804,40.659 21.69,40.76 21.636,40.964
		21.392,41.298 21.36,41.556 21.272,41.786 21.202,42.273 21.054,42.769 21.013,42.985 20.979,43.082 20.931,43.152 20.895,43.192
		20.825,43.244 20.838,43.311 20.822,43.369 20.801,43.79 20.801,43.952 20.809,44.088 20.8,44.395 20.794,44.572 20.807,44.803
		20.838,45.007 20.964,45.225 21.027,45.388 21.066,45.445 21.231,45.616 21.322,45.759 21.732,46.653 21.82,46.781 21.901,47.056
		22.017,47.375 22.289,47.827 22.323,47.936 22.382,48.066 22.625,48.41 22.723,48.62 22.767,48.826 22.762,48.91 22.744,49.004
		22.719,48.993 22.704,48.971 22.679,49.042 22.693,49.132 22.727,49.297 22.725,49.455 22.742,49.59 22.73,49.922 22.742,50.045
		22.829,50.326 22.925,50.521 22.972,50.721 22.958,50.894 22.96,50.986 22.988,51.128 22.974,51.284 23.032,51.473 23.055,51.766
		23.144,51.854 23.173,51.921 23.189,51.995 23.161,52.051 23.167,52.148 23.223,52.317 23.271,52.544 23.307,52.635 23.564,53.106
		23.682,53.258 23.762,53.322 23.986,53.57 24.063,53.636 24.085,53.655 24.26,53.954 24.401,54.274 24.557,54.838 24.66,55.117
		24.879,55.582 25.053,55.876 25.202,56.096 25.233,56.167 25.295,56.475 25.306,56.594 25.298,56.785 25.245,56.904 25.157,56.983
		25.096,57.004 25.048,56.95 25,56.984 24.969,57.046 24.985,57.155 25.038,57.224 25.059,57.31 25.114,57.355 25.167,57.478
		25.237,57.53 25.268,57.605 25.349,57.77 25.363,57.835 25.367,57.909 25.291,57.951 25.274,58.062 25.285,58.155 25.322,58.243
		25.356,58.284 25.36,58.138 25.387,58.09 25.41,58.071 25.459,58.064 25.529,58.06 25.558,58.068 25.596,58.089 25.606,58.155
		25.608,58.209 25.603,58.243 25.606,58.298 25.654,58.296 25.689,58.282 25.788,58.287 25.821,58.342 25.886,58.338 25.909,58.358
		25.942,58.404 25.935,58.468 25.918,58.504 25.981,58.496 26.142,58.618 26.288,58.621 26.339,58.635 26.403,58.644 26.691,58.417
		26.756,58.38 26.923,58.36 26.998,58.317 27.071,58.301 27.119,58.32 27.246,58.377 27.314,58.377 27.453,58.377 27.613,58.377
		27.932,58.093 28.047,57.747 28.143,57.377 28.267,57.377 28.394,57.736 28.626,57.909 28.683,57.978 28.845,57.949 28.921,57.975
		29.249,58.041 29.525,58.139 29.682,58.137 29.74,58.049 29.809,57.979 29.923,57.969 30.129,58.024 30.195,58.029 30.239,58.01
		30.255,57.878 30.364,57.786 30.49,57.766 30.787,57.805 30.915,57.762 31.238,57.61 31.44,57.48 31.723,57.265 31.792,57.23
		32.045,56.999 32.212,56.882 32.505,56.614 32.703,56.378 32.961,56.112 33.143,55.947 33.211,55.909 33.312,55.827 33.546,55.542
		33.683,55.335 33.827,55.108 33.991,54.815 34.098,54.676 34.213,54.426 34.336,54.253 34.661,53.895 34.741,53.875 34.786,53.852
		34.838,53.816 35.026,53.639 35.093,53.539 35.217,53.296 35.326,52.815 35.366,52.68 35.48,52.386 35.515,52.198 35.518,52.183
		35.571,51.713 35.592,51.575 35.565,51.578 35.548,51.613 35.512,51.725 35.481,51.704 35.459,51.672 35.414,51.636 35.378,51.582
		35.341,51.511 35.39,51.427 35.44,51.362 35.495,51.218 35.618,51.092 35.896,50.906 36.026,50.847 36.244,50.749 36.792,50.548
		37.067,50.41 37.185,50.321 37.258,50.231 37.396,50.02 37.436,49.934 37.481,50.073 37.468,50.377 37.442,50.377 37.424,50.095
		37.38,49.917 37.361,49.801 37.369,49.685 37.469,49.239 37.533,49.048 37.49,48.888 37.483,48.793 37.528,48.563 37.529,48.502
		37.524,48.457 37.508,48.41 37.502,48.357 37.476,48.349 37.448,48.4 37.431,48.512 37.433,48.582 37.414,48.624 37.369,48.578
		37.38,48.467 37.111,48.286 36.801,48.062 36.801,47.972 36.989,47.764 37.127,47.602 37.113,47.286 37.077,47.176 37.019,47.087
		36.918,47.015 36.801,46.959 36.801,46.704 36.801,46.573 36.931,46.486 36.963,46.441 36.949,46.388 37.014,46.84 37.119,47.377
		37.146,47.377 37.187,46.924 37.49,46.442 37.702,46.063 37.85,45.868 37.942,45.775 38.046,45.704 38.086,45.72 38.124,45.709
		38.147,45.592 38.191,45.651 38.245,45.631 38.254,45.569 38.318,45.473 38.349,45.427 38.508,45.255 38.615,45.11 38.631,45.071
		38.647,45 38.692,44.953 38.729,44.932 38.871,44.794 39.066,44.657 39.303,44.512 39.453,44.454 39.482,44.417 39.524,44.39
		39.693,44.331 39.875,44.256 39.902,44.233 39.933,44.23 39.964,44.237 40.054,44.227 40.106,44.197 40.198,44.171 40.271,44.064
		40.315,44.024 40.594,43.851 40.696,43.76 40.754,43.734 40.72,43.619 40.77,43.585 40.859,43.563 40.946,43.433 40.954,43.4
		40.955,43.363 41.029,43.272 41.107,43.188 41.29,42.952 41.362,42.779 41.366,42.724 41.342,42.661 41.361,42.634 41.399,42.62
		41.395,42.577 41.407,42.51 41.463,42.44 41.506,42.398 41.515,42.339 41.5,42.271 41.507,42.217 41.497,42.19 41.503,41.775
		41.474,41.377 41.44,41.377 41.379,41.833 41.374,41.942 41.379,41.982 41.433,41.946 41.437,41.907 41.391,41.905 41.358,41.885
		41.354,41.852 41.088,41.627 40.801,41.446 40.801,41.374 41.065,41.318 41.229,41.246 40.998,41.181 40.801,41.124 40.801,41.036
		41.087,41.212 41.364,41.377 40.801,41.377 40.801,40.89 41.045,40.864 41.24,40.799 41.313,40.746 41.352,40.646 41.346,40.557
		41.31,40.529 41.074,40.449 40.801,40.384 40.801,40.226 41.092,40.133 41.212,40.081 41.269,40.003 41.263,39.851 41.307,39.682
		41.274,39.586 41.292,39.532 41.346,39.462 41.387,39.37 41.376,39.337 41.362,39.316 41.371,39.259 41.43,39.179 41.353,39.126
		41.403,39.086 41.444,39.042 41.378,38.965 41.342,38.881 41.335,38.864 41.323,38.838 41.291,38.791 41.169,38.7 41.114,38.669
		41.076,38.631 41.005,38.634 40.978,38.579 40.922,38.522 40.823,38.504 40.866,38.435 40.861,38.372 40.829,38.28 40.809,38.162
		40.761,38.024 40.776,37.848 40.644,37.645 40.665,37.615 40.672,37.579 40.594,37.465 40.546,37.24 40.551,37.164 40.575,37.076
		40.65,36.888 40.644,36.727 40.574,36.673 40.543,36.706 40.547,36.487 40.596,36.343 40.655,36.234 40.717,36.167 40.738,36.086
		40.687,35.967 40.555,35.916 40.514,35.81 40.442,35.705 40.401,35.659 40.34,35.623 40.265,35.523 40.253,35.42 40.218,35.31
		40.23,35.154 40.299,34.949 40.348,34.862 40.408,34.629 40.43,34.575 40.453,34.494 40.457,34.425 40.516,34.259 40.531,34.191
		40.536,34.169 40.579,34.123 40.643,34.137 40.726,34.017 40.834,33.752 40.849,33.725 40.87,33.683 40.903,33.623 40.913,33.592
		40.925,33.558 40.967,33.454 40.999,33.284 41.025,33.251 41.054,33.175 41.095,33.101 41.184,33.019 41.194,32.956 41.243,32.831
		41.234,32.669 41.265,32.562 41.306,32.514 41.397,32.455 41.569,32.441 41.691,32.322 41.696,32.276 41.753,32.222 41.771,32.16
		41.759,32.114 41.748,32.022 41.767,32.037 41.793,32.048 41.806,31.996 41.825,31.963 41.87,31.983 41.904,31.988 42.02,31.958
		42.106,31.895 42.211,31.755 42.283,31.66 42.356,31.54 42.438,31.356 42.469,31.312 42.496,31.235 42.535,31.168 42.626,31.073
		42.707,30.977 42.838,30.792 42.885,30.749 42.953,30.639 43.006,30.581 43.062,30.52 43.604,29.873 43.783,29.68 44.009,29.479
		44.223,29.247 44.643,28.907 45.29,28.5 45.45,28.366 46.037,27.707 46.484,27.153 46.811,26.723 46.99,26.353 47.281,25.913
		47.558,25.361 47.586,25.17 47.682,24.87 47.76,24.697 47.913,24.448 47.983,24.307 48.044,24.153 48.103,23.907 48.278,23.714
		48.403,23.463 48.426,23.373 48.499,23.189 48.643,22.975 48.69,22.868 48.801,22.716 48.801,22.486 48.801,22.313 48.807,22.046
		48.825,21.979 48.899,21.938 49.021,21.901 49.063,21.923 49.147,21.937 49.15,21.908 49.133,21.865 	"></polygon>
	<polygon fill-rule="evenodd" clip-rule="evenodd" fill="#B3B4B4" points="3.434,24.195 3.383,24.171 3.212,24.184 3.142,24.225
		3.388,24.303 3.434,24.355 3.445,24.335 3.464,24.254 3.456,24.216 	"></polygon>
	<polygon fill-rule="evenodd" clip-rule="evenodd" fill="#B3B4B4" points="52.234,34.191 52.175,34.082 52.122,34.123
		52.145,34.156 52.191,34.193 52.2,34.241 52.234,34.267 	"></polygon>
	<polygon fill-rule="evenodd" clip-rule="evenodd" fill="#B3B4B4" points="17.734,29.01 17.718,28.997 17.698,29.012 17.657,29.074
		17.666,29.107 17.697,29.125 17.724,29.104 17.745,29.052 17.743,29.027 	"></polygon>
	<polygon fill-rule="evenodd" clip-rule="evenodd" fill="#B3B4B4" points="17.617,26.721 17.586,26.698 17.523,26.806
		17.569,26.812 17.639,26.787 17.658,26.731 	"></polygon>
	<polygon fill-rule="evenodd" clip-rule="evenodd" fill="#B3B4B4" points="0.977,14.363 1.003,14.233 0.967,14.247 0.947,14.286
		0.904,14.36 0.909,14.412 0.928,14.442 	"></polygon>
	<polygon fill-rule="evenodd" clip-rule="evenodd" fill="#B3B4B4" points="46.892,41.238 46.9,41.193 46.874,41.103 46.845,41.108
		46.834,41.15 46.788,41.153 46.799,41.255 46.892,41.267 	"></polygon>
	<polygon fill-rule="evenodd" clip-rule="evenodd" fill="#B3B4B4" points="48.241,42.516 48.193,42.349 48.179,42.173
		48.174,41.787 48.118,41.412 48.053,41.161 48.038,41.001 47.998,40.92 47.95,40.844 47.838,40.647 47.803,40.566 47.773,40.481
		47.734,40.413 47.654,40.321 47.631,40.283 47.621,40.821 47.587,41.377 47.547,41.377 47.418,40.977 47.34,40.782 47.317,40.65
		47.249,40.561 47.236,40.549 47.28,40.644 47.305,40.725 47.319,40.816 47.31,40.892 47.219,41.161 47.089,41.289 47.006,41.323
		46.931,41.379 46.88,41.461 46.819,41.526 46.771,41.516 46.702,41.448 46.669,41.426 46.628,41.441 46.597,41.48 46.563,41.536
		46.551,41.598 46.562,41.639 46.626,41.722 46.617,41.742 46.597,41.758 46.594,41.809 46.455,42.055 46.476,42.197 46.58,42.301
		46.514,42.279 46.446,42.272 46.403,42.308 46.368,42.358 46.309,42.457 46.256,42.561 46.222,42.575 46.188,42.564 46.2,42.506
		46.224,42.463 46.242,42.42 46.236,42.376 46.223,42.334 46.205,42.326 46.141,42.377 46.116,42.423 46.084,42.521 45.951,42.603
		45.801,42.689 45.801,42.726 45.88,42.766 45.878,42.812 45.801,42.861 45.801,42.92 45.841,42.938 45.852,42.935 45.874,42.911
		45.861,42.765 45.83,42.745 45.789,42.754 45.637,42.878 45.491,42.984 45.424,43.055 45.382,43.148 45.376,43.19 45.386,43.229
		45.454,43.296 45.423,43.319 45.389,43.313 45.363,43.302 45.281,43.174 45.258,43.167 45.148,43.203 45.063,43.217 44.93,43.229
		44.902,43.249 44.885,43.285 44.872,43.336 44.852,43.879 44.812,44.377 44.772,44.377 44.668,43.914 44.641,43.641 44.621,43.475
		44.587,43.403 44.546,43.397 44.455,43.473 44.389,43.513 44.356,43.526 44.101,43.548 44.047,43.558 44.022,43.578 44.01,43.615
		43.999,43.714 44.004,43.885 43.991,43.951 43.652,44.511 43.619,44.665 43.651,44.754 43.661,44.846 43.651,44.951 43.661,45.24
		43.701,45.415 43.746,45.508 43.78,45.607 43.784,45.707 43.769,45.844 43.77,45.879 43.866,46.064 43.905,46.166 43.903,46.266
		43.883,46.366 43.854,46.567 43.833,46.659 43.805,46.749 43.719,46.939 43.626,47.074 43.584,47.164 43.468,47.334 43.421,47.505
		43.378,47.588 43.307,47.65 43.22,47.68 43.16,47.733 43.104,47.968 43.083,48.009 43.052,48.043 43.031,48.085 43.021,48.134
		42.989,48.2 42.892,48.295 42.801,48.48 42.801,48.567 42.909,48.818 42.962,48.898 43.005,48.975 43.127,49.133 43.158,49.221
		43.172,49.317 43.211,49.41 43.223,49.498 42.999,49.58 42.801,49.671 42.801,49.864 42.801,49.969 42.801,50.125 42.986,50.171
		43.179,50.318 43.258,50.401 43.297,50.52 43.336,50.583 43.351,50.638 43.37,50.69 43.399,50.714 43.52,50.789 43.577,50.877
		43.618,50.9 43.664,50.914 43.818,50.938 43.898,50.966 44.097,51.136 44.159,51.158 44.37,51.152 44.44,51.124 44.504,51.075
		44.671,50.971 44.843,50.881 45.005,50.834 45.17,50.832 45.245,50.816 45.397,50.733 45.469,50.677 45.579,50.521 45.658,50.339
		45.692,50.241 45.714,50.139 45.746,50.058 45.79,49.982 45.894,49.779 45.921,49.682 45.938,49.582 46.053,49.258 46.111,49.061
		46.161,48.862 46.209,48.634 46.231,48.575 46.427,48.128 46.573,47.726 46.676,47.362 46.794,47.002 46.876,46.799 46.951,46.592
		47.055,46.249 47.174,45.915 47.29,45.649 47.368,45.448 47.424,45.279 47.524,44.923 47.546,44.737 47.52,44.475 47.533,44.388
		47.606,44.219 47.65,44.137 47.681,44.106 47.756,44.07 47.798,44.042 47.801,43.996 47.801,43.952 47.839,43.87 47.852,43.775
		47.851,43.588 47.82,43.509 47.789,43.479 47.77,43.443 47.774,43.322 47.769,43.227 47.752,43.132 47.745,43.028 47.757,42.991
		47.816,42.933 47.894,42.924 47.921,42.939 47.941,43.033 47.998,43.219 48.047,43.297 48.109,43.346 48.126,43.348 48.166,43.3
		48.189,43.265 48.278,43.079 48.343,42.881 48.323,42.688 	"></polygon>
	<polygon fill-rule="evenodd" clip-rule="evenodd" fill="#B3B4B4" points="47.834,44.138 47.805,44.263 47.893,44.114
		47.963,43.945 47.936,43.959 	"></polygon>
	<polygon fill-rule="evenodd" clip-rule="evenodd" fill="#B3B4B4" points="41.889,32.032 41.81,32.092 41.796,32.139 41.823,32.131
		41.912,32.084 41.925,32.072 41.927,32.06 41.921,32.046 	"></polygon>
	<polygon fill-rule="evenodd" clip-rule="evenodd" fill="#B3B4B4" points="0.952,21.277 0.939,21.283 0.911,21.303 0.887,21.332
		0.874,21.333 0.844,21.346 0.847,21.362 0.873,21.402 0.93,21.39 0.961,21.37 0.975,21.343 0.966,21.278 	"></polygon>
	<polygon fill-rule="evenodd" clip-rule="evenodd" fill="#B3B4B4" points="1.047,20.952 1.006,21.01 1.003,21.051 1.021,21.073
		1.055,21.085 1.089,21.06 1.082,20.96 	"></polygon>
	<polygon fill-rule="evenodd" clip-rule="evenodd" fill="#B3B4B4" points="1.218,21.193 1.191,21.22 1.171,21.28 1.18,21.291
		1.21,21.296 1.211,21.263 1.238,21.248 1.253,21.229 1.26,21.206 1.25,21.197 	"></polygon>
	<polygon fill-rule="evenodd" clip-rule="evenodd" fill="#B3B4B4" points="1.012,20.718 0.918,20.726 0.921,20.751 0.952,20.81
		0.998,20.821 1.037,20.722 	"></polygon>
	<polygon fill-rule="evenodd" clip-rule="evenodd" fill="#B3B4B4" points="1.079,21.308 1.059,21.282 1.052,21.293 1.038,21.361
		1.047,21.368 1.037,21.391 1.079,21.394 1.086,21.372 1.081,21.318 	"></polygon>
	<polygon fill-rule="evenodd" clip-rule="evenodd" fill="#B3B4B4" points="1.353,20.936 1.292,21.005 1.332,21.021 1.339,21.002
		1.359,20.988 1.389,20.977 1.392,20.925 	"></polygon>
	<polygon fill-rule="evenodd" clip-rule="evenodd" fill="#B3B4B4" points="40.937,17.638 40.932,17.647 40.905,17.655
		40.849,17.622 40.872,17.69 40.957,17.708 41.029,17.702 41.106,17.719 41.173,17.717 41.178,17.677 41.064,17.616 41.054,17.647
		41.038,17.661 41.018,17.665 40.987,17.622 40.978,17.542 40.951,17.507 40.911,17.477 40.85,17.465 40.883,17.515 40.869,17.532
		40.845,17.546 40.842,17.583 40.897,17.592 	"></polygon>
	<polygon fill-rule="evenodd" clip-rule="evenodd" fill="#B3B4B4" points="40.956,17.387 40.929,17.308 40.908,17.29 40.903,17.309
		40.873,17.341 40.886,17.357 	"></polygon>
	<polygon fill-rule="evenodd" clip-rule="evenodd" fill="#B3B4B4" points="18.687,27.692 18.707,27.614 18.818,27.43 18.821,27.366
		18.792,27.324 18.685,27.327 18.667,27.323 18.624,27.342 18.597,27.396 18.586,27.468 18.553,27.548 18.534,27.559 18.473,27.574
		18.463,27.596 18.451,27.67 18.458,27.701 18.48,27.724 18.607,27.763 18.644,27.758 	"></polygon>
</g>
</svg>
