<svg version="1.1" id="Layer_1" xmlns="http://www.w3.org/2000/svg" xmlns:xlink="http://www.w3.org/1999/xlink" x="0px" y="0px" width="75.007px" height="56.473px" viewBox="0 0 75.007 56.473" enable-background="new 0 0 75.007 56.473" xml:space="preserve">
<g id="_x30_8gWcH_1_">
	<g>
		<path fill="#B3B4B4" d="M0,0c1.064,0.453,2.259,0.244,3.146,1.587c0.596,0.901,1.418,1.815,2.477,2.228
			C6.3,4.078,6.808,4.809,7.498,5.129c0.108,0.05,0.211,0.318,0.206,0.48C7.677,6.555,8.089,7.226,8.576,7.891
			c0.203,0.278,0.319,0.63,0.647,0.768c0.537,0.225,0.76,0.608,0.642,1.366c-0.123,0.793-0.065,1.626-0.087,2.442l-0.029,0.027
			c-0.077-0.016-0.161-0.064-0.23-0.043c-1.278,0.397-1.834-0.942-2.6-1.653c-0.812-0.754-1.574-1.655-1.98-2.861
			C4.51,6.659,3.694,5.659,3.151,4.444C2.804,3.669,2.145,2.825,1.436,2.239C0.801,1.714,0.267,1.086,0,0.189C0,0.126,0,0.063,0,0z"></path>
		<path fill="#B3B4B4" d="M37.505,44.168c0.687-0.608,0.721-1.419,0.878-2.189c-0.367,0.793-1.322,0.808-1.553,1.838
			c-0.077,0.344-0.521-0.014-0.567-0.265c-0.161-0.893-0.796-1.359-1.179-2.046c-0.083-0.149-0.218-0.297-0.355-0.355
			c-1.559-0.661-3.12-1.241-4.774-0.401c-1.033,0.524-2.262,0.156-3.235,0.992c-0.125,0.107-0.346,0.122-0.408,0.256
			c-0.53,1.14-1.409,0.913-2.221,0.798c-1.114-0.158-2.028,0.421-2.965,0.978c-0.993,0.59-2.342,0.328-3.068-0.582
			c-0.202-0.253-0.272-0.578,0.017-0.805c0.745-0.588,0.58-1.475,0.318-2.147c-0.533-1.365-0.652-2.901-1.296-4.206
			c-0.119-0.242-0.166-0.553-0.319-0.75c-0.349-0.448-0.39-0.903-0.152-1.422c0.262-0.021,0.243,0.383,0.44,0.454
			c0.104-0.14,0.077-0.283,0.01-0.366c-0.942-1.163-0.278-2.476-0.231-3.726c0.005-0.121,0.112-0.91,0.412-0.113
			c0.042,0.112,0.122,0.049,0.178-0.027c0.925-1.269,2.215-1.61,3.491-2.01c0.449-0.14,0.87-0.361,1.345-0.44
			c1.223-0.201,1.931-1.116,2.08-2.573c0.051-0.498,0.324-0.809,0.641-1.007c0.32-0.199,0.315,0.422,0.639,0.506
			c-0.045-0.538,0.075-0.808,0.532-1.055c0.299-0.162,0.508-0.852,0.781-1.295c0.652-1.06,1.868-1.303,2.669-0.466
			c0.55,0.575,1.007,0.462,1.359-0.313c0.209-0.46,0.472-0.876,0.667-1.356c0.205-0.504,0.6-0.862,1.165-0.723
			c0.28,0.069,0.621,0.103,0.784-0.246c0.157-0.336-0.203-0.356-0.326-0.523c-0.08-0.108-0.112-0.231-0.006-0.322
			c0.193-0.165,0.408-0.143,0.587,0.017c0.563,0.504,1.267,0.556,1.874,0.876c0.447,0.235,0.758-0.263,1.255,0.036
			c0.698,0.42,0.857,0.468,0.332,1.216c-0.096,0.137-0.244,0.221-0.357,0.319c0.023,0.341,0.23,0.236,0.359,0.268
			c0.243,0.061,0.427,0.221,0.317,0.508c-0.109,0.284-0.307,0.117-0.455-0.028c-0.335-0.327-0.393,0.13-0.526,0.292
			c-0.199,0.243-0.183,0.509,0.078,0.707c0.728,0.55,1.454,1.105,2.185,1.649c0.396,0.295,0.724-0.055,1.251-0.369
			c-0.333,0.605-0.523,1.037,0.035,1.271c0.46,0.193,0.815,0.098,1.054-0.458c0.343-0.796,0.552-1.632,0.5-2.529
			c-0.073-1.283,0.12-2.5,0.535-3.676c0.082-0.232,0.124-0.511,0.4-0.486c0.215,0.019,0.3,0.229,0.349,0.451
			c0.201,0.903,0.693,1.691,0.699,2.679c0.001,0.268,0.054,0.627,0.461,0.589c0.63-0.059,0.961,0.461,1.045,1.098
			c0.165,1.246,0.808,2.293,0.944,3.547c0.091,0.845,0.826,0.866,1.266,1.091c0.893,0.459,1.207,1.337,1.551,2.256
			c0.053,0.141,0.079,0.397,0.15,0.414c1.376,0.338,1.475,2.226,2.517,2.983c0.259,0.189,0.398,0.515,0.815-0.057
			c-0.228,1.217-0.175,2.157,0.105,3.095c0.197,0.663,0.137,1.35-0.079,2.021c-0.318,0.987-0.218,2.139-0.792,3.022
			c-0.381,0.586-0.888,1.028-1.13,1.775c-0.375,1.157-1.059,2.155-1.14,3.471c-0.038,0.614-0.516,0.726-0.953,0.768
			c-0.441,0.042-0.947-0.073-1.273,0.349c-0.727,0.942-1.502,0.919-2.35,0.313c-0.192-0.138-0.376-0.168-0.594-0.052
			c-1.31,0.696-2.435-0.154-3.578-0.688c-0.344-0.161-0.511-0.633-0.554-1.168c-0.089-1.1-0.486-1.348-1.332-0.957
			c-0.122,0.056-0.242,0.126-0.369,0.157c-0.327,0.081-0.663,0.247-0.979-0.025c-0.037-0.032-0.048-0.207-0.015-0.241
			c0.258-0.276,0.574-0.255,0.89-0.215c0.338,0.042,0.556-0.147,0.649-0.527c0.047-0.193,0.011-0.4-0.151-0.49
			c-0.17-0.095-0.215,0.111-0.268,0.241C38.362,44.271,38.027,44.25,37.505,44.168z"></path>
		<path fill="#B3B4B4" d="M33.417,9.178c0.566-0.116,1.039-0.214,1.513-0.311c0.02-0.085,0.04-0.169,0.061-0.254
			c-1.073,0.12-1.857-0.576-2.729-1.179c0.789-0.673,1.543-1.24,2.522-0.468c0.268,0.212,0.512,0.411,0.442,0.788
			c-0.15,0.808,0.315,1.266,0.641,1.801c0.218,0.358,0.547,0.333,0.746,0.034c0.387-0.582,0.949-0.88,1.386-1.367
			c0.288-0.321,0.584-0.425,0.93-0.227c1.659,0.95,3.489,1.35,5.144,2.315c0.657,0.383,1.326,0.657,1.626,1.621
			c0.156,0.501,0.749,0.5,1.151,0.707c0.191,0.098,0.431,0.12,0.471,0.425c0.04,0.313-0.223,0.277-0.353,0.402
			c-0.489,0.47-0.014,0.739,0.19,1.026c0.77,1.083,1.663,2.02,2.56,2.962c-1.429-0.211-2.824-0.36-3.62-2.151
			c-0.396-0.891-1.886-1.065-2.507-0.408c-0.231,0.245-0.485,0.181-0.735,0.3c0.138,0.229,0.586,0.131,0.469,0.57
			c-0.077,0.288-0.335,0.431-0.579,0.385c-0.725-0.136-1.515,0.113-2.122-0.713c-0.345-0.471-0.902-0.436-1.395-0.199
			c-0.257,0.123-0.551,0.265-0.653-0.149c-0.085-0.344,0.159-0.635,0.432-0.669c0.685-0.084,0.452-0.554,0.3-0.956
			c-0.384-1.015-0.969-1.742-1.907-2.074c-0.634-0.224-1.292-0.387-1.847-0.943c-0.247-0.248-0.719-0.735-1.146-0.043
			c-0.139,0.225-0.339-0.019-0.362-0.269C34.004,9.704,33.73,9.503,33.417,9.178z"></path>
		<path fill="#B3B4B4" d="M18.685,10.264c-0.204,0.091-0.422,0.187-0.64,0.286c-0.177,0.081-0.398,0.178-0.477-0.094
			c-0.206-0.705-0.802-0.696-1.171-0.688c-0.656,0.014-1.245,0.059-1.916-0.201c-0.592-0.229-0.986-0.338-1.035-1.169
			c-0.021-0.361-0.077-0.716-0.45-0.99c-0.51-0.374-0.694-2.27-0.407-2.909c0.182-0.406,0.342-0.57,0.694-0.136
			c0.616,0.758,1.347,0.825,2.091,0.234c0.294-0.233,0.557-0.308,0.878-0.151c0.717,0.349,1.214,0.085,1.496-0.78
			c0.206-0.632,0.549-1.17,0.73-1.843c0.236-0.878,0.971-0.492,1.509-0.445c0.467,0.041,0.484,0.397,0.461,0.939
			c-0.033,0.776,0.152,1.569,0.641,2.173c0.142,0.176,0.407,0.284,0.367,0.563c-0.046,0.326-0.325,0.256-0.523,0.265
			c-0.444,0.019-0.569,0.348-0.603,0.807c-0.025,0.334,0.085,0.759-0.202,0.965c-0.907,0.648-0.825,1.757-0.924,2.77
			C19.165,10.28,19.153,10.589,18.685,10.264z"></path>
		<path fill="#B3B4B4" d="M71.225,51.06c0.025,0.18-0.122,0.398-0.259,0.636c-0.309,0.536-0.917,0.843-0.865,1.667
			c0.011,0.175-0.198,0.16-0.325,0.173c-0.694,0.071-1.087,0.502-1.386,1.285c-0.611,1.6-1.383,1.94-2.787,1.438
			c-0.174-0.062-0.358-0.135-0.535-0.128c-0.326,0.012-0.694,0.058-0.797-0.389c-0.092-0.398,0.214-0.681,0.425-0.951
			c0.776-0.992,1.849-1.414,2.808-2.043c0.806-0.529,1.237-1.4,1.686-2.264c0.263-0.506,0.472-0.858,0.926-0.283
			c0.137,0.173,0.303,0.267,0.495,0.156C71.148,50.048,71.179,50.483,71.225,51.06z"></path>
		<path fill="#B3B4B4" d="M22.88,10.577c-0.025,0.375-0.082,0.752-0.068,1.126c0.021,0.564-0.275,0.631-0.61,0.593
			c-0.335-0.039-0.439-0.336-0.34-0.689c0.19-0.678,0.209-1.272-0.316-1.781c-0.193-0.187-0.15-0.539-0.038-0.799
			c0.403-0.937,0.537-1.953,0.679-2.976c0.125-0.907,0.969-1.48,1.691-1.247c1.016,0.328,2.043,0.683,2.94-0.386
			c0.059-0.07,0.211-0.109,0.282-0.069c0.151,0.086,0.091,0.263,0.048,0.412c-0.203,0.701-0.893,1.231-1.503,1.05
			c-0.811-0.24-1.614-0.102-2.422-0.072c-0.312,0.012-0.493,0.175-0.589,0.504c-0.143,0.491,0.166,0.745,0.39,1.046
			c0.224,0.301,0.401,0.129,0.608-0.046c0.469-0.395,1.04-0.394,1.574-0.509c0.51-0.109,0.433,0.431,0.44,0.767
			c0.008,0.382-0.2,0.629-0.51,0.4c-0.419-0.31-0.666,0.077-0.892,0.303c-0.301,0.302,0.053,0.574,0.188,0.781
			c0.328,0.5,0.002,1.202,0.447,1.705c0.157,0.178-0.324,0.266-0.497,0.424c-0.149,0.136-0.457,0.214-0.446-0.042
			c0.027-0.641-0.675-0.822-0.561-1.474c0.035-0.197-0.031-0.399-0.233-0.404c-0.231-0.006-0.308,0.177-0.301,0.439
			c0.008,0.314,0.002,0.628,0.002,0.942C22.855,10.576,22.867,10.577,22.88,10.577z"></path>
		<path fill="#B3B4B4" d="M75.007,47.123c-0.008,0.444-0.206,0.961-0.453,1.042c-0.971,0.318-0.897,1.585-1.513,2.201
			c-0.176,0.176-0.305,0.419-0.517,0.564c-0.3,0.205-0.574,0.108-0.801-0.119c-0.24-0.239,0.006-0.446,0.103-0.645
			c0.25-0.517,0.09-0.794-0.339-1.008c-0.469-0.233-1.176-0.395-0.201-1.129c0.41-0.309,0.411-1.03,0.217-1.647
			c-0.222-0.705-0.715-1.154-1.07-1.731c-0.133-0.216-0.362-0.459-0.111-0.733c0.205-0.224,0.437-0.078,0.655,0.051
			c0.424,0.249,0.529,0.734,0.674,1.208c0.083,0.269,0.14,0.845,0.508,0.194c0.191-0.337,0.214,0.004,0.273,0.13
			c0.139,0.3,0.239,0.633,0.409,0.904c0.396,0.632,0.885,0.785,1.507,0.415C74.813,46.541,75.009,46.671,75.007,47.123z"></path>
		<path fill="#B3B4B4" d="M9.779,12.467c0.946,0.146,1.876,0.252,2.734,0.912c0.406,0.312,1.051,0.44,1.532-0.14
			c0.061-0.074,0.214-0.134,0.279-0.095c0.835,0.509,1.762,0.381,2.675,0.464c-0.137,0.59-0.603,0.294-0.892,0.776
			c0.7,0.008,1.277,0.234,1.854,0.467c0.295,0.119,0.709,0.032,0.587,0.584c-0.095,0.432-0.362,0.321-0.684,0.153
			c-0.309-0.161-0.716-0.03-1.075-0.04c-1.65-0.046-3.191-0.842-4.842-0.9c-0.65-0.023-1.397-0.113-1.932-0.8
			c-0.139-0.178-0.425-0.189-0.677-0.29c0.137-0.355,0.274-0.71,0.41-1.065C9.749,12.494,9.779,12.467,9.779,12.467z"></path>
		<path fill="#B3B4B4" d="M47.922,51.052c-0.182,0.543,0.005,1.417-0.793,1.876c-0.703,0.405-1.189,0.427-1.712-0.281
			c-0.428-0.579-0.49-1.371-0.814-2.013c-0.097-0.192-0.039-0.441,0.079-0.623c0.181-0.277,0.347-0.002,0.472,0.083
			c0.676,0.466,1.365,0.316,2.055,0.106C47.707,50.049,47.977,50.209,47.922,51.052z"></path>
	</g>
</g>
</svg>
