<svg version="1.1" id="Layer_1" xmlns="http://www.w3.org/2000/svg" xmlns:xlink="http://www.w3.org/1999/xlink" x="0px" y="0px" width="50.226px" height="62.887px" viewBox="0 0 50.226 62.887" enable-background="new 0 0 50.226 62.887" xml:space="preserve">
<g>
	<path fill="#B3B4B4" d="M49.247,27.031c-0.438-0.116-0.844-0.311-1.253-0.533c-0.605-0.329-0.824-1.214-1.702-1.128
		c-0.832,0.082-1.688-0.603-2.516,0.122c-0.215,0.188-0.376-0.116-0.317-0.291c0.338-0.995-0.612-0.839-1.013-1.171
		c-0.425-0.352-0.777-0.056-1.002,0.216c-0.607,0.731-1.219,0.582-1.855,0.108c-0.191-0.142-0.362-0.238-0.556-0.085
		c-0.184,0.146-0.366,0.411-0.544,0.068c-0.093-0.18,0.078-0.409,0.243-0.567c0.134-0.127,0.242-0.294,0.396-0.383
		c0.695-0.4,0.921-0.938,0.491-1.65c-0.259-0.429-0.049-1.056-0.591-1.356c-0.206-0.224-0.405-0.456-0.621-0.671
		c-0.314-0.311-0.647-0.583-1.118-0.276c0.022-0.247-0.131-0.377-0.326-0.287c-0.487,0.223-0.943,0.033-1.411-0.029
		c-0.597-0.382-1.224-0.729-1.457-1.478c-0.058-0.185-0.235-0.268-0.438-0.26c-0.265-0.399-0.661-0.601-1.091-0.782
		c-0.709-0.3-1.347-0.582-2.211-0.537c-0.913,0.048-1.872-0.384-2.64-1.048c-0.572-0.495-0.74,0.353-1.165,0.42
		c-0.185,0.029-0.26,0.315-0.133,0.46c0.455,0.522-0.004,0.725-0.29,1.021c-0.256-0.301-0.395-0.546-0.261-0.969
		c0.077-0.244,0.251-0.668-0.112-0.934c0.095-0.27,0.554-0.019,0.569-0.528c-0.831,0.267-1.415,0.953-2.222,1.146
		c-0.264,0.063-0.372,0.237-0.459,0.462c-0.228,0.591-0.611,1.042-1.208,1.289c-0.523-0.668-1.182-1.061-1.984-0.594
		c-0.657,0.382-1.134,0.135-1.651-0.197c-0.219-0.441-0.471-0.853-0.936-1.081c0.17,0,0.278-0.035,0.303-0.252
		c0.095-0.813,0.218-1.623,0.33-2.434c0.261-0.427,0.103-0.654-0.34-0.801c-0.915-0.306-1.788,0.008-2.674,0.146
		c-0.02-0.122,0.035-0.289-0.176-0.297l0.022-0.009c-0.008,0.002-0.013,0.002-0.02,0.005c-0.001,0.002-0.001,0.003-0.002,0.005l0,0
		c-0.003-0.001-0.006-0.002-0.009-0.003c0.004-0.001,0.007-0.001,0.012-0.002c0.272-0.681,0.545-1.363,0.817-2.044
		c0.381-0.398,0.419-0.962,0.686-1.415c0.096-0.164,0.096-0.228-0.096-0.347c-0.576-0.354-1.852-0.011-2.006,0.637
		c-0.134,0.567-0.449,0.929-0.931,1.137c-1.635,0.706-2.669,0.631-3.346-1.242c-0.4-1.106-0.333-2.203,0.252-3.209
		c0.278-0.478,0.056-0.607-0.279-0.78C9.82,4.265,9.763,3.657,9.624,3.086C9.418,2.242,8.753,1.815,8.192,2.252
		C7.534,2.764,7.254,2.319,7.132,1.869C6.989,1.336,6.668,1.001,6.306,0.658c-0.313-0.139-0.626-0.139-0.94,0
		C5.316,0.709,5.265,0.76,5.215,0.81c-0.692,0.123-1.384,0.123-2.076,0C2.565,0.647,2.05,0.366,1.564,0.026
		C1.301,0.022,1.035,0.041,0.776,0.01C0.343-0.043,0.238,0.118,0.08,0.548c-0.28,0.764,0.256,1.211,0.432,1.795
		C0.585,2.587,0.886,2.75,0.658,3.099C0.38,3.522,0.498,3.875,0.977,4.144c0.274,0.154,0.674,0.371,0.574,0.762
		C1.3,5.879,2.089,6.142,2.572,6.625C2.268,5.977,1.96,5.319,1.918,4.624c-0.035-0.6-0.241-1.092-0.504-1.594
		C1.189,2.601,1.076,2.124,0.891,1.685C0.674,1.17,0.861,0.787,1.256,0.689c0.378-0.094,0.722,0.133,0.808,0.692
		c0.247,1.605,1.102,2.947,2.03,4.244c0.617,0.863,1.394,1.699,0.933,2.886c-0.145,0.374-0.016,0.54,0.201,0.78
		c1.056,1.172,2.529,1.622,3.894,2.249c0.474,0.218,0.891,0.625,1.555,0.347c1.07-0.448,1.565-0.225,2.253,0.777
		c0.34,0.504,0.841,0.719,1.422,0.79c0.474,0.46,0.953,0.399,1.434,0.012c-0.02,0.234,0.107,0.37,0.303,0.461
		c-0.136,0.872,0.599,1.049,1.118,1.398c-0.749,0.137-0.481,0.572-0.137,0.782c0.424,0.26,0.779,0.569,1.108,0.921
		c0.15,0.161,0.279,0.161,0.443,0.06c0.41,0.279,0.813,0.566,1.295,0.716c0.282,0.088,0.357,0.047,0.366-0.288
		c0.017-0.663,0.579-0.629,1-0.57c0.358,0.05,0.847,0.179,0.449,0.776c-0.133,0.2,0.129,0.108,0.207,0.155
		c-0.098,0.165-0.036,0.317,0.017,0.482c0.208,0.646,0.356,1.265,0.191,1.989c-0.183,0.801-0.716,1.317-1.145,1.929
		c-0.499,0.541-0.802,1.197-1.145,1.838c-0.2,0.374-0.022,0.779,0.121,0.801c0.971,0.155,0.218,0.581,0.142,0.853
		c-0.041,0.148-0.256,0.248-0.225,0.458c-0.354,0.415-0.219,1.254,0.307,1.585c0.395,0.249,0.592,0.608,0.822,0.985
		c0.467,0.766,0.544,1.703,1.095,2.42c0.496,0.645,1.037,1.244,1.302,2.053c0.201,0.612,0.656,1.058,1.285,1.327
		c1.014,0.435,1.932,1.021,2.606,1.925h0c0.76,1.064,0.878,2.262,0.628,3.489c-0.098,0.482-0.143,0.872,0.123,1.31
		c0.141,0.233,0.118,0.567-0.001,0.836c-0.203,0.459-0.138,0.944-0.083,1.395c0.256,2.113,0.941,4.193,0.455,6.359
		c-0.118,0.528,0.526,0.927,0.424,1.25c-0.355,1.123,0.466,1.58,1.021,2.213c0.121,0.138,0.416,0.231,0.231,0.496
		c-0.208,0.297-0.007,0.455,0.145,0.678c0.56,0.825,0.449,1.308-0.462,1.932c0.92,0.25,1.157,1.009,1.457,1.741
		c0.535,1.306,1.278,2.418,2.822,2.663c0.434,0.069,0.61-0.354,0.909-0.535c0.146-0.088-0.106-0.221-0.216-0.306
		c-0.335-0.647,0.012-1.18,0.312-1.704c0.372-0.648,0.36-1.141-0.351-1.574c-0.586-0.357-0.75-0.875-0.207-1.45
		c0.14-0.148,0.459-0.323,0.367-0.464c-0.331-0.51,0.094-0.739,0.317-1.037c-0.264-0.187-0.653-0.191-0.748-0.528
		c-0.076-0.275-0.488-0.499-0.23-0.813c0.303-0.37,0.524,0.13,0.792,0.14c0.178,0.006,0.368,0.396,0.511,0.048
		c0.121-0.295,0.489-0.545,0.188-0.966c-0.321-0.448-0.102-0.654,0.399-0.644c0.211,0.004,0.422,0.014,0.632-0.002
		c1.357-0.099,1.84-0.999,1.201-2.146c-0.181-0.325-0.338-0.586-0.708-0.714c-0.351-0.122-0.308-0.365-0.095-0.607
		c0.356,0.124,0.754,0.185,1.058,0.387c0.609,0.405,1.135,0.251,1.6-0.171c0.232-0.211,0.339-0.561,0.503-0.848
		c0.913-1.224,1.451-2.625,1.93-4.057c0.05-0.149,0.171-0.306,0.082-0.435c-0.615-0.903,0.015-1.296,0.642-1.767
		c0.535-0.403,1.271-0.434,1.714-0.991c0.053-0.066,0.271-0.062,0.378-0.014c0.914,0.409,1.282-0.256,1.549-0.871
		c0.736-1.695,1.31-3.434,0.966-5.337c-0.059-0.325-0.103-0.752,0.179-0.96c0.671-0.493,0.859-1.301,1.355-1.901
		c0.503-0.608,0.972-1.23,1.104-2.053C50.323,27.824,49.963,27.221,49.247,27.031z M15.231,10.524
		c-0.032-0.045-0.069-0.077-0.109-0.101c0.036-0.014,0.072-0.027,0.108-0.04C15.232,10.43,15.23,10.477,15.231,10.524z
		 M35.485,21.713c0.008,0.019,0.016,0.038,0.025,0.056c-0.025,0.004-0.049,0.006-0.074,0.009
		C35.455,21.76,35.47,21.737,35.485,21.713z"></path>
	<path fill="#B3B4B4" d="M20.297,7.158c0.907,0.391,1.98,0.476,2.589,1.43c0.093,0.145,0.344,0.208,0.535,0.269
		c0.545,0.175,1.093,0.17,1.845-0.137c-1.844-0.723-3.185-2.182-5.214-1.917c-0.565,0.074-1.007,0.324-1.403,0.718
		c0.276-0.008,0.534-0.07,0.779-0.165C19.711,7.246,19.97,7.017,20.297,7.158z"></path>
	<path fill="#B3B4B4" d="M35.696,61.313c-0.29-0.015,0.004-0.494-0.373-0.461c-0.213,0.019-0.396,0.124-0.387,0.301
		c0.012,0.251-0.361,0.692-0.006,0.975c0.47,0.375,0.967,0.759,1.572,0.759c0.548,0,1.095,0,1.643,0
		c-0.768,0-1.331-0.99-1.965-1.381C36.121,61.471,35.806,60.684,35.696,61.313z"></path>
	<path fill="#B3B4B4" d="M27.475,10.139c0.348-0.079,0.701-0.136,1.216-0.233c-0.477-0.248-0.727-0.52-1.132-0.61
		c-0.224-0.049-0.547-0.208-0.62-0.049c-0.12,0.261-0.144,0.64-0.046,0.909C27.013,10.486,27.272,10.185,27.475,10.139z"></path>
	<path fill="#B3B4B4" d="M24.544,10.073c0.356,0.041,0.663,0.387,1.066,0.123c0.395-0.258,0.701,0.163,1.065,0.165
		c0.045-1.195,0.045-1.195-0.81-1.157C26.187,10.685,24.904,9.653,24.544,10.073z"></path>
	<path fill="#B3B4B4" d="M39.722,23.663c0,0.295,0.32,0.48,0.646,0.531c0.344,0.054,0.515-0.169,0.643-0.353
		c-0.045-0.416-0.332-0.575-0.636-0.575C40.116,23.265,39.722,23.373,39.722,23.663z"></path>
	<path fill="#B3B4B4" d="M23.341,10.368c-0.367-0.237-0.367-0.237-0.85-0.14C22.771,10.375,23.019,10.569,23.341,10.368z"></path>
	<path fill="#B3B4B4" d="M30.46,10.887c-0.321,0-0.583,0-0.891,0C29.874,10.887,30.139,10.887,30.46,10.887z"></path>
	<path fill="#B3B4B4" d="M32.727,16.022c0.099-0.061,0.282-0.012,0.277-0.253c-0.023-0.151-0.18-0.112-0.294-0.103
		c-0.092,0.007-0.307-0.092-0.229,0.14C32.499,15.86,32.451,16.191,32.727,16.022z"></path>
</g>
</svg>
