<svg version="1.1" id="Layer_1" xmlns="http://www.w3.org/2000/svg" xmlns:xlink="http://www.w3.org/1999/xlink" x="0px" y="0px" width="62.452px" height="51.729px" viewBox="0 0 62.452 51.729" enable-background="new 0 0 62.452 51.729" xml:space="preserve">
<g id="Z4uR2S_1_">
	<g>
		<path fill="#B3B4B4" d="M14.799,23.025c-0.039-0.139-0.066-0.284-0.12-0.417c-0.144-0.357-0.218-0.674,0.176-0.951
			c0.145-0.102,0.213-0.323,0.24-0.527c0.09-0.686,0.272-1.35,0.477-2.009c0.005-0.016,0.01-0.033,0.008-0.048
			c-0.034-0.193,0.27-0.273,0.213-0.369c-0.151-0.254-0.002-0.48,0.009-0.708c0.017-0.358,0.104-0.725,0.337-1.014
			c0.19-0.236,0.04-0.541,0.164-0.749c0.514-0.86,0.157-1.646-0.157-2.437c-0.074-0.187-0.015-0.357-0.008-0.532
			c0.02-0.529-0.299-1.074,0.129-1.595c0.126-0.153-0.1-0.291-0.285-0.234c-0.116,0.036-0.253,0.131-0.301,0.237
			c-0.187,0.407-0.435,0.401-0.795,0.217c-0.432-0.221-0.876-0.108-1.218,0.423c-0.469,0.729-1.215,0.905-1.94,1.125
			c-0.354,0.107-0.676-0.102-0.904-0.378c-0.481-0.584-1.183-0.746-1.845-0.957c-0.314-0.1-0.637-0.032-0.654,0.468
			c-0.017,0.51-0.447,0.851-1.028,0.922c-0.402,0.049-0.926-0.29-1.062-0.713c-0.061-0.189-0.06-0.38-0.334-0.175
			c-0.1,0.075-0.197-0.085-0.277-0.158c-0.173-0.157-0.339-0.072-0.502,0.002c-0.12,0.054-0.245,0.158-0.343,0.002
			c-0.104-0.165,0.091-0.214,0.16-0.311c0.028-0.04,0.058-0.077,0.133-0.175c-0.345,0.023-0.638,0.046-0.932,0.058
			c-0.093,0.004-0.275-0.05-0.255-0.071c0.364-0.38-0.371-0.543-0.166-0.891c0.068-0.116-0.043-0.123-0.134-0.107
			c-0.127,0.022-0.209-0.051-0.181-0.163c0.149-0.58-0.258-0.764-0.665-0.812C2.159,9.91,2.179,9.639,2.391,9.2
			c0.186,0.286,0.44,0.393,0.82,0.239c-0.315-0.211-0.55-0.43-0.24-0.789c0.028-0.032-0.054-0.177-0.105-0.257
			C2.666,8.08,2.578,7.763,2.829,7.443c-0.131-0.103-0.211-0.006-0.301,0.01c-0.226,0.04-0.494,0.125-0.655-0.057
			C1.687,7.187,1.835,6.913,1.932,6.7C2.266,5.969,2.89,5.669,3.677,5.824c0.048,0.009,0.111,0.04,0.143,0.021
			C4.315,5.548,4.87,5.76,5.384,5.651c0.148-0.032,0.456,0.048,0.313-0.32c-0.072-0.185,0.125-0.15,0.22-0.166
			c0.301-0.052,0.605-0.09,1.025-0.149C6.594,4.84,6.29,4.931,6.071,4.742c-0.116-0.1-0.251-0.174-0.209-0.351
			C5.906,4.21,6.06,4.173,6.212,4.197C6.94,4.308,7.683,4.077,8.409,4.314c0.322,0.105,0.585-0.027,0.71-0.356
			c0.102-0.267,0.327-0.424,0.54-0.557c0.9-0.565,1.787-1.143,2.952-1.008c0.532,0.061,1.118,0.163,1.62-0.214
			c0.116-0.087,0.231-0.013,0.349,0.078c0.349,0.269,0.702,0.537,1.191,0.279c0.191-0.101,0.256,0.112,0.309,0.231
			c0.118,0.267,0.31,0.353,0.588,0.339c0.161-0.008,0.332,0.01,0.485,0.057c0.828,0.255,1.63,0.177,2.419-0.151
			c0.401-0.167,0.819-0.23,1.253-0.208c0.5,0.026,0.94-0.103,1.273-0.508c0.511-0.621,1.182-0.926,1.977-0.972
			c0.12-0.007,0.225-0.036,0.303-0.135c0.063-0.08,0.141-0.132,0.248-0.143C25.069,1,26.058,1.787,26.079,2.236
			c0.022,0.468,0.237,0.766,0.665,0.933c0.661,0.258,1.112,0.805,1.647,1.232c0.654,0.523,1.808,0.524,2.413-0.046
			c0.187-0.177,0.244-0.413,0.261-0.671c0.031-0.474,0.23-0.846,0.697-1.04c0.582-0.241,1.1,0.028,1.235,0.644
			c0.02,0.091,0.004,0.167-0.059,0.223c-0.385,0.338-0.143,0.434,0.182,0.565c0.17,0.068,0.368,0.18,0.507,0.143
			c0.591-0.156,0.658,0.255,0.832,0.641c0.323,0.715,0.845,0.942,1.564,0.726c0.362-0.108,0.624-0.146,0.958,0.187
			c0.5,0.498,1.905,0.51,2.534,0.137c0.254-0.151,0.518-0.293,0.746-0.479c0.45-0.368,1-0.467,1.53-0.628
			c0.405-0.123,0.569-0.361,0.362-0.769c-0.084-0.166-0.122-0.337,0.08-0.415c0.619-0.241,0.786-0.816,0.986-1.343
			c0.204-0.538,0.534-0.888,1.093-1.027c0.199-0.05,0.343-0.162,0.437-0.361c0.27-0.571,0.756-0.785,1.328-0.54
			c0.291,0.125,0.563,0.163,0.854,0.086c0.589-0.155,1.234,0.052,1.797-0.345c0.208-0.147,0.583-0.113,0.793,0.086
			c0.274,0.26,0.578,0.253,0.907,0.271c0.276,0.016,0.55,0.086,0.821,0.147c0.301,0.068,0.59,0.055,0.861-0.093
			c0.335-0.183,0.528-0.078,0.697,0.251c0.477,0.93,0.881,1.863,0.74,2.955c-0.041,0.317,0.1,0.616-0.15,0.951
			c-0.142,0.19-0.035,0.659,0.348,0.729c0.3,0.055,0.343,0.209,0.334,0.436c-0.013,0.341,0.056,0.669,0.254,0.935
			c0.403,0.54,0.797,1.076,1.032,1.721c0.113,0.31,0.417,0.31,0.718,0.245c0.745-0.162,1.262,0.228,1.239,1.002
			c-0.019,0.619-0.134,1.237-0.232,1.851c-0.048,0.299,0.042,0.482,0.327,0.562c0.294,0.082,0.536,0.252,0.753,0.454
			c0.603,0.56,1.303,0.738,2.09,0.525c0.35-0.095,0.573,0.02,0.739,0.311c0.154,0.271,0.308,0.542,0.455,0.817
			c0.075,0.141,0.155,0.265,0.339,0.193c0.266-0.104,0.499-0.086,0.611,0.206c0.12,0.313,0.006,0.604-0.247,0.785
			c-0.219,0.156-0.373,0.365-0.568,0.533c-0.949,0.819-0.734,1.946-0.343,2.854c0.143,0.332,0.046,0.449-0.178,0.496
			c-0.812,0.169-1.52,0.842-2.436,0.514c-0.14-0.05-0.191,0.1-0.288,0.146c-0.493,0.232-1.018,0.334-1.552,0.435
			c-0.546,0.103-1.124,0.023-1.641,0.28c-0.392,0.195-0.826,0.257-1.243,0.264c-0.535,0.008-0.818-0.429-1.07-0.833
			c-0.157-0.252-0.269-0.545-0.531-0.696c-0.387-0.222-0.77-0.278-1.194,0.008c-0.629,0.425-1.039,1.067-1.624,1.535
			c-0.31,0.249-0.58,0.484-1.001,0.375c-0.188-0.048-0.368,0.002-0.529,0.069c-0.327,0.138-0.639,0.307-0.919-0.073
			c-0.016-0.021-0.065-0.037-0.09-0.029c-0.731,0.229-1.301-0.103-1.88-0.489c-0.268-0.179-0.606-0.073-0.909,0.016
			c-0.521,0.154-0.937,0.012-1.245-0.439c-0.542-0.795-1.426-1.177-2.138-1.766c-0.164-0.135-0.376-0.216-0.524-0.364
			c-0.225-0.225-0.406-0.208-0.629-0.005c-0.326,0.296-0.697,0.262-0.991-0.096c-0.13-0.158-0.213-0.331-0.467-0.246
			c-0.31,0.104-0.092,0.289-0.075,0.439c0.027,0.241-0.228,0.336-0.263,0.56c-0.052,0.336-0.302,0.103-0.466,0.116
			c-0.098,0.007-0.199-0.015-0.295-0.001c-0.161,0.023-0.319,0.065-0.484,0.1c0.016,0.231,0.217,0.287,0.335,0.41
			c0.278,0.288,0.225,0.535-0.153,0.614c-0.167,0.035-0.287,0.091-0.304,0.26c-0.022,0.218,0.149,0.228,0.299,0.226
			c0.237-0.003,0.37,0.126,0.432,0.331c0.12,0.397,0.374,0.732,0.569,1.081c0.212,0.38,0.751,0.407,1.162,0.546
			c0.414,0.14,0.813,0.264,1.071,0.664c0.217,0.336,0.613,0.273,0.941,0.329c0.675,0.116,1.116,0.571,1.195,1.276
			c0.015,0.138,0.096,0.254,0.214,0.316c0.502,0.262,0.937,0.59,1.239,1.085c0.077,0.126,0.232,0.304,0.402,0.183
			c0.165-0.117,0.059-0.295-0.033-0.437c-0.404-0.628-0.158-1.305-0.136-1.962c0.005-0.156,0.109-0.369,0.305-0.311
			c0.221,0.065,0.536,0.135,0.562,0.41c0.072,0.76,0.661,1.434,0.333,2.276c-0.059,0.15-0.058,0.635,0.55,0.612
			c0.372-0.014,0.773,0.155,1.167-0.026c0.089-0.041,0.219-0.068,0.253-0.139c0.246-0.509,0.709-0.595,1.195-0.636
			c1.049-0.089,1.698-0.719,1.949-1.663c0.197-0.742,0.656-1.345,0.875-2.055c0.171-0.552,0.479-1.015,0.713-1.452
			c0.753,0.34,0.694,1.104,0.974,1.695c0.342,0.721,1.068,0.92,1.753,1.123c0.827,0.245,1.662,0.047,2.489-0.048
			c0.311-0.036,0.584-0.037,0.841,0.149c0.344,0.249,0.775,0.344,1.097,0.645c0.153,0.143,0.39,0.116,0.612,0.095
			c0.36-0.034,0.589,0.124,0.61,0.528c0.039,0.74-0.082,1.44-0.471,2.079c-0.287,0.471-0.202,1.021-0.342,1.523
			c-0.072,0.258-0.139,0.5-0.488,0.354c-0.143-0.059-0.202-0.002-0.269,0.116c-0.33,0.576-0.254,1.729,0.156,2.245
			c0.333,0.419,0.317,0.607-0.193,0.8c-0.807,0.306-1.096,0.851-0.963,1.679c0.075,0.469-0.178,0.757-0.564,0.996
			c-0.407,0.252-0.912,0.408-1.065,0.96c-0.05,0.18-0.077,0.333-0.022,0.521c0.148,0.509-0.13,0.943-0.639,1.042
			c-0.097,0.019-0.199,0.075-0.288,0.058c-0.823-0.159-1.282,0.41-1.803,0.873c-0.245,0.218-0.422,0.561-0.83,0.529
			c0.004,0.184-0.038,0.321-0.191,0.468c-0.535,0.513-1.088,1.035-0.744,1.907c0.082,0.208-0.067,0.325-0.265,0.393
			c-0.371,0.126-0.659,0.36-0.853,0.705c-0.091,0.161-0.22,0.286-0.386,0.369c-1.219,0.614-2.224,1.554-3.4,2.232
			c-0.235,0.136-0.365,0.324-0.397,0.628c-0.062,0.586-0.717,1.209-1.288,1.274c-0.388,0.044-0.682,0.209-0.885,0.544
			c-0.517,0.85-1.297,1.304-2.255,1.493c-0.643,0.127-1.224,0.298-1.398,1.088c-0.081,0.364-0.492,0.62-0.802,0.762
			c-0.752,0.345-1.439,0.924-2.354,0.819c-0.121-0.014-0.227-0.017-0.293-0.132c-0.507-0.875-1.299-1.568-1.635-2.556
			c-0.045-0.132-0.162-0.244-0.26-0.353c-0.515-0.573-0.829-1.205-0.94-2.001c-0.099-0.707-0.496-1.373-1.003-1.887
			c-0.412-0.418-0.658-1.032-1.209-1.266c-0.709-0.3-1.116-0.884-1.593-1.414c-0.077-0.085-0.187-0.169-0.209-0.27
			c-0.183-0.826-0.862-1.236-1.434-1.734c-0.28-0.243-0.629-0.382-0.987-0.411c-0.765-0.061-1.285-0.418-1.565-1.131
			c-0.261-0.662-0.668-1.264-0.698-2.02c-0.016-0.407-0.21-0.777-0.571-1.05c-0.173-0.131-0.27-0.366-0.396-0.558
			c-0.561-0.852-1.229-1.512-2.349-1.552c-0.354-0.013-0.575-0.381-0.703-0.692c-0.281-0.687-0.655-1.272-1.312-1.664
			c-0.233-0.139-0.446-0.346-0.604-0.568c-0.716-1.01-1.847-1.624-2.528-2.665c-0.113-0.172-0.278-0.269-0.507-0.221
			c-0.319,0.067-0.425-0.093-0.369-0.389c0.068-0.36-0.109-0.674-0.185-1.006c-0.099-0.436,0.003-0.588,0.438-0.6
			c0.388-0.011,0.778-0.002,1.166-0.016c-0.54-0.106-1.102,0.087-1.642-0.153c-0.291,0.74-0.433,1.513-0.558,2.288
			c-0.034,0.211-0.065,0.386-0.294,0.455c-0.21,0.064-0.406,0.025-0.537-0.144c-0.376-0.486-0.929-0.857-1.02-1.533
			c-0.006-0.047-0.03-0.095-0.056-0.136c-0.361-0.574-0.843-1.079-0.982-1.792c-0.29,0.358-0.456,0.676-0.068,1.033
			c0.098,0.09,0.165,0.261,0.17,0.398c0.033,0.817,0.603,1.316,1.078,1.872c0.074,0.086,0.246,0.156,0.243,0.229
			c-0.02,0.611,0.494,0.98,0.654,1.494c0.498,1.595,1.422,2.972,2.2,4.424c0.074,0.138,0.223,0.237,0.341,0.35
			c0.186,0.179,0.557,0.248,0.18,0.654c-0.183,0.197,0.04,0.597,0.069,0.906c0.056,0.596-0.151,0.887-0.752,0.947
			c-0.213,0.021-0.219,0.181-0.25,0.311c-0.085,0.349-0.265,0.591-0.628,0.679c-0.227,0.055-0.348,0.207-0.419,0.434
			c-0.144,0.463-0.569,0.656-0.976,0.363c-0.407-0.292-0.802-0.289-1.253-0.241c-0.456,0.049-0.975,0.165-1.365,0.005
			c-0.496-0.203-0.866,0.056-1.291,0.079c-0.869,0.046-1.738,0.088-2.607,0.123c-1.936,0.078-3.872,0.145-5.807,0.23
			c-0.397,0.018-0.605-0.075-0.616-0.526c-0.029-1.214-0.105-2.427-0.144-3.641c-0.081-2.527-0.154-5.055-0.218-7.582
			c-0.008-0.297-0.039-0.572-0.301-0.735c-0.386-0.241-0.111-0.69-0.36-1.003c-0.24-0.301-0.175-0.677,0.177-0.951
			c0.129-0.1,0.073-0.276,0.032-0.419c-0.117-0.412-0.006-0.842-0.127-1.268c-0.046-0.161,0.103-0.492,0.546-0.496
			c0.648-0.006,1.292-0.101,1.946,0.007c0.472,0.078,0.923,0.183,1.371,0.366c0.416,0.169,0.875,0.246,1.323,0.316
			c0.309,0.049,0.635,0.068,0.907,0.205c0.439,0.221,0.795,0.126,1.122-0.178c0.341-0.317,0.82-0.414,1.146-0.753
			c0.047-0.048,0.159-0.063,0.234-0.051c0.725,0.123,1.416-0.147,2.127-0.181c0.114-0.005,0.183,0.035,0.25,0.116
			c0.691,0.84,1.575,0.811,2.497,0.53C14.414,22.374,14.409,22.357,14.799,23.025z"></path>
		<path fill="#B3B4B4" d="M1.884,6.373c-0.286-0.722,0.5-0.581,0.591-0.944C2.448,5.406,2.425,5.37,2.403,5.371
			C2.162,5.378,1.887,5.517,1.689,5.347c-0.276-0.238,0.128-0.402,0.14-0.636c0.015-0.281,0.044-0.589,0.28-0.816
			c0.046-0.044,0.047-0.153,0.042-0.23C2.139,3.485,1.744,3.345,2.055,3.142c0.297-0.193,0.638-0.376,1.008-0.267
			c0.23,0.068,0.44,0.089,0.67,0.048c0.126-0.022,0.3-0.038,0.343,0.113C4.26,3.669,4.813,3.815,5.323,4.031
			C5.452,4.086,5.704,4.07,5.619,4.325C5.556,4.512,5.376,4.593,5.187,4.592c-0.195-0.001-0.39-0.056-0.584-0.053
			c-0.513,0.006-0.98,0.081-1.336,0.547C2.9,5.564,2.282,5.784,1.884,6.373z"></path>
		<path fill="#B3B4B4" d="M14.255,13.787c-0.059,0.423-0.466,0.514-0.525,0.827c-0.163,0.856-0.898,1.121-1.538,1.47
			c-0.333,0.182-0.979-0.092-1.145-0.433c-0.097-0.199-0.063-0.349,0.148-0.437c0.544-0.228,0.968-0.689,1.595-0.769
			C13.306,14.379,13.736,14.051,14.255,13.787z"></path>
	</g>
</g>
</svg>
