<svg version="1.1" id="Layer_1" xmlns="http://www.w3.org/2000/svg" xmlns:xlink="http://www.w3.org/1999/xlink" x="0px" y="0px" width="52.16px" height="49.087px" viewBox="0 0 52.16 49.087" enable-background="new 0 0 52.16 49.087" xml:space="preserve">
<g>
	<path fill="#B3B4B4" d="M36.559,10.974c-0.586-0.032-0.909-0.567-0.78-1.182c-0.267,0.182-0.421,0.358-0.783,0.081
		c-0.275-0.21-0.768-0.69-0.983-0.548c-0.581,0.386-0.736-0.045-0.978-0.335c-0.205-0.246-0.496-0.313-0.619-0.076
		c-0.18,0.346-0.524,0.448-0.743,0.748c-0.116-0.849-0.346-1.152-0.841-1.14c-0.557,0.887-0.583,1.34-0.111,1.875
		c-0.172-0.149-0.269-0.322-0.346-0.551c-0.135-0.401,0.046-0.808-0.1-1.193c-0.394-0.05-0.8,0.165-0.757,0.544
		c0.057,0.502-0.45,1.167,0.321,1.502c0.241,0.105,0.572,0.096,0.156,0.428c-0.21,0.167,0.059,0.156,0.108,0.187
		c0.852,0.53,1.656-0.146,2.491-0.111c0.02,0.001,0.054-0.067,0.064-0.106c0.124-0.501,0.122-0.48,0.563-0.163
		c0.29,0.209,0.548,0.447,0.964,0.515c0.965,0.159,1.398,0.877,1.214,1.828c-0.026,0.134-0.089,0.26-0.004,0.392
		c0.1,0.156,0.58,0.217,0.122,0.512c-0.227,0.146-0.376,0.514-0.643,0.465c-0.404-0.075-0.38,0.195-0.45,0.4
		c-0.059,0.173,0.09,0.257,0.216,0.287c0.251,0.061,0.452,0.069,0.589-0.266c0.181-0.442,0.531-0.418,0.968-0.262
		c0.505,0.18,0.836,0.72,1.42,0.679c0.227-0.016,0.405-0.06,0.63,0.087c0.164,0.108,0.439,0.057,0.665,0.058
		c0.19,0.001,0.31-0.151,0.324-0.3c0.014-0.149-0.18-0.169-0.298-0.216c-0.362-0.144-0.797-0.128-1.063-0.538
		c0.271,0.236,0.538-0.096,0.83,0.065c0.188,0.103,0.544,0.118,0.609-0.102c0.06-0.203-0.111-0.479-0.197-0.717
		c-0.017-0.047-0.117-0.058-0.168-0.1c-0.417-0.345-0.979-0.333-1.436-0.59c-0.289-0.162-0.433-0.46-0.399-0.688
		c0.065-0.438,0.366-0.11,0.577-0.08c0.406,0.057,0.735,0.388,1.205,0.354c-0.088-0.244-0.311-0.454-0.028-0.662"></path>
	<path fill="#B3B4B4" d="M28.371,2.088c0.021,0.131,0.102,0.207,0.225,0.244c0.347-0.15,0.275,0.219,0.41,0.331
		c0.184-0.105,0.419-0.17,0.54-0.324c0.256-0.325,0.232-0.344,0.676-0.24c-0.727,0.865-0.727,0.865-0.345,1.31
		c-0.418,0.149-0.531-0.558-0.958-0.334c-0.094,0.259,0.095,0.394,0.23,0.565c0.157,0.198,0.416,0.332,0.432,0.628
		c-0.007,0.014-0.009,0.03-0.015,0.045c-0.353-0.148-0.443,0.139-0.502,0.478c0.305,0.07,0.344-0.199,0.464-0.365
		c0.334,0.201-0.151,0.578,0.169,0.782c0.072,0.046,0.269-0.012,0.168,0.179c-0.06,0.115-0.186,0.107-0.302,0.098
		c-0.177-0.013-0.214-0.327-0.449-0.211c-0.165,0.258,0.306,0.293,0.188,0.461c-0.114,0.162-0.38,0.26-0.078,0.448
		c0.216,0.134,0.44,0.121,0.67-0.075c0.159-0.137,0.446-0.307,0.621-0.168c0.306,0.243,0.43,0.012,0.456-0.16
		c0.039-0.26-0.237-0.291-0.41-0.263c-0.239,0.039-0.373-0.201-0.281-0.212c0.514-0.058,0.41-0.455,0.545-0.747
		C31,4.182,30.974,3.99,30.617,3.774C30.491,3.697,30.3,3.43,30.473,3.351c0.649-0.298,0.53-0.884,0.617-1.399
		c0.012-0.018,0.018-0.035,0.025-0.053c0.093-0.181,0.257-0.365-0.054-0.525c-0.047,0.042-0.1,0.081-0.128,0.131
		c-0.049-0.071-0.06-0.156-0.002-0.265c-0.128-0.327,0.243-0.428,0.314-0.682c0.097-0.346,0.012-0.652-0.307-0.529
		c-0.379,0.146-0.933-0.29-1.16,0.341c-0.023,0.063-0.2,0.076-0.308,0.104c-0.568,0.148-0.475,0.477-0.232,0.847
		c-0.33,0.102-0.77-0.005-0.895,0.476C28.374,1.892,28.392,1.988,28.371,2.088z"></path>
	<path fill="#B3B4B4" d="M48.348,26.388c-0.76,0.476-1.566,0.27-2.078-0.528c-0.08-0.124-0.154-0.258-0.301-0.115
		c-0.224,0.217-0.383,0.024-0.596-0.031c0.179-0.195,0.411-0.276,0.5-0.508c0.073-0.19,0.217-0.376,0.022-0.561
		c-0.173-0.163-0.378-0.123-0.566-0.019c-0.118,0.066-0.24,0.142-0.33,0.24c-0.67,0.733-1.198,1.541-1.295,2.564l-0.042-0.022
		c-0.043-0.048-0.085-0.095-0.128-0.143c0,0,0,0,0,0c0,0,0,0,0,0c-0.12-0.568,0.019-1.105,0.176-1.646
		c0.082-0.281,0.475-0.467,0.449-0.633c-0.147-0.968,0.737-1.087,1.202-1.52c0.323-0.301,0.772-0.468,1.167-0.691
		c0.321-0.181,0.649-0.396,0.713-0.767c0.099-0.569,0.325-1.07,0.589-1.572c0.157-0.298,0.478-0.701,0.017-0.944
		c-0.321-0.169-0.393-1.187-1.087-0.392c-0.075,0.086-0.243-0.152-0.348-0.266c-0.027-0.17-0.127-0.271-0.292-0.31c0,0,0,0,0,0
		s0,0,0,0c-0.906,0.346-1.81,0.438-2.71-0.02c-0.046-0.088-0.092-0.176-0.138-0.264c0.081-0.131,0.1-0.208-0.085-0.3
		c-0.498-0.247-1.048-0.416-1.45-0.822c-0.29-0.293-0.593-0.533-1.015-0.582c-0.067,0.136-0.08,0.281,0.014,0.39
		c0.455,0.531,0.158,1.005-0.1,1.482c-0.063,0.116-0.15,0.279-0.299,0.132c-0.361-0.354-0.658-0.032-1.094,0.177
		c0.274-0.515-0.11-0.696-0.233-0.983c0.001-0.07,0.002-0.139,0.003-0.209h0c0,0,0,0,0,0c-0.195-0.103-0.133-0.492-0.489-0.425
		c-0.435,0.083-0.834-0.056-1.181-0.295c-0.427-0.296-0.775-0.363-1.203,0.044c-0.181,0.172-0.641,0.041-0.836,0.208
		c-0.435,0.374,0.329,0.449,0.26,0.701c-0.132,0.476,0.17,0.763,0.408,1.044c0.272,0.322,0.253,0.597,0.023,0.878
		c-0.131,0.159-0.291,0.353-0.008,0.388c0.677,0.083,0.837,0.657,1.064,1.097c0.147,0.285,0.735,0.324,0.481,0.828
		c-0.163,0.324-0.3,0.661-0.467,0.982c-0.083,0.16-0.21,0.297-0.31,0.45c-0.057,0.087-0.179,0.201-0.052,0.29
		c0.581,0.409,0.508,1.332,1.323,1.569c-0.202,0.111-0.401,0.261-0.333,0.379c0.363,0.622-0.52,0.417-0.499,0.791
		c-0.146-0.038-0.363,0.137-0.429-0.143c-0.074-0.31-0.331-0.322-0.575-0.344c-0.089-0.008-0.164,0.107-0.248-0.08
		c-0.278-0.617-0.649-1.196-0.793-1.868c-0.088-0.411-0.282-0.485-0.68-0.362c-0.84,0.259-1.571,0.03-2.279-0.497
		c-0.441-0.328-1.081-0.553-1.582-0.393c-0.581,0.186-0.611-0.06-0.763-0.45c-0.139-0.356,0.044-1.07-0.777-0.85
		c-0.091,0.024-0.226-0.155-0.248-0.348c-0.153-1.287,0.098-2.419,1.154-3.278c0.284-0.231,0.137-0.356-0.126-0.478
		c-0.263-0.122-0.645-0.037-0.82-0.471c0.337,0.055,0.621,0.095,0.902,0.149c0.123,0.024,0.273,0.15,0.315-0.073
		c0.061-0.324,0.281-0.354,0.552-0.383c0.417-0.044,0.358-0.427,0.391-0.692c0.041-0.331-0.254-0.25-0.439-0.252
		c-0.327-0.004-0.527-0.126-0.623-0.535c0.238,0.107,0.39,0.159,0.525,0.239c0.521,0.31,0.717-0.229,0.639-0.418
		c-0.243-0.587,0.065-0.373,0.389-0.456c0.296-0.075,0.733-0.193,0.87-0.566c0.113-0.309,0.067-0.618-0.257-0.842
		c-0.135-0.093-0.191-0.261-0.155-0.476c0.081-0.485-0.289-0.833-0.77-0.79c-0.186,0.017-0.379,0.092-0.245,0.271
		c0.428,0.571-0.167,1.077-0.061,1.621c0.015,0.075-0.094,0.218-0.179,0.26c-0.15,0.074-0.251-0.058-0.333-0.167
		c-0.15-0.199-0.325-0.387-0.283-0.671c0.035-0.239-0.065-0.419-0.225-0.57c-0.323,0.17-0.091,0.491-0.268,0.689
		c-0.484-0.685-0.944-1.369-1.111-2.205c-0.041-0.207-0.119-0.392-0.349-0.466c-0.105-0.034-0.253-0.119-0.285,0.026
		c-0.093,0.414-0.19,0.837-0.198,1.258c-0.006,0.329,0.412,0.278,0.6,0.466c0.174,0.175,0.392,1.094,0.193,1.139
		c-0.619,0.139-0.235,0.59-0.312,0.86c-0.708,0.135-0.161-1.04-0.965-0.821c0.02,0.181,0.392,0.202,0.222,0.482
		c-0.735-0.083-1.592,0.295-2.182-0.417c-0.391-0.471-0.639-0.15-0.943,0.02c-0.328,0.183,0,0.453-0.075,0.676
		c-0.034,0.1,0.011,0.253-0.144,0.259c-0.114,0.004-0.175-0.075-0.201-0.214c-0.097-0.516-0.356-0.793-0.952-0.736
		c-0.294,0.028-0.616-0.136-0.91-0.251c-0.156-0.061-0.387-0.216-0.136-0.393c0.524-0.369,0.201-0.465-0.149-0.596
		c-0.28-0.105-0.494-0.315-0.731-0.492c-0.378-0.283-0.536-1.086-1.282-0.605c-0.012,0.008-0.098-0.07-0.125-0.121
		c-0.164-0.302-0.798-0.246-0.615-0.832c0.035-0.113-0.178-0.03-0.269-0.051c-0.458-0.105-0.908,0.15-1.305,0.034
		c-0.348-0.159,0.531-0.238-0.038-0.39c-0.362-0.133-0.779,0.316-1.114-0.106c-0.275-0.277-0.722-0.361-0.832-0.836
		c-0.062-0.267-0.242-0.032-0.367,0.016c0.126-0.389,0.147-0.88-0.196-1.045c-0.883-0.428-1.003-1.401-1.562-2.056
		c-0.349-0.409-0.47-1.032-0.997-1.436c-0.498-0.383-1.086-0.56-1.559-0.439c-0.506,0.13-0.792,0.089-1.138-0.242
		C9.496,3.481,9.257,3.513,9.299,3.92c0.05,0.483-0.437,0.901-0.093,1.44c0.142,0.222-0.265,0.362-0.438,0.521
		C8.68,5.963,8.553,6.089,8.423,5.922C8.3,5.766,8.031,5.545,8.148,5.425C8.659,4.898,8.01,4.957,7.853,4.854
		C7.65,4.721,7.291,4.413,7.166,4.629C6.937,5.023,6.503,5.424,6.909,6.021c0.252,0.372,0.568,0.527,0.976,0.629
		c-0.2,0.368-0.414,0.653-0.724,0.858C6.942,7.107,6.43,7.39,6.169,7.084c-0.5-0.59-1.445-0.465-1.821,0.173
		C4.04,7.779,3.774,8.24,4.277,8.776c0.04,0.043,0.073,0.158,0.049,0.185C3.97,9.354,4.204,9.69,4.255,10.119
		c0.07,0.581,0.306,0.749,0.671,0.903c-0.669,0.663-1.417,0.533-2.25,0.436c-0.595-0.07-1.028-0.467-1.596-0.488
		c-0.234-0.13-0.468-0.26-0.702-0.39c-0.123-0.039-0.248-0.274-0.367-0.044c-0.059,0.113,0.104,0.16,0.213,0.183l0,0
		c0.207,0.186,0.461,0.284,0.718,0.374l0,0c0.878,0.561,1.868,0.943,2.866,1.037c0.716,0.068,1.588,0.768,2.251-0.181
		c0.768,0.028,1.532-0.218,2.507-0.076c-0.615,0.29-1.297,0.127-1.365,0.836c0.253,0.098,0.541,0.171,0.788,0.315
		c0.246,0.143,0.463,0.129,0.595-0.082c0.226-0.362,0.365-0.157,0.558,0.018c0.252,0.228,0.361,0.51,0.427,0.832
		c0.049,0.24,0.068,0.513,0.292,0.672c0.704,0.497,1.046,1.237,1.36,1.997c-0.004,0.366,0.345,0.681,0.213,1.047
		c-0.382,1.065-0.078,2.114,0.049,3.162c0.063,0.52,0.402,0.778,0.958,0.56c-0.225,0.74-0.157,1.489,0.007,2.22
		c0.079,0.353,0.145,0.678-0.009,1.013c-0.046,0.1-0.165,0.204-0.033,0.293c0.679,0.458,0.94,1.236,1.436,1.832
		c0.274,0.329,0.087,0.857,0.528,1.088l0,0h0c-0.307,0.332-0.1,0.734-0.144,1.101c-0.036,0.3,0.028,0.623-0.314,0.825
		c-0.065-0.759-0.155-0.848-0.96-0.922c0.225,1.111-0.163,2.074-0.618,3.055c-0.22,0.475-0.689,0.924-0.581,1.475
		c0.166,0.845-0.559,1.494-0.355,2.383c0.119,0.518-0.021,1.046,0.543,1.393c0.145,0.089,0.19,0.393-0.031,0.498
		c-0.142,0.067-0.189,0.154-0.136,0.23c0.339,0.49,0.135,1.164,0.569,1.624c0.113,0.12,0.212,0.288,0.13,0.493
		c-0.067,0.168-0.029,0.285,0.174,0.363c0.962,0.367,1.547,1.083,1.843,2.053l0,0c0.006,0.139-0.018,0.287,0.122,0.384
		c0.011-0.145,0.085-0.22,0.204-0.245c0.018,0.003,0.036,0.006,0.055,0.007c0.02,0.001,0.118,0.002,0.138,0.003
		c0.202,0.152,0.742,0.093,0.742,0.083c0-0.002,0-0.004,0-0.006l0,0c0,0.002,0,0.004,0,0.006c0,0.017,0.047,0.033,0.11,0.049
		c0.129,0.049,0.209,0.119,0.303,0.234c1.043,0.591,1.966,1.415,3.262,1.424c0.138,0.005,0.266,0.014,0.403,0.023
		c0.254,0.084,0.502,0.092,0.752-0.003c0.116-0.014,0.23-0.036,0.346-0.072c0.929,0.01,1.452,0.616,1.923,1.303
		c0.059,0.079,0.1,0.168,0.139,0.257c0.012,0.091,0.043,0.175,0.11,0.246c0.028,0.058,0.06,0.113,0.099,0.165
		c0.826,0.711,0.831,0.71,1.382-0.026c0.11-0.094,0.222-0.12,0.334-0.111c0.05,0.015,0.1,0.026,0.15,0.032
		c0.051,0.017,0.101,0.038,0.152,0.062c0.288,0.152,0.486,0.41,0.724,0.622c0.176,0.138,0.189,0.356,0.266,0.543
		c0.344,0.576,0.455,1.303,1.094,1.687c0.085,0.035,0.172,0.065,0.258,0.092c0.118,0.073,0.252,0.085,0.389,0.08
		c0.094,0.008,0.19-0.586,0.288-0.598c0.022-0.004,0.044-0.607,0.066-0.607c0.012,0,0.025,0,0.037,0
		c-0.003,0-0.006,0.594-0.008,0.592c0.21-0.098,0.129,0.036,0.085-0.111c-0.213-0.71-0.022-1.096,0.589-1.552
		c0.412-0.308,1.242-0.065,1.203-0.921c0-0.008,0.09-0.002,0.125,0.011c0.388,0.148,0.793-0.153,1.1-0.051
		c0.549,0.181,1.076-0.314,1.605,0.08c0.479,0.357,0.896,0.231,1.273-0.31c-0.105-0.008-0.246,0.025-0.306-0.031
		c-0.128-0.119-0.458,0.009-0.41-0.252c0.051-0.282,0.289-0.124,0.484-0.126c0.6-0.007,1.137-0.376,1.78-0.288
		c0.492,0.067,1.036-0.228,1.461,0.259c0.16,0.183,0.338,0.127,0.539,0.018c0.659-0.357,1.58,0.178,1.721,0.934
		c0.187,1.01,0.817,1.727,1.663,2.268c0.228,0.145,0.327,0.146,0.43-0.196c0.339-1.132-0.499-1.841-0.949-2.644
		c-0.394-0.703-0.838-1.286-0.622-2.172c0.235-0.965,1.079-1.452,1.613-2.165c0.308-0.411,0.775-0.861,0.901-1.285
		c0.112-0.374,0.322-0.337,0.519-0.417c-0.154-0.36-0.471-0.125-0.654-0.267c0.019-0.223,0.234-0.201,0.339-0.306
		c0.221-0.222,0.026-0.471-0.096-0.462c-0.428,0.034-0.359-0.162-0.337-0.45c0.01-0.13-0.015-0.338-0.198-0.468
		c-0.298-0.212-0.18-1.055,0.228-1.381c-0.063,0.519-0.011,0.963,0.469,1.213c0.612-0.546-0.468-0.829-0.237-1.268
		c0.281-0.275,0.447,0.386,0.72,0.01c0.272-0.374,0.193-0.718-0.036-1.075c-0.096-0.149-0.145-0.328-0.216-0.493
		c-0.015-0.054-0.016-0.1-0.011-0.144c0.002,0.048,0.002,0.095,0.011,0.144c0.423-0.436,1.08-0.693,1.095-1.439l0,0c0,0,0,0,0,0
		c0.69-0.259,0.72-0.478,0.623-1.152c-0.069-0.474-0.239-1.013,0.103-1.502c0.318-0.455,0.619-0.9,1.123-1.192
		c0.176-0.102,0.383-0.315,0.324-0.621c-0.065-0.337-0.409-0.073-0.529-0.271c0.437-0.215,0.856-0.546,1.033-0.941
		c0.253-0.562,0.58-0.473,1.131-0.348c-0.58,0.226-0.662,0.715-0.874,1.106c-0.137,0.253-0.061,0.556,0.27,0.664
		c0.33,0.108,0.424-0.188,0.43-0.385c0.02-0.72,0.554-1.152,0.871-1.706c0.101-0.177,0.39-0.383,0.204-0.579
		C48.732,26.008,48.533,26.272,48.348,26.388z M43.804,27.417c0.02-0.006,0.04-0.013,0.06-0.019
		c-0.004,0.013-0.01,0.022-0.014,0.035L43.804,27.417c0.002,0.008,0.004,0.017,0.006,0.025c-0.032-0.013-0.067-0.018-0.106-0.012
		l0,0C43.737,27.426,43.77,27.421,43.804,27.417z M37.948,34.636c0.002,0,0.005-0.001,0.007-0.002
		c-0.001,0.003-0.003,0.005-0.005,0.008C37.95,34.64,37.949,34.638,37.948,34.636z M37.449,33.135
		c-0.029-0.093-0.241-0.179-0.233-0.268c0.048-0.509-0.237-0.888-0.755-1.08c-0.543-0.201-0.811,0.114-0.964,0.541
		c-0.031,0.086-0.132,0.152-0.201,0.213c-0.494,0.441-0.47,0.958-0.216,1.496c0.108,0.229,0.22,0.45,0.197,0.713
		c-0.021,0.236-0.082,0.482-0.324,0.562c-0.293,0.096-0.387-0.174-0.493-0.368c-0.157-0.288-0.192-0.605-0.194-0.929
		c-0.001-0.249,0.076-0.503-0.014-0.748c-0.222-0.609-0.065-1.011,0.518-1.294c0.331-0.161,0.686-0.245,1.044-0.323
		c0.117-0.025,0.218-0.092,0.238-0.216c0.027-0.164-0.086-0.246-0.22-0.303c-0.377-0.16-0.758-0.177-1.126,0.014
		c-0.391,0.203-0.781,0.226-1.187,0.054c-0.361-0.152-0.709-0.147-1.033,0.105c-0.359,0.279-0.758,0.317-1.176,0.224
		c0.174-0.534,0.815-0.584,1.029-1.064c-0.023-0.016-0.045-0.025-0.068-0.036c0.404-0.124,0.761-0.345,1.037-0.736
		c0.108-0.153,0.274-0.284,0.465-0.22c0.572,0.191,1.263,0.407,1.53,0.878c0.483,0.853,1.102,0.9,1.891,0.723
		c0.5-0.112,0.949-0.012,1.323,0.348c0.215,0.207,0.264,0.401-0.112,0.45c-0.247,0.033,0.011,0.09,0.042,0.371
		c0.058,0.52,0.306,0.999,0.306,1.488c0-0.013,0-0.026,0-0.038C38.755,33.095,38.045,32.971,37.449,33.135z"></path>
	<path fill="#B3B4B4" d="M50.483,20.942c-0.194-0.138-0.397,0.134-0.527,0.296c-0.268,0.334-0.771-0.126-0.989,0.317
		c-0.091-0.245-0.182-0.491-0.272-0.736c-0.023-0.064-0.056-0.126-0.067-0.192c-0.029-0.17-0.016-0.436-0.241-0.389
		c-0.243,0.051-0.071,0.291-0.073,0.46c-0.01,1.078,0.72,2,0.609,3.151c0.624-0.497,1.149-1.068,1.797-1.379
		c0.446-0.214,0.454-0.478,0.358-0.752C50.973,21.422,50.74,21.126,50.483,20.942z"></path>
	<path fill="#B3B4B4" d="M20.713,9.667c0.297,0.001,0.585,0.066,0.807-0.265c0.167-0.248,0.375-0.537,0.76-0.496
		c0.052,0.045,0.105,0.09,0.157,0.135c-0.501,0.412-0.676,0.814,0.075,1.157c-0.176,0.178-0.554-0.002-0.528,0.327
		c0.02,0.261,0.272,0.323,0.517,0.32c0.132-0.002,0.272-0.018,0.376,0.096c-0.052,0.099-0.105,0.198-0.157,0.296l0,0
		c-0.252,0.075-0.642-0.132-0.748,0.135c-0.137,0.348,0.184,0.539,0.491,0.682c0.106,0.05,0.224,0.202,0.231,0.314
		c0.023,0.342,0.257,0.317,0.493,0.417c0.558,0.237,1.02-0.05,1.377-0.299c0.307-0.214,0.318,0.003,0.49,0.061
		c0.342,0.115,0.676,0.702,1.084,0.092c-0.004-0.156-0.008-0.311-0.011-0.467h0c0,0,0,0,0,0c0.432-0.184,0.138-0.385-0.028-0.483
		c-0.417-0.247-0.581-0.519-0.579-1.056c0.001-0.403,0.07-0.896-0.196-1.292c-0.192-0.004-0.471-0.165-0.417,0.256
		c0.023,0.179,0.006,0.364,0,0.545c-0.004,0.139-0.014,0.282-0.213,0.273c-0.145-0.007-0.207-0.107-0.187-0.227
		c0.06-0.352-0.219-0.413-0.418-0.589c-0.312-0.275,0.021-0.27-0.085-0.79c-0.002-0.011,0.749-0.005,0.749-0.007l0,0l0,0
		c0-0.048,0-0.095,0-0.142l0,0c0-0.396-1.886-1.456-2.261-1.375C22.418,7.301,21.9,7.373,21.852,7.44
		c-0.288,0.404-0.787,0.815-1.071,1.222C20.513,9.047,20.801,9.311,20.713,9.667z"></path>
	<path fill="#B3B4B4" d="M30.282,7.682c0.074-0.064,0.149-0.269,0.319-0.112c0.206,0.19,0.372,0.076,0.533-0.07
		c-0.235-0.205,0.004-0.559-0.165-0.709c-0.154-0.137-0.503-0.284-0.678-0.038c-0.538,0.753-1.105,0.52-1.701,0.118
		c-0.118-0.138,0.187-0.536-0.229-0.457c-0.334,0.063-0.357-0.424-0.668-0.29c-0.051,0.022-0.125,0.108-0.115,0.134
		c0.031,0.078,0.092,0.15,0.156,0.207c0.211,0.188,0.586,0.087,0.726,0.407l0,0c0.036,0.417-0.054,1.044,0.494,1.021
		C29.368,7.876,29.883,8.026,30.282,7.682z"></path>
	<path fill="#B3B4B4" d="M31.573,15.161c0.24,0.68-0.142,1.501,0.711,1.933c0.057-0.094,0.143-0.182,0.169-0.285
		c0.13-0.528,0.341-0.826,0.889-0.38c0.056,0.046,0.174,0.024,0.263,0.018c0.099-0.006,0.17-0.065,0.174-0.168
		c0.004-0.113-0.094-0.128-0.176-0.166C32.949,15.811,32.299,15.503,31.573,15.161z"></path>
	<path fill="#B3B4B4" d="M28.127,3.907c0.157-0.082,0.346,0.131,0.2,0.205c-0.419,0.212-0.088,0.437-0.028,0.589
		c0.12,0.307,0.271-0.241,0.442-0.029c0.604-0.864,0.604-0.884,0.003-1.349c-0.339-0.087-0.411-0.437-0.626-0.646
		c-0.095-0.092-0.161-0.274-0.301-0.139c-0.307,0.297,0.047,0.726-0.171,1.053C27.877,3.58,27.74,4.109,28.127,3.907z"></path>
	<path fill="#B3B4B4" d="M23.405,6.806c-0.012,0.027-0.2-0.031-0.261,0.092c0.087,0.185,0.263,0.336,0.429,0.239
		c0.414-0.243,0.531,0.138,0.813,0.26c-0.213,0.216-0.567-0.053-0.646,0.298c0.031,0.112,0.127,0.13,0.215,0.126
		c0.458-0.024,0.851-0.399,1.372-0.195c0.15,0.059,0.26-0.27,0.267-0.48c0.014-0.415-0.295,0.113-0.349-0.116
		c-0.698,0.254-1.002-0.215-1.295-0.706C23.587,6.396,23.593,6.399,23.405,6.806z"></path>
	<path fill="#B3B4B4" d="M26.78,9.689c-0.64,0.376-0.012,0.566,0.115,0.806c0.067,0.128,0.134,0.37,0.394,0.247
		c0.223-0.105,0.373-0.254,0.361-0.564c0.077-0.205-0.138-0.313-0.242-0.481c-0.079-0.126-0.356-0.197-0.157-0.433
		c0.082-0.098,0.207-0.24,0.001-0.312c-0.138-0.048-0.319-0.04-0.46,0.007c-0.148,0.049-0.062,0.183-0.015,0.282
		C26.849,9.393,26.887,9.626,26.78,9.689z"></path>
	<path fill="#B3B4B4" d="M13.512,27.482c-0.412-0.787-0.486-1.645-1.135-2.248c-0.048-0.045-0.107-0.107-0.163-0.109
		c-0.142-0.006-0.325,0.084-0.19,0.215c0.388,0.38,0.357,0.945,0.63,1.333C12.847,26.949,12.773,27.497,13.512,27.482z"></path>
	<path fill="#B3B4B4" d="M28.7,9.525c0.036,0.008,0.218-0.498,0.268-0.777c0.008-0.042-0.328-0.187-0.515-0.213
		c-0.275-0.039-0.429,0.098-0.494,0.4c-0.091,0.419,0.033,0.781,0.193,1.254C28.367,9.909,28.15,9.397,28.7,9.525z"></path>
	<path fill="#B3B4B4" d="M26.576,6.687c-0.25,0.447,0.265,0.642,0.38,1.145c0.227-0.54,0.475-0.938,0.164-1.325
		C26.939,6.282,26.645,6.565,26.576,6.687z"></path>
	<path fill="#B3B4B4" d="M23.273,5.896c0.138,0.117,0.269,0.14,0.386-0.028c0.001-0.211,0.128-0.464-0.218-0.546
		c-0.541-0.127-0.634,0.492-1.092,0.52C22.712,6.267,22.977,5.646,23.273,5.896z"></path>
	<path fill="#B3B4B4" d="M27.592,13.178c0.157-0.033,0.43,0.047,0.4-0.141c-0.049-0.298-0.25-0.612-0.562-0.674
		c-0.273-0.054-0.234,0.308-0.268,0.456C27.095,13.122,27.403,13.117,27.592,13.178z"></path>
	<path fill="#B3B4B4" d="M34.461,12.701c-0.048-0.184-0.126-0.435-0.355-0.44c-0.21-0.005-0.28,0.219-0.248,0.397
		c0.029,0.166,0.091,0.359,0.372,0.367C34.335,12.961,34.508,12.879,34.461,12.701z"></path>
	<path fill="#B3B4B4" d="M26.884,5.195c-0.002-0.587-0.238-0.928-0.859-1.069C26.26,4.568,26.454,4.935,26.884,5.195z"></path>
	<path fill="#B3B4B4" d="M48.836,25.067c-0.077,0.307-0.181,0.621,0.117,0.816c0.129,0.085,0.255-0.043,0.329-0.155
		C49.653,25.167,48.706,25.494,48.836,25.067z"></path>
	<path fill="#B3B4B4" d="M51.637,21.754c-0.069,0.011-0.271,0.009-0.205,0.179c0.131,0.336,0.438,0.273,0.728,0.303
		C52.1,21.916,51.976,21.699,51.637,21.754z"></path>
	<path fill="#B3B4B4" d="M45.6,23.853c0.47-0.002,0.845,0.107,1.272-0.219C46.364,23.539,46.023,23.614,45.6,23.853z"></path>
	<path fill="#B3B4B4" d="M28.193,7.694c-0.037-0.17-0.128-0.332-0.332-0.335c-0.052-0.001-0.166,0.188-0.149,0.267
		c0.034,0.152,0.161,0.286,0.323,0.314C28.189,7.966,28.197,7.829,28.193,7.694z"></path>
	<path fill="#B3B4B4" d="M25.121,6.816c-0.038-0.188-0.076-0.377-0.137-0.676C24.76,6.508,24.925,6.666,25.121,6.816z"></path>
	<path fill="#B3B4B4" d="M27.581,5.041c0.001,0.001,0.024-0.033,0.043-0.06c0.018-0.184-0.077-0.316-0.301-0.479
		C27.196,4.829,27.406,4.927,27.581,5.041z"></path>
	<path fill="#B3B4B4" d="M25.548,8.995c-0.018-0.048-0.185-0.099-0.229-0.069c-0.188,0.126,0.038,0.265,0.012,0.405
		C25.484,9.271,25.62,9.186,25.548,8.995z"></path>
	<polygon fill="#B3B4B4" points="25.331,9.331 25.322,9.335 25.322,9.335 25.325,9.341 25.33,9.341 	"></polygon>
	<path fill="#B3B4B4" d="M18.346,9.865c-0.144-0.111-0.236-0.012-0.427,0.19c0.245-0.04,0.351-0.057,0.457-0.074
		C18.366,9.941,18.371,9.884,18.346,9.865z"></path>
	<path fill="#B3B4B4" d="M10.951,21.169c-0.085,0.037-0.148,0.109-0.127,0.213c0.016,0.08,0.075,0.093,0.146,0.061
		c0.072-0.04,0.192-0.044,0.177-0.159C11.134,21.189,11.057,21.123,10.951,21.169z"></path>
	<path fill="#B3B4B4" d="M47.537,26.072c-0.074,0.069-0.008,0.108,0.056,0.109c0.08,0.002,0.161-0.017,0.3-0.034
		c-0.089-0.077-0.131-0.143-0.177-0.146C47.656,25.997,47.581,26.03,47.537,26.072z"></path>
	<path fill="#B3B4B4" d="M37.264,31.137c-0.073,0.078-0.132,0.141-0.191,0.205c0.063,0.021,0.125,0.058,0.188,0.058
		c0.079,0,0.204,0.009,0.159-0.134C37.405,31.219,37.33,31.19,37.264,31.137z"></path>
</g>
</svg>
