<?xml version="1.0" encoding="utf-8"?>
<!-- Generator: Adobe Illustrator 17.0.0, SVG Export Plug-In . SVG Version: 6.00 Build 0)  -->
<!DOCTYPE svg PUBLIC "-//W3C//DTD SVG 1.1//EN" "http://www.w3.org/Graphics/SVG/1.1/DTD/svg11.dtd">
<svg version="1.1" id="Layer_1" xmlns="http://www.w3.org/2000/svg" xmlns:xlink="http://www.w3.org/1999/xlink" x="0px" y="0px"
	 width="190px" height="35px" viewBox="0 0 190 35" enable-background="new 0 0 190 35" xml:space="preserve">
<g>
	<rect x="0.107" y="-0.146" fill="none" width="190" height="35"/>
	<g>
		<g>
			<g>
				<polyline fill="none" stroke="#08EB8C" stroke-width="2" stroke-miterlimit="10" points="132.322,1.499 132.322,22.078 
					114.381,33.622 				"/>
				
					<line fill="none" stroke="#08EB8C" stroke-width="2" stroke-miterlimit="10" x1="132.322" y1="22.078" x2="151.761" y2="33.622"/>
			</g>
			<g>
				<polyline fill="none" stroke="#08EB8C" stroke-width="2" stroke-miterlimit="10" points="57.278,1.499 57.278,22.078 
					39.337,33.622 				"/>
				<line fill="none" stroke="#08EB8C" stroke-width="2" stroke-miterlimit="10" x1="57.278" y1="22.078" x2="76.716" y2="33.622"/>
			</g>
		</g>
		<g>
			<circle fill="none" stroke="#08EB8C" stroke-width="2" stroke-miterlimit="10" cx="19.514" cy="14.09" r="8.256"/>
			<circle fill="none" stroke="#08EB8C" stroke-width="2" stroke-miterlimit="10" cx="96.171" cy="14.09" r="8.256"/>
			<circle fill="none" stroke="#08EB8C" stroke-width="2" stroke-miterlimit="10" cx="170.252" cy="14.09" r="8.256"/>
		</g>
		<line fill="none" stroke="#08EB8C" stroke-width="2" stroke-miterlimit="10" x1="1.788" y1="0.854" x2="1.788" y2="33.855"/>
		<line fill="none" stroke="#08EB8C" stroke-width="2" stroke-miterlimit="10" x1="38.913" y1="0.854" x2="38.913" y2="33.855"/>
		<line fill="none" stroke="#08EB8C" stroke-width="2" stroke-miterlimit="10" x1="77.219" y1="0.854" x2="77.219" y2="33.855"/>
		<line fill="none" stroke="#08EB8C" stroke-width="2" stroke-miterlimit="10" x1="114.344" y1="0.854" x2="114.344" y2="33.855"/>
		<line fill="none" stroke="#08EB8C" stroke-width="2" stroke-miterlimit="10" x1="151.301" y1="0.854" x2="151.301" y2="33.855"/>
		<line fill="none" stroke="#08EB8C" stroke-width="2" stroke-miterlimit="10" x1="188.426" y1="0.854" x2="188.426" y2="33.855"/>
	</g>
</g>
</svg>
