<svg version="1.1" id="Layer_1" xmlns="http://www.w3.org/2000/svg" xmlns:xlink="http://www.w3.org/1999/xlink" x="0px" y="0px" width="190px" height="67px" viewBox="0 0 190 67" enable-background="new 0 0 190 67" xml:space="preserve">
<g>
	<g>
		<g>
			<polyline fill="none" stroke="#FF9200" stroke-width="2" stroke-miterlimit="10" points="94.611,33.835 94.611,54.414
				76.67,65.958 			"></polyline>
			<line fill="none" stroke="#FF9200" stroke-width="2" stroke-miterlimit="10" x1="94.611" y1="54.414" x2="114.05" y2="65.958"></line>
		</g>
		<g>
			<polyline fill="none" stroke="#FF9200" stroke-width="2" stroke-miterlimit="10" points="94.611,1.042 94.611,21.621
				76.67,33.165 			"></polyline>
			<line fill="none" stroke="#FF9200" stroke-width="2" stroke-miterlimit="10" x1="94.611" y1="21.621" x2="114.05" y2="33.165"></line>
		</g>
		<g>
			<polyline fill="none" stroke="#FF9200" stroke-width="2" stroke-miterlimit="10" points="168.936,33.835 168.936,54.414
				150.995,65.958 			"></polyline>

				<line fill="none" stroke="#FF9200" stroke-width="2" stroke-miterlimit="10" x1="168.936" y1="54.414" x2="188.374" y2="65.958"></line>
		</g>
		<g>
			<polyline fill="none" stroke="#FF9200" stroke-width="2" stroke-miterlimit="10" points="168.936,1.042 168.936,21.621
				150.995,33.165 			"></polyline>

				<line fill="none" stroke="#FF9200" stroke-width="2" stroke-miterlimit="10" x1="168.936" y1="21.621" x2="188.374" y2="33.165"></line>
		</g>
		<g>
			<polyline fill="none" stroke="#FF9200" stroke-width="2" stroke-miterlimit="10" points="19.567,33.835 19.567,54.414
				1.626,65.958 			"></polyline>
			<line fill="none" stroke="#FF9200" stroke-width="2" stroke-miterlimit="10" x1="19.567" y1="54.414" x2="39.005" y2="65.958"></line>
		</g>
		<g>
			<polyline fill="none" stroke="#FF9200" stroke-width="2" stroke-miterlimit="10" points="19.567,1.042 19.567,21.621
				1.626,33.165 			"></polyline>
			<line fill="none" stroke="#FF9200" stroke-width="2" stroke-miterlimit="10" x1="19.567" y1="21.621" x2="39.005" y2="33.165"></line>
		</g>
	</g>
	<rect x="0" y="0" fill="none" width="190" height="67"></rect>
</g>
</svg>
