<svg version="1.1" id="Layer_1" xmlns="http://www.w3.org/2000/svg" xmlns:xlink="http://www.w3.org/1999/xlink" x="0px" y="0px" width="262.845px" height="98.568px" viewBox="0 0 262.845 98.568" enable-background="new 0 0 262.845 98.568" xml:space="preserve">
<g>
	<g>
		<polyline fill="none" stroke="#FF9200" stroke-width="2" stroke-miterlimit="10" points="93.527,32.792 93.527,53.372
			75.586,64.915 		"></polyline>
		<line fill="none" stroke="#FF9200" stroke-width="2" stroke-miterlimit="10" x1="93.527" y1="53.372" x2="112.965" y2="64.915"></line>
	</g>
	<g>
		<polyline fill="none" stroke="#FF9200" stroke-width="2" stroke-miterlimit="10" points="93.527,0 93.527,20.579 75.586,32.123
			"></polyline>
		<line fill="none" stroke="#FF9200" stroke-width="2" stroke-miterlimit="10" x1="93.527" y1="20.579" x2="112.965" y2="32.123"></line>
	</g>
	<g>
		<polyline fill="none" stroke="#FF9200" stroke-width="2" stroke-miterlimit="10" points="93.527,65.585 93.527,86.164
			75.586,97.708 		"></polyline>
		<line fill="none" stroke="#FF9200" stroke-width="2" stroke-miterlimit="10" x1="93.527" y1="86.164" x2="112.965" y2="97.708"></line>
	</g>
	<g>
		<polyline fill="none" stroke="#FF9200" stroke-width="2" stroke-miterlimit="10" points="167.851,32.792 167.851,53.372
			149.91,64.915 		"></polyline>
		<line fill="none" stroke="#FF9200" stroke-width="2" stroke-miterlimit="10" x1="167.851" y1="53.372" x2="187.29" y2="64.915"></line>
	</g>
	<g>
		<polyline fill="none" stroke="#FF9200" stroke-width="2" stroke-miterlimit="10" points="167.851,0 167.851,20.579 149.91,32.123
					"></polyline>
		<line fill="none" stroke="#FF9200" stroke-width="2" stroke-miterlimit="10" x1="167.851" y1="20.579" x2="187.29" y2="32.123"></line>
	</g>
	<g>
		<polyline fill="none" stroke="#FF9200" stroke-width="2" stroke-miterlimit="10" points="167.851,65.585 167.851,86.164
			149.91,97.708 		"></polyline>
		<line fill="none" stroke="#FF9200" stroke-width="2" stroke-miterlimit="10" x1="167.851" y1="86.164" x2="187.29" y2="97.708"></line>
	</g>
	<g>
		<polyline fill="none" stroke="#FF9200" stroke-width="2" stroke-miterlimit="10" points="18.482,32.792 18.482,53.372
			0.541,64.915 		"></polyline>
		<line fill="none" stroke="#FF9200" stroke-width="2" stroke-miterlimit="10" x1="18.482" y1="53.372" x2="37.921" y2="64.915"></line>
	</g>
	<g>
		<polyline fill="none" stroke="#FF9200" stroke-width="2" stroke-miterlimit="10" points="18.482,0 18.482,20.579 0.541,32.123
			"></polyline>
		<line fill="none" stroke="#FF9200" stroke-width="2" stroke-miterlimit="10" x1="18.482" y1="20.579" x2="37.921" y2="32.123"></line>
	</g>
	<g>
		<polyline fill="none" stroke="#FF9200" stroke-width="2" stroke-miterlimit="10" points="18.482,65.585 18.482,86.164
			0.541,97.708 		"></polyline>
		<line fill="none" stroke="#FF9200" stroke-width="2" stroke-miterlimit="10" x1="18.482" y1="86.164" x2="37.921" y2="97.708"></line>
	</g>
	<g>
		<polyline fill="none" stroke="#FF9200" stroke-width="2" stroke-miterlimit="10" points="242.896,32.792 242.896,53.372
			224.955,64.915 		"></polyline>
		<line fill="none" stroke="#FF9200" stroke-width="2" stroke-miterlimit="10" x1="242.896" y1="53.372" x2="262.334" y2="64.915"></line>
	</g>
	<g>
		<polyline fill="none" stroke="#FF9200" stroke-width="2" stroke-miterlimit="10" points="242.896,0 242.896,20.579
			224.955,32.123 		"></polyline>
		<line fill="none" stroke="#FF9200" stroke-width="2" stroke-miterlimit="10" x1="242.896" y1="20.579" x2="262.334" y2="32.123"></line>
	</g>
	<g>
		<polyline fill="none" stroke="#FF9200" stroke-width="2" stroke-miterlimit="10" points="242.896,65.585 242.896,86.164
			224.955,97.708 		"></polyline>
		<line fill="none" stroke="#FF9200" stroke-width="2" stroke-miterlimit="10" x1="242.896" y1="86.164" x2="262.334" y2="97.708"></line>
	</g>
</g>
</svg>
