<svg version="1.1" id="Layer_1" xmlns="http://www.w3.org/2000/svg" xmlns:xlink="http://www.w3.org/1999/xlink" x="0px" y="0px" width="51.667px" height="42px" viewBox="0 0 51.667 42" enable-background="new 0 0 51.667 42" xml:space="preserve">
<g id="UoWMut.tif">
	<g>
		<path d="M21.82,3.465c1.192-0.001,2.403,0.13,3.571-0.04c1.025-0.149,1.989-0.678,3.002-0.961
			c0.844-0.235,1.773-0.637,2.571-0.484c5.294,1.018,10.569,2.141,15.839,3.281c2.596,0.562,3.391,1.79,2.848,4.419
			c-1.686,8.161-3.4,16.316-5.138,24.466c-0.519,2.435-1.701,3.595-3.75,2.896c-6.743-2.3-13.139-0.276-19.616,1.093
			c-2.809,0.594-5.614,1.204-8.426,1.783c-2.345,0.482-3.694-0.332-4.179-2.632c-1.751-8.29-3.475-16.586-5.179-24.886
			C2.85,9.904,3.649,8.71,6.117,8.162c1.64-0.365,3.297-0.653,4.939-1.011c1.449-0.315,2.931-0.358,3.557-2.295
			c0.223-0.692,1.783-1.176,2.798-1.334C18.849,3.299,20.347,3.466,21.82,3.465z M46.435,8.858
			C40.95,7.704,35.716,6.604,30.351,5.475c-1.749,8.381-3.442,16.491-5.158,24.713c5.492,1.148,10.67,2.231,16.052,3.356
			C42.986,25.265,44.679,17.21,46.435,8.858z"></path>
	</g>
</g>
</svg>
