<svg xmlns:dc="http://purl.org/dc/elements/1.1/" xmlns:cc="http://creativecommons.org/ns#" xmlns:rdf="http://www.w3.org/1999/02/22-rdf-syntax-ns#" xmlns:svg="http://www.w3.org/2000/svg" xmlns="http://www.w3.org/2000/svg" xmlns:sodipodi="http://sodipodi.sourceforge.net/DTD/sodipodi-0.dtd" xmlns:inkscape="http://www.inkscape.org/namespaces/inkscape" version="1.1" id="Layer_1" x="0px" y="0px" width="25px" height="29px" viewBox="0 0 25 29" enable-background="new 0 0 25 29" xml:space="preserve" inkscape:version="0.91 r13725" sodipodi:docname="PDF.svg"><metadata id="metadata4328"><rdf:rdf><cc:work rdf:about=""><dc:format>image/svg+xml</dc:format><dc:type rdf:resource="http://purl.org/dc/dcmitype/StillImage"></dc:type></cc:work></rdf:rdf></metadata><defs id="defs4326"></defs><sodipodi:namedview pagecolor="#ffffff" bordercolor="#666666" borderopacity="1" objecttolerance="10" gridtolerance="10" guidetolerance="10" inkscape:pageopacity="0" inkscape:pageshadow="2" inkscape:window-width="640" inkscape:window-height="480" id="namedview4324" showgrid="false" inkscape:zoom="8.137931" inkscape:cx="12.5" inkscape:cy="19.001596" inkscape:window-x="691" inkscape:window-y="298" inkscape:window-maximized="0" inkscape:current-layer="g4312"></sodipodi:namedview><polygon fill="#B3B3B3" points="20.99,-0.042 25,4 21,4 " id="polygon4308"></polygon><g id="g4310"><g id="g4312"><path style="fill:#b3b3b3" d="M 0 0 L 0 29 L 25 29 L 25 6 L 19 6 L 19 0 L 0 0 z M 3.8164062 11.511719 L 6.3164062 11.511719 C 6.6654063 11.511719 6.9946875 11.544422 7.3046875 11.607422 C 7.6156875 11.670422 7.8861875 11.780547 8.1171875 11.935547 C 8.3481875 12.090547 8.5329219 12.3005 8.6699219 12.5625 C 8.8059219 12.8255 8.8730469 13.156641 8.8730469 13.556641 C 8.8730469 13.949641 8.8105937 14.278922 8.6835938 14.544922 C 8.5565938 14.810922 8.3821562 15.023641 8.1601562 15.181641 C 7.9391562 15.340641 7.6760937 15.452531 7.3710938 15.519531 C 7.0670937 15.586531 6.7378125 15.619141 6.3828125 15.619141 L 5.2988281 15.619141 L 5.2988281 18.244141 L 3.8164062 18.244141 L 3.8164062 11.511719 z M 9.8046875 11.511719 L 12.029297 11.511719 C 12.568297 11.511719 13.079453 11.572359 13.564453 11.693359 C 14.048453 11.813359 14.472984 12.007344 14.833984 12.277344 C 15.194984 12.546344 15.481359 12.897125 15.693359 13.328125 C 15.906359 13.759125 16.013672 14.283437 16.013672 14.898438 C 16.013672 15.443437 15.909125 15.922891 15.703125 16.337891 C 15.497125 16.752891 15.220094 17.102766 14.871094 17.384766 C 14.523094 17.666766 14.120063 17.879391 13.664062 18.025391 C 13.208063 18.171391 12.729516 18.244141 12.228516 18.244141 L 9.8046875 18.244141 L 9.8046875 11.511719 z M 17.076172 11.511719 L 21.59375 11.511719 L 21.59375 12.880859 L 18.560547 12.880859 L 18.560547 14.25 L 21.365234 14.25 L 21.365234 15.619141 L 18.560547 15.619141 L 18.560547 18.242188 L 17.076172 18.242188 L 17.076172 11.511719 z M 5.2988281 12.767578 L 5.2988281 14.363281 L 6.2871094 14.363281 C 6.4201094 14.363281 6.5508281 14.351172 6.6738281 14.326172 C 6.7978281 14.301172 6.9068594 14.257266 7.0058594 14.197266 C 7.1038594 14.137266 7.1841406 14.055172 7.2441406 13.951172 C 7.3041406 13.846172 7.3339844 13.715641 7.3339844 13.556641 C 7.3339844 13.385641 7.2957969 13.247578 7.2167969 13.142578 C 7.1367969 13.037578 7.0341562 12.957391 6.9101562 12.900391 C 6.7871562 12.843391 6.6500469 12.807016 6.4980469 12.791016 C 6.3460469 12.775016 6.1995469 12.767578 6.0605469 12.767578 L 5.2988281 12.767578 z M 11.287109 12.880859 L 11.287109 16.873047 L 12.058594 16.873047 C 12.400594 16.873047 12.718672 16.839531 13.013672 16.769531 C 13.308672 16.699531 13.564297 16.583875 13.779297 16.421875 C 13.995297 16.259875 14.163109 16.048156 14.287109 15.785156 C 14.410109 15.522156 14.472656 15.200312 14.472656 14.820312 C 14.472656 14.491312 14.410109 14.204937 14.287109 13.960938 C 14.163109 13.716938 13.997109 13.514469 13.787109 13.355469 C 13.578109 13.197469 13.333781 13.078047 13.050781 12.998047 C 12.768781 12.919047 12.472109 12.880859 12.162109 12.880859 L 11.287109 12.880859 z " id="polygon4314"></path></g><g id="g4316"></g></g></svg>
