<svg version="1.1" id="Layer_1" xmlns="http://www.w3.org/2000/svg" xmlns:xlink="http://www.w3.org/1999/xlink" x="0px" y="0px" width="90.557px" height="90.575px" viewBox="0 0 90.557 90.575" enable-background="new 0 0 90.557 90.575" xml:space="preserve">
<g>
	<path d="M38.406,89.487c0-2.213,0-4.39,0-6.652c-1.394,0-2.644,0-4.021,0c0,2.171,0,4.341,0,6.608c-1.978,0-3.833,0-5.813,0
		c0-2.163,0-4.335,0-6.601c-1.365,0-2.612,0-4.063,0c0,2.193,0,4.394,0,6.645c-2.031,0-3.859,0-5.834,0c0-2.214,0-4.391,0-6.652
		c-1.348,0-2.55,0-3.913,0c0,2.21,0,4.379,0,6.457c-0.229,0.132-0.3,0.21-0.371,0.21c-3.857,0.005-7.714,0.041-11.569-0.036
		c-0.607-0.012-1.515-0.403-1.717-0.866c-0.193-0.443,0.267-1.259,0.599-1.816c0.306-0.514,0.813-0.911,1.247-1.345
		C20.93,67.456,38.916,49.48,56.89,31.493c9.669-9.675,19.307-19.38,29.002-29.029c0.685-0.682,1.835-1.542,2.57-1.385
		c1.292,0.274,0.95,1.768,0.96,2.823c0.032,3.288,0.012,6.576,0.012,9.864c0,0.471,0,0.942,0,1.53c-2.291,0-4.42,0-6.629,0
		c0,1.363,0,2.608,0,3.953c2.197,0,4.372,0,6.653,0c0,1.95,0,3.806,0,5.808c-2.177,0-4.386,0-6.663,0c0,1.394,0,2.644,0,4.068
		c2.219,0,4.425,0,6.698,0c0,1.995,0,3.819,0,5.807c-2.212,0-4.423,0-6.699,0c0,1.416,0,2.67,0,4.069c2.214,0,4.423,0,6.699,0
		c0,1.968,0,3.792,0,5.762c-2.187,0-4.396,0-6.686,0c0,1.43,0,2.715,0,4.124c2.236,0,4.413,0,6.671,0c0,1.94,0,3.759,0,5.745
		c-2.183,0-4.391,0-6.675,0c0,1.419,0,2.674,0,4.076c2.18,0,4.389,0,6.678,0c0,1.962,0,3.782,0,5.761c-2.198,0-4.408,0-6.685,0
		c0,1.405,0,2.653,0,4.02c2.201,0,4.373,0,6.655,0c0,1.965,0,3.816,0,5.786c-2.161,0-4.333,0-6.616,0c0,1.399,0,2.685,0,4.132
		c2.164,0,4.374,0,6.631,0c0,3.078,0.085,6.003-0.037,8.92c-0.06,1.429-0.928,2.107-2.517,2.145
		c-2.977,0.072-5.957,0.021-9.123,0.021c0-2.214,0-4.417,0-6.682c-1.397,0-2.608,0-4.012,0c0,2.201,0,4.403,0,6.662
		c-2.012,0-3.834,0-5.797,0c0-2.196,0-4.363,0-6.629c-1.422,0-2.705,0-4.129,0c0,2.206,0,4.375,0,6.618c-1.962,0-3.786,0-5.753,0
		c0-2.156,0-4.327,0-6.608c-1.377,0-2.617,0-3.985,0c0,2.148,0,4.318,0,6.586c-1.978,0-3.833,0-5.813,0c0-2.163,0-4.334,0-6.601
		c-1.365,0-2.612,0-4.063,0c0,2.192,0,4.393,0,6.645C42.209,89.487,40.381,89.487,38.406,89.487z"></path>
</g>
</svg>
