<svg version="1.1" id="Layer_1" xmlns="http://www.w3.org/2000/svg" xmlns:xlink="http://www.w3.org/1999/xlink" x="0px" y="0px" width="90.449px" height="119.083px" viewBox="0 0 90.449 119.083" enable-background="new 0 0 90.449 119.083" xml:space="preserve">
<g>
	<path d="M3.364,97.391c4.064-6.967,8.038-13.778,12.011-20.589c4.961-8.503,9.902-17.019,14.907-25.496
		c0.627-1.061,1.467-2.075,2.418-2.854c11.936-9.767,23.91-19.488,35.876-29.218c0.445-0.362,0.907-0.701,1.612-1.243
		c-0.548,2.945-1.035,5.631-1.548,8.312c-2.518,13.178-5.037,26.355-7.579,39.528c-0.137,0.711-0.382,1.441-0.744,2.064
		C51.455,83.13,42.57,98.352,33.686,113.574c-0.206,0.354-0.448,0.687-0.714,1.092C23.096,108.903,13.3,103.188,3.364,97.391z
		 M34.717,98.954c-6.199-3.617-12.333-7.196-18.468-10.775c-1.382,2.369-2.719,4.661-4.044,6.932
		c6.217,3.627,12.315,7.185,18.468,10.775C32.042,103.54,33.361,101.278,34.717,98.954z"></path>
	<path d="M80.247,37.563c2.375,0.754,4.622,1.467,7.014,2.227c-0.562,1.476-1.097,2.881-1.691,4.442
		c-2.274-1.016-4.419-1.974-6.697-2.991C79.334,40.006,79.751,38.889,80.247,37.563z"></path>
	<path d="M79.606,23.118c-0.553-1.034-1.067-1.995-1.646-3.076c2.203-1.399,4.32-2.744,6.532-4.148
		c0.748,1.433,1.427,2.734,2.18,4.176C84.294,21.096,81.991,22.089,79.606,23.118z"></path>
	<path d="M47.693,18.569c-1.825-1.697-3.552-3.302-5.39-5.01c-1.008,1.215-1.968,2.373-3.035,3.658
		c2.004,1.48,3.893,2.876,5.9,4.359C46.016,20.566,46.783,19.653,47.693,18.569z"></path>
	<path d="M60.582,12.019c1.172-0.027,2.262-0.053,3.488-0.081c0.134-2.606,0.262-5.111,0.396-7.728
		c-1.616,0.054-3.082,0.103-4.708,0.158C60.035,6.942,60.304,9.436,60.582,12.019z"></path>
</g>
</svg>
