<svg version="1.1" id="Layer_1" xmlns="http://www.w3.org/2000/svg" xmlns:xlink="http://www.w3.org/1999/xlink" x="0px" y="0px" width="108.866px" height="94.583px" viewBox="0 0 108.866 94.583" enable-background="new 0 0 108.866 94.583" xml:space="preserve">
<g>
	<path d="M106.012,66.189c0,4.058-0.03,8.116,0.021,12.173c0.013,1.025-0.293,1.649-1.202,2.182
		c-6.336,3.712-12.658,7.448-18.936,11.255c-1.007,0.611-1.672,0.272-2.469-0.202c-5.901-3.512-11.815-7.001-17.698-10.541
		c-0.832-0.5-1.428-0.555-2.306-0.024c-5.915,3.58-11.882,7.073-17.812,10.629c-0.858,0.515-1.526,0.643-2.467,0.081
		C30.165,83.992,17.168,76.273,4.149,68.593c-1.017-0.6-1.325-1.278-1.319-2.406c0.042-7.972,0.049-15.945-0.006-23.917
		c-0.008-1.173,0.397-1.801,1.378-2.373c5.888-3.439,11.737-6.945,17.611-10.408c0.811-0.478,1.459-0.899,1.41-2.053
		c-0.019-0.457,0.644-1.096,1.149-1.398c9.454-5.654,18.93-11.269,28.402-16.893c3.485-2.07,6.983-4.119,10.443-6.23
		c0.908-0.554,1.612-0.652,2.594-0.058c6.201,3.752,12.438,7.446,18.691,11.11c0.899,0.527,1.24,1.119,1.235,2.16
		c-0.04,7.686,0.008,15.372-0.053,23.057c-0.009,1.174,0.402,1.778,1.37,2.343c5.888,3.439,11.73,6.955,17.618,10.394
		c0.983,0.574,1.392,1.212,1.37,2.382C105.965,58.264,106.012,62.227,106.012,66.189z M25.974,27.301
		c0.545,0.334,0.942,0.582,1.344,0.821c5.242,3.118,10.502,6.208,15.713,9.378c0.954,0.58,1.622,0.553,2.563-0.01
		c8.952-5.364,17.935-10.675,26.907-16.004c3.422-2.032,6.839-4.071,10.384-6.182c-0.505-0.329-0.851-0.572-1.214-0.787
		c-5.326-3.165-10.666-6.305-15.967-9.511c-0.856-0.518-1.452-0.498-2.301,0.009C52.069,11.782,40.711,18.506,29.36,25.245
		C28.263,25.896,27.179,26.569,25.974,27.301z"></path>
</g>
</svg>
