<svg version="1.1" id="Layer_1" xmlns="http://www.w3.org/2000/svg" xmlns:xlink="http://www.w3.org/1999/xlink" x="0px" y="0px" width="108.962px" height="108.796px" viewBox="0 0 108.962 108.796" enable-background="new 0 0 108.962 108.796" xml:space="preserve">
<g>
	<path d="M74.946,77.692c3.814,3.814,7.599,7.599,11.385,11.383c-10.614,10.856-31.256,17.156-50.519,8.683
		c-21.426-9.424-32.83-32.45-27.313-54.662C14.206,20.117,34.714,7.34,52.45,7.107c0,5.416,0,10.832,0,16.165
		c-15.264,2.305-25.443,10.466-28.234,25.821c-2.338,12.864,2.358,23.686,13.35,30.839C50.293,88.215,62.937,86.682,74.946,77.692z"></path>
	<path d="M81.401,54.093c0.057,14.596-11.926,26.879-26.276,26.932c-15.241,0.057-27.275-11.69-27.307-26.655
		c-0.032-14.855,11.971-26.904,26.826-26.929C69.167,27.416,81.345,39.547,81.401,54.093z"></path>
	<path d="M56.802,7.117c24.089,0.524,44.5,21.402,44.913,44.967c-5.383,0-10.766,0-16.302,0c-0.684-7.551-3.575-14.161-8.986-19.581
		c-5.387-5.397-11.924-8.342-19.625-9.046C56.802,18.047,56.802,12.633,56.802,7.117z"></path>
	<path d="M89.552,86.165c-3.934-3.942-7.743-7.759-11.647-11.67c4.392-5.145,6.926-11.198,7.481-18.117c5.473,0,10.853,0,16.459,0
		C101.273,67.808,97.107,77.656,89.552,86.165z"></path>
</g>
</svg>
