<svg version="1.1" id="Layer_1" xmlns="http://www.w3.org/2000/svg" xmlns:xlink="http://www.w3.org/1999/xlink" x="0px" y="0px" width="264px" height="100px" viewBox="0 0 264 100" enable-background="new 0 0 264 100" xml:space="preserve">
<g>
	<g>
		<line fill="none" stroke="#0088ff" stroke-width="2" stroke-miterlimit="10" x1="1.57" y1="0.501" x2="1.57" y2="33.502"></line>
		<line fill="none" stroke="#0088ff" stroke-width="2" stroke-miterlimit="10" x1="38.695" y1="0.501" x2="38.695" y2="33.502"></line>
		<line fill="none" stroke="#0088ff" stroke-width="2" stroke-miterlimit="10" x1="1.57" y1="33.497" x2="1.57" y2="66.498"></line>
		<line fill="none" stroke="#0088ff" stroke-width="2" stroke-miterlimit="10" x1="38.695" y1="33.497" x2="38.695" y2="66.498"></line>
		<line fill="none" stroke="#0088ff" stroke-width="2" stroke-miterlimit="10" x1="1.57" y1="66.498" x2="1.57" y2="99.499"></line>
		<line fill="none" stroke="#0088ff" stroke-width="2" stroke-miterlimit="10" x1="38.695" y1="66.498" x2="38.695" y2="99.499"></line>
		<line fill="none" stroke="#0088ff" stroke-width="2" stroke-miterlimit="10" x1="77.001" y1="0.501" x2="77.001" y2="33.502"></line>
		<line fill="none" stroke="#0088ff" stroke-width="2" stroke-miterlimit="10" x1="114.126" y1="0.501" x2="114.126" y2="33.502"></line>
		<line fill="none" stroke="#0088ff" stroke-width="2" stroke-miterlimit="10" x1="77.001" y1="33.497" x2="77.001" y2="66.498"></line>
		<line fill="none" stroke="#0088ff" stroke-width="2" stroke-miterlimit="10" x1="114.126" y1="33.497" x2="114.126" y2="66.498"></line>
		<line fill="none" stroke="#0088ff" stroke-width="2" stroke-miterlimit="10" x1="77.001" y1="66.498" x2="77.001" y2="99.499"></line>
		<line fill="none" stroke="#0088ff" stroke-width="2" stroke-miterlimit="10" x1="114.126" y1="66.498" x2="114.126" y2="99.499"></line>
		<line fill="none" stroke="#0088ff" stroke-width="2" stroke-miterlimit="10" x1="151.082" y1="0.501" x2="151.082" y2="33.502"></line>
		<line fill="none" stroke="#0088ff" stroke-width="2" stroke-miterlimit="10" x1="188.207" y1="0.501" x2="188.207" y2="33.502"></line>
		<line fill="none" stroke="#0088ff" stroke-width="2" stroke-miterlimit="10" x1="151.082" y1="33.497" x2="151.082" y2="66.498"></line>
		<line fill="none" stroke="#0088ff" stroke-width="2" stroke-miterlimit="10" x1="188.207" y1="33.497" x2="188.207" y2="66.498"></line>
		<line fill="none" stroke="#0088ff" stroke-width="2" stroke-miterlimit="10" x1="151.082" y1="66.498" x2="151.082" y2="99.499"></line>
		<line fill="none" stroke="#0088ff" stroke-width="2" stroke-miterlimit="10" x1="188.207" y1="66.498" x2="188.207" y2="99.499"></line>
		<line fill="none" stroke="#0088ff" stroke-width="2" stroke-miterlimit="10" x1="225.513" y1="0.501" x2="225.513" y2="33.502"></line>
		<line fill="none" stroke="#0088ff" stroke-width="2" stroke-miterlimit="10" x1="262.638" y1="0.501" x2="262.638" y2="33.502"></line>
		<line fill="none" stroke="#0088ff" stroke-width="2" stroke-miterlimit="10" x1="225.513" y1="33.497" x2="225.513" y2="66.498"></line>
		<line fill="none" stroke="#0088ff" stroke-width="2" stroke-miterlimit="10" x1="262.638" y1="33.497" x2="262.638" y2="66.498"></line>
		<line fill="none" stroke="#0088ff" stroke-width="2" stroke-miterlimit="10" x1="225.513" y1="66.498" x2="225.513" y2="99.499"></line>
		<line fill="none" stroke="#0088ff" stroke-width="2" stroke-miterlimit="10" x1="262.638" y1="66.498" x2="262.638" y2="99.499"></line>
	</g>
	<rect x="0.104" y="0" fill="none" width="264" height="100"></rect>
</g>
</svg>
