<?xml version="1.0" encoding="utf-8"?>
<!-- Generator: Adobe Illustrator 17.0.0, SVG Export Plug-In . SVG Version: 6.00 Build 0)  -->
<!DOCTYPE svg PUBLIC "-//W3C//DTD SVG 1.1//EN" "http://www.w3.org/Graphics/SVG/1.1/DTD/svg11.dtd">
<svg version="1.1" xmlns="http://www.w3.org/2000/svg" xmlns:xlink="http://www.w3.org/1999/xlink" x="0px" y="0px" width="226px"
	 height="26px" viewBox="0 0 226 26" enable-background="new 0 0 226 26" xml:space="preserve">
<g id="Main">
	<g>
		<polyline fill="none" stroke="#08EB8C" stroke-width="2" stroke-miterlimit="10" points="164.848,25.042 164.848,17.552 
			178.259,17.552 178.259,7.833 190.273,7.833 190.273,0.958 		"/>
		<polyline fill="none" stroke="#08EB8C" stroke-width="2" stroke-miterlimit="10" points="35.673,25.042 35.673,17.552 
			49.084,17.552 49.084,7.834 61.098,7.834 61.098,0.959 		"/>
		<g>
			<polyline fill="none" stroke="#08EB8C" stroke-width="2" stroke-miterlimit="10" points="112.941,1.715 112.941,16.174 
				100.335,24.285 			"/>
			
				<line fill="none" stroke="#08EB8C" stroke-width="2" stroke-miterlimit="10" x1="112.941" y1="16.174" x2="126.598" y2="24.285"/>
		</g>
		<g>
			<line fill="none" stroke="#08EB8C" stroke-width="2" stroke-miterlimit="10" x1="2.777" y1="1.142" x2="2.777" y2="24.858"/>
			<line fill="none" stroke="#08EB8C" stroke-width="2" stroke-miterlimit="10" x1="29.457" y1="1.142" x2="29.457" y2="24.858"/>
		</g>
		<g>
			<line fill="none" stroke="#08EB8C" stroke-width="2" stroke-miterlimit="10" x1="67.366" y1="1.142" x2="67.366" y2="24.858"/>
			<line fill="none" stroke="#08EB8C" stroke-width="2" stroke-miterlimit="10" x1="94.046" y1="1.142" x2="94.046" y2="24.858"/>
		</g>
		<g>
			<line fill="none" stroke="#08EB8C" stroke-width="2" stroke-miterlimit="10" x1="131.954" y1="1.142" x2="131.954" y2="24.858"/>
			<line fill="none" stroke="#08EB8C" stroke-width="2" stroke-miterlimit="10" x1="158.634" y1="1.142" x2="158.634" y2="24.858"/>
		</g>
		<g>
			<line fill="none" stroke="#08EB8C" stroke-width="2" stroke-miterlimit="10" x1="196.543" y1="1.142" x2="196.543" y2="24.858"/>
			<line fill="none" stroke="#08EB8C" stroke-width="2" stroke-miterlimit="10" x1="223.223" y1="1.142" x2="223.223" y2="24.858"/>
		</g>
		<circle fill="none" stroke="#08EB8C" stroke-width="2" stroke-miterlimit="10" cx="16.231" cy="13" r="8.133"/>
		<circle fill="none" stroke="#08EB8C" stroke-width="2" stroke-miterlimit="10" cx="81.215" cy="13" r="8.133"/>
		<circle fill="none" stroke="#08EB8C" stroke-width="2" stroke-miterlimit="10" cx="145.965" cy="13" r="8.133"/>
		<circle fill="none" stroke="#08EB8C" stroke-width="2" stroke-miterlimit="10" cx="210.481" cy="13" r="8.133"/>
	</g>
</g>
<g id="Confirmations" display="none">
</g>
<g id="popup">
</g>
<g id="notes_for_rapi">
</g>
</svg>
