<?xml version="1.0" encoding="utf-8"?>
<!-- Generator: Adobe Illustrator 17.0.0, SVG Export Plug-In . SVG Version: 6.00 Build 0)  -->
<!DOCTYPE svg PUBLIC "-//W3C//DTD SVG 1.1//EN" "http://www.w3.org/Graphics/SVG/1.1/DTD/svg11.dtd">
<svg version="1.1" id="Layer_1" xmlns="http://www.w3.org/2000/svg" xmlns:xlink="http://www.w3.org/1999/xlink" x="0px" y="0px"
	 width="27.625px" height="29.875px" viewBox="0 0 27.625 29.875" enable-background="new 0 0 27.625 29.875" xml:space="preserve">
<path fill="#FFFFFF" d="M19.682,1.611c0.68,0.607,0.747,0.607,1.164,0.058c0.236,0.037,0.461,0.076,0.688,0.106
	c0.566,0.075,0.79,0.23,0.818,0.576c0.039,0.463-0.366,1.019-0.839,1.071c-0.548,0.06-1.104,0.096-1.653,0.073
	c-0.966-0.041-1.92-0.129-2.88,0.146c-0.443,0.127-0.941,0.056-1.413,0.085c-0.257,0.016-0.444,0.084-0.654,0.317
	c-0.268,0.298-0.726,0.424-1.174,0.663c-0.051-0.369-0.086-0.617-0.127-0.91c-0.473-0.085-0.956-0.182-1.443-0.255
	c-0.479-0.072-0.919,0.013-1.362,0.254c-0.308,0.167-0.733,0.311-1.05,0.234c-0.854-0.208-1.648,0.109-2.47,0.14
	c-0.992,0.038-1.983,0.12-2.974,0.189C4.109,4.371,3.905,4.409,3.598,4.45c-0.084,3.009,0.011,5.969,0.673,8.984
	c0.44-0.11,0.823-0.175,1.185-0.301c1.201-0.417,2.465-0.439,3.704-0.616c0.098-0.014,0.207,0.002,0.296-0.034
	c0.62-0.251,1.235-0.513,1.887-0.785c-0.039-0.235-0.095-0.563-0.148-0.891c-0.085-0.525-0.031-0.931,0.374-1.41
	c0.505-0.597,0.753-1.415,1.092-2.147c0.139-0.3,0.228-0.623,0.371-1.021c-0.348-0.209-0.715-0.429-1.09-0.654
	c0.816-0.58,0.82-0.585,1.513,0.018c0.291,0.253,0.592,0.507,0.823,0.81c0.147,0.193,0.249,0.481,0.237,0.72
	c-0.024,0.472,0.171,0.841,0.492,1.101c0.623,0.505,0.861,1.091,0.622,1.865c-0.053,0.174-0.07,0.36-0.097,0.541
	c-0.064,0.428,0.16,0.711,0.553,0.602c0.509-0.141,0.969-0.142,1.445,0.1c0.114,0.058,0.337,0.03,0.441-0.049
	c0.363-0.274,0.694-0.139,1.01,0.033c0.711-0.456,1.459-0.652,2.244-0.63c0.642,1.067,0.853,2.074-0.096,3.039
	c0.169,0.23,0.303,0.413,0.484,0.66c-0.753,0.859-1.868,1.087-2.827,1.684c-0.081-0.172-0.116-0.331-0.213-0.429
	c-0.133-0.134-0.313-0.312-0.475-0.314c-0.709-0.008-1.418,0.029-2.127,0.071c-0.672,0.04-0.735,0.254-0.647,0.921
	c0.199,1.519,0.707,3.009,0.452,4.577c-0.04,0.247,0.07,0.516,0.084,0.776c0.018,0.338,0.024,0.679,0.008,1.017
	c-0.015,0.315-0.25,0.445-0.521,0.511c-0.291,0.071-1.231-0.345-1.36-0.614c-0.294-0.61-0.585-1.223-0.856-1.843
	c-0.233-0.534-0.322-1.069,0.209-1.547c-0.123-0.22-0.221-0.432-0.353-0.621c-0.247-0.353-0.402-0.689-0.335-1.164
	c0.059-0.419-0.062-0.87-0.143-1.299c-0.062-0.329-0.583-0.703-0.939-0.691c-1.385,0.044-2.775-0.165-4.155,0.219
	c-0.617,0.172-1.301,0.106-1.955,0.148c-0.258,0.017-0.516,0.033-0.823,0.052c0,0.233-0.003,0.408,0.001,0.582
	c0.015,0.759,0.018,1.518,0.052,2.276c0.083,1.863,0.193,3.725,0.264,5.588c0.019,0.495,0.283,0.839,0.666,0.987
	c0.754,0.292,1.539,0.608,2.331,0.674c1.459,0.122,2.932,0.068,4.399,0.094c0.968,0.017,1.936,0.055,2.904,0.07
	c0.892,0.014,1.784,0.006,2.675,0.018c0.234,0.003,0.468,0.035,0.7,0.067c0.91,0.125,1.821,0.241,2.727,0.388
	c0.516,0.084,1.02,0.242,1.536,0.327c0.485,0.08,0.979,0.11,1.531,0.168c0-0.732,0.148-1.399-0.126-2.057
	c-0.057-0.138-0.109-0.344-0.047-0.453c0.249-0.437,0.148-0.876,0.17-1.335c0.029-0.628-0.08-1.137-0.264-1.733
	c-0.337-1.088-0.458-2.251-0.235-3.412c0.129-0.67-0.064-1.296-0.316-1.919c-0.372-0.92-0.635-1.856-0.519-2.886
	c0.073-0.643,0.008-1.303-0.35-1.907c-0.194-0.328-0.394-0.713-0.02-1.129c-0.509-0.277-0.665-0.705-0.71-1.187
	c-0.035-0.379,0.146-0.568,0.507-0.471c0.313,0.085,0.601,0.258,0.901,0.389c0.093,0.04,0.188,0.085,0.286,0.101
	c0.72,0.119,0.726,0.129,0.882,0.832c0.096,0.432,0.211,0.859,0.318,1.289c-0.072,0.019-0.164,0.043-0.257,0.068
	c0.023,0.07,0.023,0.142,0.056,0.161c0.482,0.283,0.627,0.71,0.666,1.254c0.075,1.061,0.202,2.119,0.357,3.175
	c0.128,0.876,0.057,1.779,0.127,2.666c0.037,0.461,0.198,0.911,0.285,1.37c0.063,0.333,0.124,0.67,0.14,1.008
	c0.057,1.245-0.013,2.5,0.308,3.724c0.018,0.069-0.021,0.152-0.037,0.252c-0.157,0.052-0.315,0.105-0.488,0.162
	c0.034,0.113,0.033,0.224,0.08,0.252c0.495,0.297,0.61,0.74,0.561,1.282c-0.015,0.168,0.106,0.344,0.141,0.521
	c0.041,0.205,0.145,0.462,0.064,0.613c-0.222,0.42-0.407,0.785-0.199,1.295c0.091,0.224-0.221,0.394-0.491,0.359
	c-1.114-0.147-2.246-0.225-3.334-0.487c-0.681-0.164-1.295-0.609-2.047-0.982c-0.57,0.068-1.29,0.155-2.009,0.238
	c-0.104,0.012-0.226,0.04-0.312,0.001c-0.745-0.339-1.541-0.089-2.301-0.216c-0.249-0.042-0.486-0.156-0.741-0.241
	c-0.849,0.499-1.775,0.268-2.632,0.066c-0.653-0.154-1.311-0.216-1.933-0.167c-1.239,0.097-2.439,0.077-3.671-0.139
	c-1.017-0.178-1.883-0.533-2.636-1.214c-0.038-0.034-0.088-0.071-0.136-0.077c-0.971-0.112-1.128-0.876-1.322-1.624
	c-0.22-0.852-0.46-1.698-0.705-2.598c0.182-0.072,0.315-0.124,0.534-0.21c-0.083-0.541-0.189-1.118-0.256-1.7
	c-0.045-0.39-0.035-0.787-0.049-1.181c-0.012-0.342,0.045-0.703-0.047-1.022c-0.14-0.487-0.036-0.875,0.301-1.243
	c-0.466-0.901-0.493-1.868-0.556-2.837c-0.051-0.777-0.189-1.549-0.284-2.324C2.04,11.065,1.957,10.72,1.99,10.388
	C2.03,9.986,1.951,9.67,1.702,9.503c0.068-0.364,0.124-0.647,0.172-0.931C1.891,8.469,1.874,8.359,1.901,8.26
	c0.054-0.198,0.032-1.174-0.049-1.353C1.7,6.571,1.6,6.251,1.683,5.853C1.749,5.538,1.662,5.18,1.599,4.85
	C1.509,4.371,1.426,3.929,1.934,3.598c0.158-0.103,0.209-0.356,0.337-0.519c0.296-0.376,0.623-0.434,0.987-0.1
	c0.331,0.303,0.676,0.169,0.945,0.046c0.342-0.157,0.689-0.421,0.892-0.731c0.257-0.394,0.576-0.506,0.988-0.511
	C6.241,1.78,6.399,1.797,6.557,1.804c1.521,0.071,3.042,0.192,4.562,0.189c0.599-0.001,1.203-0.256,1.793-0.432
	c0.33-0.099,0.629-0.224,0.989-0.088c0.146,0.055,0.352-0.025,0.525-0.067c0.572-0.14,1.118-0.179,1.695,0.066
	c0.278,0.118,0.672,0.089,0.972-0.005c0.398-0.124,0.751-0.153,1.115,0.045C18.668,1.762,19.141,1.824,19.682,1.611z M21.319,12.262
	c0.144-0.417,0.144-0.417-0.322-0.631C21.119,11.871,21.219,12.067,21.319,12.262z M19.645,15.074
	c-0.291,0.067-0.468,0.108-0.77,0.178C19.261,15.496,19.445,15.477,19.645,15.074z M24.631,12.96
	c-0.004,0.063-0.009,0.126-0.013,0.189c0.16,0.01,0.32,0.019,0.48,0.029c0.002-0.048,0.005-0.096,0.007-0.143
	C24.947,13.01,24.789,12.985,24.631,12.96z"/>
</svg>
