<?xml version="1.0" encoding="utf-8"?>
<!-- Generator: Adobe Illustrator 17.0.0, SVG Export Plug-In . SVG Version: 6.00 Build 0)  -->
<!DOCTYPE svg PUBLIC "-//W3C//DTD SVG 1.1//EN" "http://www.w3.org/Graphics/SVG/1.1/DTD/svg11.dtd">
<svg version="1.1" xmlns="http://www.w3.org/2000/svg" xmlns:xlink="http://www.w3.org/1999/xlink" x="0px" y="0px" width="13.5px"
	 height="17.562px" viewBox="0 0 13.5 17.562" enable-background="new 0 0 13.5 17.562" xml:space="preserve">
<g id="Main">
	<g>
		<path fill="#B3B3B3" d="M5.408,15.022c-0.092,0-0.175,0-0.259,0c-1.085,0-2.172-0.026-3.256,0.008
			c-0.896,0.029-1.197-0.567-0.974-1.328c0.075-0.257,0.223-0.522,0.41-0.713c0.736-0.752,1.074-1.644,1.067-2.687
			C2.389,9.294,2.35,8.283,2.416,7.279C2.533,5.505,3.46,4.258,5.071,3.524c0.188-0.086,0.265-0.186,0.293-0.385
			c0.063-0.46,0.151-0.917,0.233-1.374C5.688,1.253,6.021,0.962,6.54,0.942c0.147-0.006,0.295-0.006,0.442,0.001
			C7.45,0.965,7.775,1.217,7.874,1.677c0.109,0.507,0.19,1.02,0.274,1.532C8.172,3.36,8.232,3.446,8.38,3.513
			c1.64,0.743,2.562,2.017,2.696,3.81c0.067,0.902,0.057,1.814,0.025,2.72c-0.039,1.126,0.343,2.077,1.066,2.912
			c0.255,0.294,0.429,0.621,0.474,1.014c0.076,0.668-0.261,1.052-0.936,1.053c-1.14,0.001-2.28,0.003-3.419-0.002
			c-0.148-0.001-0.214,0.029-0.236,0.195c-0.084,0.653-0.64,1.125-1.3,1.126c-0.678,0.001-1.213-0.468-1.308-1.145
			C5.435,15.144,5.422,15.093,5.408,15.022z"/>
	</g>
</g>
<g id="Confirmations" display="none">
</g>
<g id="popup">
</g>
<g id="notes_for_rapi">
</g>
</svg>
