<?xml version="1.0" encoding="utf-8"?>
<!-- Generator: Adobe Illustrator 17.0.0, SVG Export Plug-In . SVG Version: 6.00 Build 0)  -->
<!DOCTYPE svg PUBLIC "-//W3C//DTD SVG 1.1//EN" "http://www.w3.org/Graphics/SVG/1.1/DTD/svg11.dtd">
<svg version="1.1" id="Layer_1" xmlns="http://www.w3.org/2000/svg" xmlns:xlink="http://www.w3.org/1999/xlink" x="0px" y="0px"
	 width="78.056px" height="18.518px" viewBox="0 0 78.056 18.518" enable-background="new 0 0 78.056 18.518" xml:space="preserve">
<g>
	<g id="KzpgAA_22_">
		<g>
			<path d="M49.872,0c0.438,0.075,0.88,0.133,1.313,0.229c1.689,0.376,3.094,1.239,4.352,2.422
				c3.004,2.825,3.305,7.595,1.788,10.677c-0.794,1.614-1.982,2.868-3.501,3.78c-2.808,1.686-5.751,1.859-8.735,0.51
				c-1.935-0.875-3.365-2.337-4.371-4.194c-0.823-1.52-1.083-3.17-0.972-4.886c0.148-2.282,1.063-4.208,2.66-5.831
				c1.524-1.549,3.355-2.448,5.517-2.67C47.963,0.033,48,0.013,48.039,0C48.65,0,49.261,0,49.872,0z M47.056,11.04
				c0.432,0.385,0.951,0.681,1.566,0.771c0.387,0.057,0.773,0.066,1.14-0.11c0.329-0.158,0.464-0.433,0.459-0.783
				c-0.005-0.333-0.162-0.559-0.486-0.668c-0.195-0.066-0.386-0.146-0.574-0.23c-2.018-0.9-4.036-1.802-6.054-2.704
				c-0.426-0.19-0.852-0.38-1.279-0.571c-1.223,3.32,0.09,7.5,4.04,9.334c3.875,1.799,7.94-0.011,9.749-3.198
				c-1.143-0.508-2.283-1.014-3.437-1.527c-0.364,1.316-1.3,1.883-2.556,2.072c0,0.466,0,0.916,0,1.372c-0.374,0-0.722,0-1.092,0
				c0-0.472,0-0.923,0-1.383c-1.074-0.037-1.991-0.407-2.798-1.127C46.178,11.868,46.608,11.463,47.056,11.04z M42.668,5.115
				c1.161,0.516,2.317,1.03,3.472,1.544c0.498-1.028,0.818-1.248,2.403-1.664c0-0.449,0-0.907,0-1.389
				c0.317,0,0.605,0.006,0.892-0.002c0.154-0.005,0.202,0.056,0.198,0.204c-0.008,0.322,0.005,0.644-0.005,0.966
				c-0.006,0.177,0.035,0.253,0.235,0.283c0.349,0.052,0.702,0.126,1.029,0.253c0.361,0.141,0.695,0.353,1.09,0.561
				c-0.474,0.434-0.885,0.811-1.297,1.188c-0.031,0.02-0.1-0.023-0.17-0.064c-0.389-0.231-0.802-0.42-1.257-0.403
				c-0.313,0.012-0.632,0.092-0.93,0.195c-0.218,0.076-0.293,0.296-0.288,0.531c0.004,0.216,0.173,0.257,0.323,0.324
				c0.52,0.231,1.04,0.463,1.559,0.695c2.049,0.915,4.098,1.83,6.147,2.745c0.078,0.035,0.16,0.061,0.243,0.092
				c0.987-3.945-1.03-7.699-4.67-9.046C47.958,0.762,44.412,2.336,42.668,5.115z"/>
			<path d="M10.147,0c0.509,0.094,1.025,0.162,1.527,0.286c1.584,0.392,2.933,1.199,4.102,2.332c1.518,1.47,2.402,3.261,2.654,5.343
				c0.22,1.816,0.022,3.588-0.777,5.266c-0.908,1.908-2.339,3.318-4.209,4.242c-2.675,1.321-5.426,1.428-8.131,0.105
				c-3.016-1.475-4.83-3.91-5.238-7.256c-0.342-2.8,0.48-5.292,2.409-7.381c1.543-1.67,3.433-2.676,5.714-2.899
				C8.238,0.033,8.276,0.013,8.314,0C8.925,0,9.536,0,10.147,0z M9.255,16.761c3.65,0.048,7.611-2.905,7.585-7.49
				C16.815,5.03,13.514,1.708,9.311,1.66C4.848,1.61,1.673,5.435,1.679,9.193C1.685,13.325,5.117,16.761,9.255,16.761z"/>
			<path d="M78.056,10.154c-0.071,0.414-0.127,0.831-0.215,1.241c-0.483,2.245-1.709,4.016-3.565,5.321
				c-2.951,2.076-6.119,2.348-9.396,0.867c-1.893-0.856-3.338-2.272-4.276-4.113c-1.369-2.689-1.408-5.456-0.139-8.206
				c0.843-1.826,2.207-3.194,3.939-4.185c1.013-0.58,2.12-0.907,3.283-1.035C67.76,0.037,67.83,0.015,67.901,0
				c0.611,0,1.222,0,1.833,0c0.055,0.014,0.11,0.034,0.167,0.04c2.392,0.24,4.339,1.332,5.933,3.098
				c1.155,1.28,1.834,2.787,2.116,4.48c0.039,0.234,0.071,0.469,0.106,0.704C78.056,8.932,78.056,9.543,78.056,10.154z
				 M76.404,9.232c0.081-4.108-3.426-7.554-7.511-7.58c-4.34-0.028-7.63,3.766-7.652,7.538c-0.023,3.99,3.464,7.616,7.608,7.61
				C72.759,16.793,76.49,13.517,76.404,9.232z"/>
			<path d="M30.009,0c0.422,0.071,0.848,0.124,1.265,0.215c1.759,0.386,3.242,1.259,4.503,2.54c1.378,1.4,2.238,3.064,2.487,5.006
				c0.248,1.938,0.082,3.836-0.817,5.622c-0.625,1.241-1.504,2.266-2.593,3.11c-2.488,1.926-5.274,2.427-8.294,1.636
				c-1.524-0.4-2.816-1.23-3.934-2.335c-0.662-0.654-1.235-1.376-1.683-2.19c-0.83-1.508-1.133-3.131-1.064-4.843
				c0.096-2.372,1.014-4.369,2.667-6.054c1.522-1.552,3.354-2.448,5.516-2.671C28.1,0.033,28.138,0.013,28.176,0
				C28.787,0,29.398,0,30.009,0z M29.118,1.67c-4.341-0.074-7.572,3.737-7.596,7.522c-0.025,3.973,3.446,7.614,7.613,7.608
				c3.851-0.005,7.593-3.244,7.582-7.561C36.706,5.115,33.284,1.595,29.118,1.67z"/>
			<path d="M9.167,7.687c-0.379,0.202-0.73,0.385-1.076,0.574C7.943,8.342,7.879,8.271,7.802,8.15
				C7.518,7.703,7.093,7.522,6.596,7.624C6.279,7.688,6.023,7.85,5.887,8.148c-0.312,0.681-0.318,1.374-0.02,2.059
				c0.177,0.408,0.509,0.618,0.953,0.638c0.465,0.021,0.837-0.151,1.089-0.553c0.039-0.063,0.079-0.125,0.119-0.187
				c0.004-0.006,0.014-0.009,0.049-0.029c0.35,0.176,0.716,0.359,1.105,0.554c-0.324,0.621-0.795,1.057-1.426,1.289
				c-0.723,0.266-1.464,0.246-2.181-0.026c-0.667-0.253-1.129-0.739-1.377-1.408C3.898,9.684,3.889,8.866,4.167,8.06
				c0.4-1.16,1.478-1.798,2.795-1.709C7.8,6.408,8.496,6.714,8.993,7.411C9.05,7.49,9.098,7.576,9.167,7.687z"/>
			<path d="M14.522,10.631c-0.487,0.98-1.521,1.535-2.67,1.458c-1.471-0.099-2.43-1.078-2.507-2.55
				c-0.04-0.768,0.047-1.504,0.521-2.14c0.737-0.991,1.756-1.173,2.898-0.986c0.781,0.127,1.33,0.569,1.738,1.275
				c-0.412,0.22-0.806,0.431-1.214,0.649c-0.057-0.082-0.099-0.141-0.139-0.201c-0.252-0.387-0.609-0.576-1.069-0.535
				c-0.472,0.042-0.807,0.292-0.951,0.747c-0.2,0.632-0.223,1.272,0.083,1.879c0.4,0.795,1.502,0.848,1.999,0.11
				c0.055-0.081,0.105-0.165,0.171-0.268c0.197,0.096,0.389,0.187,0.578,0.281C14.145,10.439,14.327,10.532,14.522,10.631z"/>
			<path d="M67.024,7.92c0.203,0,0.39,0,0.581,0c-0.612,0.599-1.209,1.183-1.795,1.758c-0.544-0.548-1.137-1.145-1.75-1.762
				c0.148,0,0.294-0.009,0.437,0.002c0.165,0.014,0.224-0.049,0.254-0.214c0.165-0.89,0.539-1.674,1.209-2.302
				c0.833-0.782,1.841-1.055,2.954-1.044c2.226,0.022,3.98,1.375,4.467,3.52c0.291,1.279,0.273,2.567-0.314,3.778
				c-0.927,1.911-2.699,2.835-4.788,2.626c-1.935-0.194-3.172-1.343-3.574-3.227c-0.023-0.11-0.033-0.223-0.052-0.353
				c0.108-0.005,0.188-0.012,0.269-0.013c0.437-0.001,0.875-0.001,1.312,0c0.223,0,0.495-0.075,0.653,0.027
				c0.138,0.089,0.146,0.378,0.213,0.578c0.228,0.675,0.76,0.946,1.41,1.037c1.159,0.163,1.945-0.271,2.365-1.368
				c0.439-1.144,0.424-2.315-0.009-3.46c-0.303-0.802-0.913-1.218-1.779-1.197c-0.334,0.008-0.675,0.057-0.999,0.141
				C67.506,6.601,67.036,7.258,67.024,7.92z"/>
			<path d="M31.598,10.712c-0.337,0-0.673,0-1.036,0c0,1.502,0,2.983,0,4.481c-0.965,0-1.903,0-2.877,0c0-1.481,0-2.968,0-4.485
				c-0.377,0-0.719,0-1.084,0c0-0.152,0-0.273,0-0.395c0-1.065,0-2.13,0-3.195c0-0.583,0.191-0.777,0.763-0.777
				c1.205,0,2.411-0.001,3.616,0.001c0.4,0.001,0.645,0.222,0.648,0.62c0.008,1.222,0.001,2.443,0,3.665
				C31.627,10.641,31.617,10.656,31.598,10.712z"/>
			<path d="M29.129,3.244c0.875,0.004,1.281,0.439,1.275,1.363c-0.005,0.836-0.441,1.248-1.314,1.244
				c-0.864-0.003-1.268-0.434-1.262-1.345C27.833,3.669,28.276,3.24,29.129,3.244z"/>
		</g>
	</g>
</g>
</svg>
