<svg version="1.1" id="Layer_1" xmlns="http://www.w3.org/2000/svg" xmlns:xlink="http://www.w3.org/1999/xlink" x="0px" y="0px" width="14.717px" height="25.65px" viewBox="0 0 14.717 25.65" enable-background="new 0 0 14.717 25.65" xml:space="preserve">
<g>
	<g>
		<path fill="#B3B3B3" d="M5.155,13.677H2.213v-3.564h2.941V7.561c0-0.792,0.066-1.539,0.207-2.242
			c0.137-0.702,0.406-1.321,0.8-1.856C6.559,2.928,7.126,2.508,7.87,2.2c0.744-0.307,1.717-0.46,2.925-0.46
			c0.456,0,0.901,0.02,1.336,0.059c0.435,0.04,0.862,0.11,1.276,0.208L13.2,5.778c-0.257-0.098-0.493-0.173-0.713-0.223
			c-0.217-0.049-0.464-0.074-0.742-0.074c-0.713,0-1.247,0.153-1.603,0.46C9.786,6.25,9.608,6.877,9.608,7.828v2.286h3.295v3.564
			H9.608v10.868H5.155V13.677z"></path>
	</g>
</g>
</svg>
