<svg version="1.1" id="Layer_1" xmlns="http://www.w3.org/2000/svg" xmlns:xlink="http://www.w3.org/1999/xlink" x="0px" y="0px" width="39.75px" height="29.516px" viewBox="0 0 39.75 29.516" enable-background="new 0 0 39.75 29.516" xml:space="preserve">
<g>
	<g>
		<g>
			<path fill="#B3B3B3" d="M7.074,27.266h-2.82c-0.67,0-1.504-3.598-1.504-4.437V6.266h4v16.782c0,0.08-0.028,0.459-0.018,0.559
				C6.742,24.457,6.804,26.266,7.074,27.266z"></path>
		</g>
	</g>
	<g>
		<g>
			<path fill="#B3B3B3" d="M9.714,5.598C9.864,5.498,9.764,5.368,9.714,5.598L9.714,5.598z M9.704,5.648c0-0.02,0.01-0.03,0.01-0.05
				c-0.04,0.03-0.09,0.05-0.16,0.07C9.605,5.668,9.654,5.658,9.704,5.648z"></path>
			<path fill="#B3B3B3" d="M7.75,2.266v20.782c0,0.77,0.644,4.218,1.355,4.218h26.47c0.64,0,1.176-3.397,1.176-4.218V2.266H7.75z
				 M12.75,7.266h20v10h-20V7.266z M9.554,5.668c0.07-0.02,0.12-0.04,0.16-0.07c0.05-0.23,0.15-0.1,0,0c0,0.02-0.01,0.03-0.01,0.05
				C9.654,5.658,9.605,5.668,9.554,5.668z M32.304,23.266h-19.13c-0.27,0-0.48-0.22-0.48-0.5s0.21-0.5,0.48-0.5h19.13
				c0.26,0,0.47,0.22,0.47,0.5S32.564,23.266,32.304,23.266z M32.304,20.266h-19.13c-0.27,0-0.48-0.22-0.48-0.5s0.21-0.5,0.48-0.5
				h19.13c0.26,0,0.47,0.22,0.47,0.5S32.564,20.266,32.304,20.266z M32.304,5.266h-19.13c-0.27,0-0.48-0.22-0.48-0.5
				s0.21-0.5,0.48-0.5h19.13c0.26,0,0.47,0.22,0.47,0.5S32.564,5.266,32.304,5.266z"></path>
		</g>
	</g>
</g>
</svg>
