<svg version="1.1" id="Layer_1" xmlns="http://www.w3.org/2000/svg" xmlns:xlink="http://www.w3.org/1999/xlink" x="0px" y="0px" width="39px" height="35.412px" viewBox="0 0 39 35.412" enable-background="new 0 0 39 35.412" xml:space="preserve">
<g>
	<path d="M29.25,17.621L19.5-0.045L9.75,17.729L0,35.412h39L29.25,17.621z M21.75,29.771
		c-0.11,0.27-0.27,0.5-0.46,0.7c-0.2,0.19-0.43,0.35-0.7,0.46c-0.27,0.11-0.55,0.16-0.85,0.16c-0.3,0-0.58-0.05-0.85-0.16
		c-0.27-0.11-0.5-0.27-0.7-0.46c-0.2-0.2-0.35-0.43-0.46-0.7s-0.17-0.55-0.17-0.85s0.06-0.58,0.17-0.85s0.26-0.5,0.46-0.7
		c0.2-0.2,0.43-0.35,0.7-0.46c0.27-0.11,0.55-0.17,0.85-0.17c0.3,0,0.58,0.06,0.85,0.17c0.27,0.11,0.5,0.26,0.7,0.46
		c0.19,0.2,0.35,0.43,0.46,0.7c0.11,0.27,0.16,0.55,0.16,0.85S21.86,29.501,21.75,29.771z M21.933,25.412h-4v-12h4V25.412z"></path>
</g>
</svg>
