<?xml version="1.0" encoding="utf-8"?>
<!-- Generator: Adobe Illustrator 17.0.0, SVG Export Plug-In . SVG Version: 6.00 Build 0)  -->
<!DOCTYPE svg PUBLIC "-//W3C//DTD SVG 1.1//EN" "http://www.w3.org/Graphics/SVG/1.1/DTD/svg11.dtd">
<svg version="1.1" xmlns="http://www.w3.org/2000/svg" xmlns:xlink="http://www.w3.org/1999/xlink" x="0px" y="0px"
	 width="55.625px" height="51.875px" viewBox="0 0 55.625 51.875" enable-background="new 0 0 55.625 51.875" xml:space="preserve">
<g id="Main">
	<g>
		<g>
			<g>
				<g>
					<path d="M36.163,30.158c0.133,0.246,0.248,0.512,0.391,0.746c0.282,0.458,0.583,0.895,0.867,1.35
						c0.229,0.366,0.441,0.751,0.667,1.12c0.222,0.362,0.452,0.714,0.677,1.073c0.091,0.144,0.18,0.291,0.264,0.442
						c0.181,0.323,0.362,0.646,0.537,0.975c0.05,0.094,0.064,0.223,0.116,0.314c0.204,0.361,0.437,0.685,0.703,0.969
						c0.183,0.195,0.379,0.379,0.53,0.614c0.133,0.207,0.21,0.477,0.312,0.719c-0.05,0.208,0.03,0.445-0.093,0.641
						c-0.09,0.144-0.154,0.316-0.236,0.469c-0.026,0.048-0.069,0.09-0.11,0.113c-0.269,0.147-0.535,0.157-0.799-0.033
						c-0.064-0.046-0.137-0.068-0.206-0.1c-0.025-0.012-0.054-0.015-0.077-0.033c-0.254-0.196-0.552-0.204-0.818-0.347
						c-0.086-0.046-0.183-0.056-0.275-0.084c-0.059-0.018-0.119-0.035-0.176-0.062c-0.28-0.129-0.561-0.256-0.84-0.392
						c-0.24-0.117-0.478-0.243-0.715-0.37c-0.487-0.261-0.977-0.514-1.457-0.794c-0.382-0.223-0.75-0.492-1.13-0.722
						c-0.269-0.163-0.549-0.293-0.824-0.439c-0.056-0.03-0.114-0.059-0.167-0.097c-0.268-0.188-0.534-0.383-0.804-0.567
						c-0.27-0.185-0.543-0.366-0.817-0.541c-0.194-0.124-0.395-0.231-0.59-0.351c-0.304-0.187-0.605-0.383-0.91-0.569
						c-0.245-0.149-0.497-0.281-0.741-0.434c-0.364-0.229-0.723-0.473-1.087-0.704c-0.213-0.135-0.429-0.259-0.644-0.388
						c-0.018-0.011-0.041-0.013-0.057-0.028c-0.183-0.164-0.364-0.226-0.543,0.008c-0.296,0.036-0.529,0.304-0.809,0.403
						c-0.099,0.035-0.184,0.138-0.275,0.211c-0.023,0.018-0.042,0.048-0.066,0.058c-0.184,0.077-0.369,0.15-0.553,0.227
						c-0.109,0.046-0.216,0.098-0.324,0.148c-0.006,0.003-0.012,0.014-0.017,0.013c-0.281-0.05-0.468,0.24-0.704,0.351
						c-0.113,0.053-0.213,0.141-0.345,0.136c-0.069-0.003-0.163,0.07-0.206,0.148c-0.081,0.15-0.191,0.205-0.311,0.223
						c-0.169,0.025-0.31,0.116-0.44,0.253c-0.13,0.137-0.265,0.253-0.444,0.202c-0.03-0.009-0.071,0.003-0.097,0.024
						c-0.228,0.187-0.491,0.256-0.732,0.393c-0.185,0.104-0.391,0.188-0.514,0.437c-0.056,0.113-0.15,0.123-0.237,0.118
						c-0.138-0.007-0.249,0.057-0.349,0.179c-0.033,0.04-0.083,0.09-0.12,0.084c-0.139-0.024-0.216,0.07-0.27,0.247
						c-0.117-0.034-0.194-0.005-0.285,0.064c-0.166,0.125-0.358,0.179-0.565,0.211c-0.012,0.041-0.019,0.14-0.059,0.177
						c-0.041,0.039-0.115,0.008-0.171,0.027c-0.047,0.016-0.111,0.045-0.128,0.093c-0.039,0.108-0.089,0.147-0.174,0.143
						c-0.037-0.002-0.088,0.01-0.11,0.043c-0.137,0.212-0.333,0.172-0.507,0.222c-0.09,0.026-0.185,0.023-0.277,0.038
						c-0.138,0.022-0.27,0.103-0.416,0.057c-0.095-0.03-0.175,0.018-0.201,0.162c-0.017,0.096-0.053,0.16-0.132,0.18
						c-0.17,0.042-0.308,0.173-0.441,0.309c-0.079,0.081-0.153,0.096-0.244,0.057c-0.095-0.04-0.196-0.054-0.289-0.102
						c-0.132-0.069-0.26-0.153-0.334-0.335c-0.019-0.046-0.056-0.078-0.086-0.115c-0.314-0.389-0.432-0.872-0.381-1.435
						c0.004-0.044,0.011-0.094,0.029-0.129c0.069-0.136,0.078-0.275,0.062-0.439c-0.018-0.184,0.036-0.36,0.14-0.491
						c0.237-0.301,0.415-0.659,0.593-1.022c0.181-0.37,0.392-0.713,0.586-1.07c0.163-0.299,0.328-0.597,0.481-0.905
						c0.093-0.189,0.079-0.193-0.024-0.388c-0.024-0.045-0.021-0.133-0.009-0.194c0.032-0.155,0.087-0.301,0.114-0.457
						c0.023-0.134,0.088-0.224,0.167-0.25c0.222-0.073,0.261-0.34,0.353-0.55c0.057-0.131,0.102-0.272,0.163-0.399
						c0.095-0.196,0.212-0.374,0.295-0.578c0.072-0.177,0.119-0.377,0.16-0.573c0.032-0.151,0.053-0.292,0.169-0.379
						c0.047-0.035,0.08-0.122,0.1-0.195c0.042-0.151,0.071-0.308,0.109-0.48c-0.027-0.108-0.115-0.107-0.191-0.141
						c-0.095-0.043-0.187-0.096-0.28-0.147c-0.037-0.02-0.072-0.054-0.11-0.069c-0.266-0.102-0.534-0.195-0.799-0.303
						c-0.316-0.129-0.628-0.273-0.942-0.405c-0.257-0.108-0.516-0.209-0.774-0.31c-0.117-0.045-0.235-0.081-0.353-0.123
						c-0.266-0.096-0.534-0.188-0.798-0.291c-0.311-0.122-0.62-0.25-0.928-0.385c-0.237-0.104-0.475-0.208-0.704-0.341
						c-0.345-0.2-0.685-0.417-1.022-0.642c-0.212-0.142-0.3-0.39-0.304-0.712c-0.002-0.202-0.011-0.414-0.127-0.585
						c-0.036-0.052-0.041-0.149-0.047-0.228c-0.012-0.161-0.009-0.324-0.021-0.485c-0.025-0.347,0.075-0.607,0.303-0.762
						c0.135-0.092,0.214-0.176,0.22-0.418c0.008-0.296,0.096-0.574,0.341-0.707c0.151-0.082,0.295-0.023,0.437-0.008
						c0.216,0.023,0.427,0.074,0.64-0.021c0.042-0.019,0.094,0.007,0.14,0.003c0.113-0.01,0.227-0.024,0.34-0.038
						c0.161-0.02,0.322-0.05,0.483-0.062c0.425-0.032,0.849-0.068,1.274-0.08c0.262-0.008,0.524,0.034,0.787,0.035
						c0.472,0.003,0.943-0.004,1.415-0.015c0.296-0.007,0.591-0.025,0.886-0.045c0.08-0.006,0.158-0.048,0.238-0.057
						c0.449-0.052,0.89-0.223,1.346-0.151c0.064,0.01,0.127,0.042,0.187,0.075c0.093,0.051,0.179,0.123,0.273,0.168
						c0.094,0.045,0.283-0.082,0.296-0.209c0.03-0.298,0.144-0.555,0.203-0.84c0.104-0.496,0.235-0.982,0.364-1.468
						c0.065-0.245,0.155-0.478,0.229-0.719c0.031-0.099,0.051-0.204,0.075-0.307c0.008-0.034,0.007-0.073,0.018-0.105
						c0.17-0.509,0.332-1.023,0.516-1.523c0.113-0.306,0.232-0.6,0.298-0.937c0.044-0.229,0.157-0.434,0.237-0.651
						c0.168-0.45,0.333-0.901,0.503-1.349c0.03-0.079,0.072-0.158,0.122-0.214c0.166-0.185,0.198-0.421,0.16-0.687
						c-0.039-0.274-0.017-0.539,0.051-0.801c0.085-0.325,0.273-0.439,0.513-0.31c0.288,0.154,0.455,0.473,0.606,0.805
						c0.072,0.158,0.096,0.353,0.153,0.525c0.032,0.097,0.088,0.18,0.131,0.271c0.155,0.325,0.306,0.654,0.466,0.975
						c0.161,0.322,0.282,0.678,0.486,0.966c0.095,0.134,0.14,0.329,0.219,0.487c0.138,0.275,0.274,0.552,0.453,0.788
						c0.088,0.116,0.152,0.268,0.22,0.41c0.073,0.151,0.13,0.317,0.21,0.461c0.233,0.421,0.465,0.845,0.717,1.245
						c0.131,0.208,0.218,0.45,0.342,0.661c0.207,0.354,0.391,0.739,0.628,1.051c0.142,0.186,0.212,0.427,0.358,0.603
						c0.143,0.173,0.253,0.396,0.379,0.595c0.108,0.17,0.222,0.333,0.325,0.507c0.103,0.173,0.202,0.351,0.291,0.536
						c0.076,0.157,0.162,0.231,0.311,0.239c0.336,0.017,0.67,0.073,1.005,0.113c0.013,0.002,0.027,0.004,0.04,0.005
						c0.405,0.019,0.809,0.036,1.214,0.055c0.329,0.016,0.657,0.035,0.986,0.05c0.27,0.013,0.539,0.017,0.809,0.034
						c0.342,0.021,0.683,0.053,1.025,0.074c0.456,0.028,0.913,0.045,1.369,0.077c0.377,0.026,0.753,0.067,1.13,0.101
						c0.208,0.019,0.417,0.034,0.625,0.055c0.114,0.012,0.227,0.036,0.34,0.053c0.402,0.06,0.804,0.12,1.206,0.179
						c0.027,0.004,0.054,0.008,0.081,0.003c0.369-0.063,0.722,0.084,1.081,0.144c0.066,0.011,0.134-0.002,0.2,0.009
						c0.278,0.046,0.556,0.093,0.833,0.147c0.102,0.02,0.194,0.032,0.294-0.035c0.101-0.068,0.217-0.098,0.325-0.151
						c0.144-0.071,0.289-0.131,0.425-0.24c0.129-0.104,0.287-0.15,0.437-0.198c0.066-0.021,0.142-0.003,0.2,0.09
						c0.076,0.122,0.183,0.211,0.25,0.339c0.142,0.269,0.102,0.55-0.017,0.814c-0.041,0.092-0.038,0.16-0.005,0.25
						c0.088,0.24,0.211,0.468,0.163,0.763c-0.004,0.022,0.011,0.051,0.021,0.075c0.07,0.171,0.056,0.349,0.034,0.505
						c-0.117,0.108-0.219,0.208-0.326,0.297c-0.044,0.037-0.099,0.051-0.149,0.075c-0.063,0.03-0.127,0.058-0.189,0.089
						c-0.037,0.019-0.076,0.069-0.109,0.062c-0.26-0.054-0.477,0.171-0.723,0.194c-0.249,0.023-0.457,0.198-0.683,0.307
						c-0.094,0.046-0.195,0.066-0.292,0.104c-0.161,0.063-0.32,0.135-0.482,0.193c-0.169,0.06-0.34,0.107-0.511,0.162
						c-0.187,0.06-0.384,0.075-0.552,0.228c-0.045,0.041-0.118,0.023-0.176,0.045c-0.187,0.073-0.371,0.159-0.558,0.228
						c-0.148,0.054-0.304,0.072-0.448,0.139c-0.249,0.116-0.498,0.211-0.76,0.268c-0.146,0.032-0.28,0.167-0.419,0.254
						c-0.042,0.027-0.084,0.058-0.129,0.074c-0.253,0.091-0.515,0.149-0.757,0.276c-0.263,0.138-0.538,0.21-0.801,0.341
						c-0.259,0.129-0.517,0.26-0.779,0.375c-0.127,0.056-0.263,0.079-0.394,0.117c-0.158,0.046-0.178,0.123-0.081,0.288
						c0.058,0.099,0.107,0.208,0.161,0.312"/>
				</g>
			</g>
			<g>
				<circle fill="none" stroke-width="2" stroke-miterlimit="10" cx="28.216" cy="26.034" r="23.852"/>
			</g>
		</g>
	</g>
</g>
<g id="Confirmations" display="none">
</g>
<g id="popup">
</g>
<g id="notes_for_rapi">
</g>
</svg>
