<?xml version="1.0" encoding="utf-8"?>
<!-- Generator: Adobe Illustrator 17.0.0, SVG Export Plug-In . SVG Version: 6.00 Build 0)  -->
<!DOCTYPE svg PUBLIC "-//W3C//DTD SVG 1.1//EN" "http://www.w3.org/Graphics/SVG/1.1/DTD/svg11.dtd">
<svg version="1.1" id="Layer_1" xmlns="http://www.w3.org/2000/svg" xmlns:xlink="http://www.w3.org/1999/xlink" x="0px" y="0px"
	 width="27.625px" height="30.375px" viewBox="0 0 27.625 30.375" enable-background="new 0 0 27.625 30.375" xml:space="preserve">
<g>
	<path fill="#FFFFFF" d="M20.266,12.018c-0.742-0.022-1.449,0.174-2.122,0.63c-0.299-0.172-0.612-0.306-0.955-0.033
		c-0.099,0.079-0.31,0.106-0.417,0.049c-0.127-0.068-0.253-0.113-0.38-0.145c-0.278,0.172-0.605,0.29-0.995,0.315
		c-0.906,0.059-1.735,0.161-2.544,0.196c-0.171,0.054-0.346,0.097-0.529,0.117c-0.582,0.062-1.306,0.167-2.036,0.161
		c-0.386,0.171-0.775,0.345-1.153,0.508c-0.084,0.036-0.187,0.02-0.28,0.034c-1.035,0.157-2.086,0.207-3.101,0.501
		c0.041,0.097,0.079,0.197,0.09,0.318c0.072,0.802,0.067,1.622,0.139,2.429c0.418-0.006,0.835-0.014,1.225-0.128
		c1.306-0.384,2.619-0.175,3.929-0.219c0.087-0.003,0.183,0.021,0.28,0.062c2.254-0.023,4.503-0.177,6.755-0.259
		c0.206-0.05,0.371-0.091,0.596-0.146c-0.027,0.058-0.054,0.091-0.082,0.133c0.313-0.01,0.626-0.018,0.939-0.023
		c0.37-0.208,0.717-0.451,1.006-0.8c-0.172-0.248-0.298-0.43-0.458-0.66C21.073,14.091,20.873,13.084,20.266,12.018z M20.048,12.965
		c0.44,0.214,0.44,0.214,0.304,0.631C20.258,13.4,20.163,13.204,20.048,12.965z"/>
	<path fill="#FFFFFF" d="M26.717,27.178c-0.035-0.177-0.156-0.354-0.141-0.521c0.05-0.542-0.066-0.984-0.561-1.282
		c-0.048-0.029-0.047-0.139-0.081-0.252c0.173-0.058,0.331-0.11,0.489-0.162c0.016-0.1,0.055-0.184,0.037-0.252
		c-0.321-1.224-0.251-2.479-0.308-3.724c-0.015-0.337-0.076-0.674-0.14-1.007c-0.087-0.458-0.249-0.909-0.285-1.37
		c-0.07-0.887,0.001-1.79-0.127-2.666c-0.155-1.056-0.281-2.113-0.357-3.175c-0.039-0.544-0.184-0.971-0.666-1.254
		c-0.032-0.019-0.033-0.091-0.055-0.161c0.094-0.025,0.185-0.049,0.257-0.068c-0.107-0.43-0.223-0.857-0.318-1.289
		c-0.156-0.704-0.162-0.713-0.882-0.833c-0.098-0.017-0.194-0.061-0.286-0.101c-0.3-0.131-0.589-0.304-0.901-0.389
		c-0.361-0.098-0.542,0.092-0.507,0.471c0.045,0.481,0.2,0.91,0.71,1.187c-0.374,0.416-0.174,0.802,0.02,1.129
		c0.358,0.604,0.423,1.264,0.35,1.907c-0.116,1.03,0.146,1.965,0.519,2.886c0.252,0.623,0.445,1.249,0.316,1.918
		c-0.223,1.162-0.102,2.324,0.235,3.412c0.184,0.596,0.293,1.105,0.264,1.733c-0.021,0.459,0.079,0.899-0.169,1.335
		c-0.062,0.109-0.01,0.315,0.047,0.453c0.273,0.659,0.126,1.326,0.125,2.058c-0.552-0.059-1.046-0.087-1.531-0.168
		c-0.516-0.085-1.02-0.244-1.536-0.327c-0.906-0.147-1.817-0.264-2.727-0.389c-0.232-0.032-0.466-0.064-0.7-0.067
		c-0.892-0.012-1.784-0.004-2.676-0.018c-0.968-0.015-1.936-0.052-2.904-0.07c-1.467-0.026-2.94,0.028-4.399-0.094
		c-0.792-0.066-1.577-0.382-2.331-0.674c-0.382-0.148-0.646-0.492-0.666-0.987c-0.072-1.863-0.181-3.726-0.264-5.588
		c-0.012-0.28-0.013-0.56-0.019-0.84c-0.09-0.102-0.164-0.227-0.207-0.388c-0.358-1.344-0.28-2.756-0.409-4.13
		c-0.02-0.206,0.032-0.364,0.108-0.5c-0.549-2.808-0.646-5.577-0.568-8.386C3.779,4.493,3.984,4.454,4.189,4.44
		C5.18,4.371,6.171,4.289,7.163,4.251c0.822-0.031,1.616-0.349,2.469-0.14c0.316,0.077,0.742-0.067,1.05-0.234
		c0.443-0.241,0.882-0.326,1.362-0.254c0.487,0.074,0.969,0.171,1.442,0.255c0.041,0.293,0.075,0.542,0.127,0.91
		c0.448-0.238,0.906-0.365,1.174-0.663c0.21-0.233,0.396-0.301,0.654-0.317c0.472-0.029,0.971,0.042,1.413-0.085
		c0.96-0.275,1.914-0.187,2.88-0.146c0.55,0.023,1.106-0.013,1.653-0.073c0.473-0.052,0.877-0.608,0.839-1.071
		c-0.029-0.345-0.252-0.5-0.818-0.576c-0.227-0.03-0.452-0.069-0.688-0.106c-0.417,0.55-0.484,0.549-1.164-0.058
		c-0.541,0.213-1.015,0.15-1.476-0.1c-0.364-0.198-0.717-0.169-1.115-0.044c-0.3,0.094-0.694,0.123-0.972,0.005
		C15.418,1.31,14.872,1.35,14.3,1.489c-0.173,0.042-0.379,0.123-0.525,0.067c-0.36-0.136-0.658-0.011-0.989,0.088
		c-0.59,0.177-1.194,0.432-1.793,0.433C9.473,2.079,7.952,1.959,6.431,1.888C6.274,1.88,6.116,1.863,5.958,1.865
		C5.546,1.871,5.227,1.983,4.97,2.376C4.767,2.687,4.42,2.952,4.078,3.108C3.809,3.231,3.464,3.365,3.133,3.062
		c-0.365-0.334-0.692-0.276-0.987,0.1C2.018,3.325,1.966,3.579,1.809,3.681C1.3,4.013,1.383,4.454,1.474,4.933
		c0.062,0.33,0.149,0.688,0.083,1.003c-0.083,0.398,0.018,0.718,0.17,1.054C1.808,7.169,1.83,8.146,1.776,8.344
		c-0.027,0.099-0.01,0.208-0.028,0.311C1.7,8.939,1.644,9.222,1.576,9.586c0.25,0.168,0.329,0.483,0.289,0.885
		c-0.033,0.333,0.049,0.678,0.091,1.016c0.094,0.775,0.233,1.546,0.284,2.324c0.064,0.969,0.091,1.937,0.556,2.837
		c-0.337,0.368-0.441,0.756-0.301,1.243c0.092,0.318,0.036,0.68,0.047,1.021c0.013,0.394,0.004,0.791,0.049,1.181
		c0.067,0.582,0.173,1.159,0.256,1.7c-0.219,0.086-0.351,0.139-0.534,0.21c0.245,0.9,0.485,1.747,0.705,2.598
		c0.193,0.748,0.351,1.512,1.322,1.625c0.048,0.005,0.098,0.042,0.135,0.077c0.752,0.681,1.619,1.036,2.636,1.214
		c1.232,0.216,2.432,0.235,3.671,0.139c0.622-0.049,1.28,0.014,1.933,0.167c0.858,0.202,1.783,0.434,2.632-0.065
		c0.255,0.085,0.492,0.199,0.741,0.241c0.76,0.127,1.556-0.123,2.302,0.216c0.086,0.04,0.208,0.011,0.312-0.001
		c0.72-0.083,1.439-0.17,2.01-0.238c0.752,0.373,1.366,0.818,2.047,0.982c1.087,0.262,2.219,0.34,3.333,0.487
		c0.27,0.036,0.582-0.134,0.49-0.358c-0.207-0.51-0.023-0.875,0.199-1.295C26.862,27.64,26.758,27.383,26.717,27.178z
		 M24.973,13.261l-0.48-0.029l0.013-0.189l0.474,0.075C24.978,13.165,24.975,13.213,24.973,13.261z"/>
</g>
</svg>
