<?xml version="1.0" encoding="utf-8"?>
<!-- Generator: Adobe Illustrator 17.0.0, SVG Export Plug-In . SVG Version: 6.00 Build 0)  -->
<!DOCTYPE svg PUBLIC "-//W3C//DTD SVG 1.1//EN" "http://www.w3.org/Graphics/SVG/1.1/DTD/svg11.dtd">
<svg version="1.1" xmlns="http://www.w3.org/2000/svg" xmlns:xlink="http://www.w3.org/1999/xlink" x="0px" y="0px"
	 width="18.125px" height="19.167px" viewBox="0 0 18.125 19.167" enable-background="new 0 0 18.125 19.167" xml:space="preserve">
<g id="Main">
	<g>
		<path d="M16.515,15.514l-3.498-3.868c0.576-0.778,0.998-1.692,1.197-2.702c0.712-3.613-1.641-7.12-5.255-7.831
			c-3.606-0.71-7.121,1.642-7.832,5.255C0.416,9.975,2.775,13.49,6.381,14.2c1.556,0.306,3.08,0.047,4.377-0.634l3.553,3.932
			c0.223,0.248,0.51,0.402,0.815,0.462c0.443,0.087,0.92-0.03,1.279-0.36C17.012,17.054,17.06,16.119,16.515,15.514z M4.035,6.941
			c0.395-2.007,2.352-3.313,4.351-2.92c2.007,0.395,3.315,2.344,2.919,4.35c-0.149,0.756-0.51,1.402-1.025,1.905
			c0,0-0.009,0.006-0.017,0.011c-0.133,0.14-0.287,0.268-0.452,0.379c-0.793,0.577-1.817,0.828-2.857,0.624
			C4.955,10.898,3.641,8.94,4.035,6.941z"/>
		<path d="M10.263,10.288c-0.133,0.14-0.287,0.268-0.452,0.379c0.043-0.067,0.1-0.124,0.164-0.179
			C10.066,10.408,10.163,10.337,10.263,10.288z"/>
	</g>
</g>
<g id="Confirmations" display="none">
</g>
<g id="popup">
</g>
<g id="notes_for_rapi">
</g>
</svg>
