<svg version="1.1" id="Layer_1" xmlns="http://www.w3.org/2000/svg" xmlns:xlink="http://www.w3.org/1999/xlink" x="0px" y="0px" width="21.478px" height="21.833px" viewBox="0 0 21.478 21.833" enable-background="new 0 0 21.478 21.833" xml:space="preserve">
<g>
	<g id="z9QLK4_3_">
		<g>
			<path fill="#B3B3B3" d="M20.667,4.569c0,0.339,0,0.678,0,1.017c-0.075,0.268-0.137,0.54-0.228,0.803
				c-0.307,0.887-0.913,1.529-1.719,1.976c-0.725,0.402-1.514,0.507-2.335,0.388c-0.629-0.091-1.195-0.324-1.692-0.72
				c-0.083-0.066-0.151-0.067-0.247-0.018c-1.836,0.923-3.673,1.842-5.513,2.756c-0.118,0.059-0.14,0.126-0.14,0.241
				c0,0.116,0.023,0.183,0.14,0.241c1.84,0.914,3.677,1.833,5.513,2.756c0.107,0.054,0.172,0.033,0.262-0.03
				c0.185-0.131,0.373-0.263,0.575-0.365c0.568-0.285,1.172-0.403,1.81-0.384c0.515,0.015,1.001,0.131,1.462,0.347
				c0.462,0.216,0.858,0.525,1.199,0.909c0.357,0.403,0.62,0.855,0.763,1.375c0.053,0.192,0.1,0.385,0.15,0.578
				c0,0.339,0,0.678,0,1.017c-0.012,0.019-0.03,0.037-0.036,0.057c-0.097,0.334-0.163,0.681-0.295,1
				c-0.202,0.49-0.529,0.897-0.932,1.247c-0.403,0.349-0.851,0.604-1.362,0.748c-0.191,0.054-0.385,0.1-0.577,0.15
				c-0.339,0-0.678,0-1.017,0c-0.069-0.013-0.139-0.024-0.208-0.039c-0.876-0.197-1.622-0.621-2.184-1.324
				c-0.553-0.691-0.842-1.483-0.816-2.381c0.002-0.065-0.059-0.165-0.118-0.195c-1.884-0.948-3.772-1.89-5.659-2.833
				c-1.494,1.225-3.553,1.084-4.854-0.083C1.008,12.37,1,10.054,2.246,8.583c0.661-0.781,1.531-1.212,2.542-1.291
				C5.782,7.214,6.689,7.497,7.46,8.138c1.895-0.946,3.777-1.887,5.66-2.823c0.103-0.051,0.13-0.116,0.124-0.22
				c-0.025-0.457,0.062-0.896,0.222-1.324c0.332-0.887,0.921-1.547,1.751-1.993c0.555-0.298,1.148-0.423,1.781-0.419
				c0.595,0.004,1.148,0.139,1.672,0.405c0.422,0.214,0.783,0.505,1.097,0.864c0.351,0.402,0.604,0.851,0.748,1.363
				C20.57,4.183,20.617,4.377,20.667,4.569z"></path>
		</g>
	</g>
</g>
</svg>
