<?xml version="1.0" encoding="utf-8"?>
<!-- Generator: Adobe Illustrator 17.0.0, SVG Export Plug-In . SVG Version: 6.00 Build 0)  -->
<!DOCTYPE svg PUBLIC "-//W3C//DTD SVG 1.1//EN" "http://www.w3.org/Graphics/SVG/1.1/DTD/svg11.dtd">
<svg version="1.1" xmlns="http://www.w3.org/2000/svg" xmlns:xlink="http://www.w3.org/1999/xlink" x="0px" y="0px" width="25.5px"
	 height="33.75px" viewBox="0 0 25.5 33.75" enable-background="new 0 0 25.5 33.75" xml:space="preserve">
<g id="Main">
	<g>
		<g>
			<path fill="#08EB8C" d="M1.218,1.461c7.711,0,15.398,0,23.112,0c0,10.273,0,20.531,0,30.842c-0.154-0.095-0.284-0.17-0.409-0.253
				c-3.602-2.4-7.205-4.797-10.799-7.209c-0.27-0.181-0.439-0.176-0.706,0.003c-3.594,2.411-7.198,4.808-10.799,7.209
				c-0.117,0.078-0.238,0.151-0.399,0.253C1.218,22.01,1.218,11.757,1.218,1.461z"/>
		</g>
		<g>
			<path fill="#FFFFFF" d="M18.776,17.919c0.506,0.515,0.506,1.344,0,1.85c-0.253,0.262-0.594,0.384-0.925,0.384
				c-0.34,0-0.672-0.122-0.925-0.384l-4.145-4.145l-4.154,4.145c-0.262,0.262-0.594,0.384-0.925,0.384
				c-0.34,0-0.672-0.122-0.925-0.384c-0.515-0.506-0.515-1.335,0-1.85l4.154-4.145L6.777,9.62c-0.515-0.515-0.515-1.335,0-1.85
				c0.506-0.515,1.335-0.515,1.85,0l4.154,4.154l4.145-4.154c0.506-0.515,1.335-0.515,1.85,0c0.506,0.515,0.506,1.335,0,1.85
				l-4.145,4.154L18.776,17.919z"/>
		</g>
	</g>
</g>
<g id="Confirmations" display="none">
</g>
<g id="popup">
</g>
<g id="notes_for_rapi">
</g>
</svg>
