<?xml version="1.0" encoding="utf-8"?>
<!-- Generator: Adobe Illustrator 17.0.0, SVG Export Plug-In . SVG Version: 6.00 Build 0)  -->
<!DOCTYPE svg PUBLIC "-//W3C//DTD SVG 1.1//EN" "http://www.w3.org/Graphics/SVG/1.1/DTD/svg11.dtd">
<svg version="1.1" xmlns="http://www.w3.org/2000/svg" xmlns:xlink="http://www.w3.org/1999/xlink" x="0px" y="0px" width="25.5px"
	 height="33.75px" viewBox="0 0 25.5 33.75" enable-background="new 0 0 25.5 33.75" xml:space="preserve">
<g id="Main">
	<g>
		<g>
			<path fill="#08EB8C" d="M1,1.778c7.711,0,15.4,0,23.115,0c0,10.274,0,20.533,0,30.845c-0.154-0.095-0.284-0.17-0.409-0.253
				c-3.602-2.4-7.206-4.798-10.801-7.209c-0.27-0.181-0.439-0.176-0.706,0.003c-3.595,2.411-7.199,4.809-10.801,7.209
				C1.282,32.45,1.161,32.523,1,32.625C1,22.329,1,12.075,1,1.778z"/>
		</g>
		<g>
			<path fill="#FFFFFF" d="M10.306,19.425c-0.356,0-0.705-0.144-0.955-0.396l-2.946-2.946c-0.255-0.255-0.395-0.594-0.395-0.955
				c0-0.361,0.141-0.7,0.395-0.955c0.51-0.51,1.399-0.51,1.909,0l1.867,1.866l6.438-8.251c0.442-0.569,1.324-0.679,1.896-0.234
				c0.586,0.458,0.692,1.308,0.234,1.895l-7.378,9.456c-0.239,0.305-0.597,0.494-0.983,0.517L10.306,19.425z"/>
		</g>
	</g>
</g>
<g id="Confirmations" display="none">
</g>
<g id="popup">
</g>
<g id="notes_for_rapi">
</g>
</svg>
