<svg version="1.1" id="Layer_1" xmlns="http://www.w3.org/2000/svg" xmlns:xlink="http://www.w3.org/1999/xlink" x="0px" y="0px" width="33px" height="26.25px" viewBox="0 0 33 26.25" enable-background="new 0 0 33 26.25" xml:space="preserve">
<g id="_x32_PQQkD_16_">
	<g>
		<path fill="#B3B3B3" d="M30.577,1.187c-0.478,1.396-1.307,2.429-2.461,3.226c1.114-0.094,2.16-0.414,3.219-0.795
			c-0.222,0.295-0.415,0.621-0.673,0.88c-0.668,0.669-1.36,1.315-2.054,1.957c-0.138,0.127-0.201,0.238-0.198,0.43
			c0.077,4.376-1.298,8.256-4.077,11.62c-2.586,3.131-5.927,5.003-9.927,5.652c-3.892,0.631-7.604,0.048-11.092-1.829
			c-0.316-0.17-0.619-0.363-0.931-0.574c3.196,0.253,6.088-0.526,8.693-2.494c-2.726-0.234-4.553-1.599-5.567-4.167
			c0.922,0.143,1.773,0.131,2.67-0.108c-1.672-0.41-2.951-1.29-3.84-2.707c-0.604-0.962-0.903-2.013-0.893-3.204
			C4.28,9.475,5.116,9.761,6.11,9.784C4.595,8.676,3.716,7.261,3.53,5.473C3.384,4.071,3.699,2.774,4.305,1.859
			c3.22,3.785,7.298,5.87,12.281,6.219c-0.038-0.356-0.089-0.679-0.104-1.005c-0.133-2.775,1.416-5.134,4.056-6.012
			c2.201-0.732,4.209-0.269,5.944,1.277c0.23,0.205,0.41,0.273,0.718,0.195c1.081-0.273,2.114-0.657,3.087-1.2
			C30.36,1.292,30.437,1.257,30.577,1.187z"></path>
	</g>
</g>
</svg>
